<svg width="40" height="41" viewBox="0 0 40 41" fill="none" xmlns="http://www.w3.org/2000/svg">
<circle cx="20" cy="20.8667" r="19.6" fill="#FFE5F1" stroke="#FF1A88" stroke-width="0.8"/>
<g clip-path="url(#clip0_13137_10813)">
<path d="M33.3201 23.6215C33.3201 24.2103 33.2122 24.7735 33.0147 25.2927C32.3387 27.0661 30.6213 28.3258 28.6086 28.3258C26.5488 28.3258 24.7985 27.0062 24.1577 25.1672C20.3525 25.4404 18.1766 23.7421 17.2719 20.5051C14.9865 19.8845 13.3066 17.798 13.3066 15.3191C13.3066 13.7159 14.0097 12.2763 15.1248 11.2922C16.0736 10.4534 17.3215 9.9446 18.6886 9.9446C20.2547 9.9446 21.6651 10.6123 22.6474 11.6797C23.3081 11.2482 24.0976 10.9982 24.9457 10.9982C25.5375 10.9982 26.1016 11.1204 26.6127 11.3409C28.0918 11.9784 29.1318 13.4386 29.1549 15.1442C29.1557 15.1642 29.1557 15.1833 29.1557 15.2033L29.1549 15.2745V15.2752C29.37 15.2281 29.5932 15.2033 29.8228 15.2033C30.8483 15.2033 31.7595 15.6938 32.3338 16.4527H32.3347C32.733 16.9792 32.969 17.635 32.969 18.3459C32.9704 19.0833 32.7102 19.7973 32.2347 20.3614C32.1989 20.4049 32.1618 20.4472 32.1234 20.4884C32.8682 21.32 33.3201 22.4183 33.3201 23.6215" fill="#FF5CAA"/>
<path d="M24.8932 14.9391C24.0408 15.8642 23.5202 17.0991 23.5202 18.4555C23.5202 21.3241 25.849 23.6497 28.7216 23.6497C29.0922 23.6498 29.4618 23.6106 29.8242 23.5327M18.4609 13.2624C18.5911 15.1384 20.1562 16.62 22.0679 16.62M27.8179 15.9233C28.2045 15.6025 28.6631 15.38 29.1545 15.2747M22.647 11.6791C22.0415 12.0729 21.5439 12.6186 21.2088 13.2624" stroke="#17202B" stroke-width="0.639969" stroke-miterlimit="10" stroke-linecap="round" stroke-linejoin="round"/>
<path d="M33.3197 23.6206C33.3197 26.2192 31.2102 28.325 28.6081 28.325C26.5483 28.325 24.798 27.0054 24.1572 25.1664C20.352 25.4395 18.1761 23.7412 17.2714 20.5043C14.986 19.8837 13.3062 17.7972 13.3062 15.3183C13.3062 12.3499 15.7155 9.94378 18.6881 9.94378C20.2543 9.94378 21.6646 10.6115 22.6469 11.6789C23.3076 11.2474 24.0971 10.9973 24.9452 10.9973C27.2705 10.9973 29.1552 12.8803 29.1552 15.2025L29.1544 15.2736V15.2744C29.3695 15.2273 29.5927 15.2025 29.8224 15.2025C31.5598 15.2025 32.9685 16.6092 32.9685 18.3451C32.9685 19.1735 32.6477 19.926 32.1229 20.4876C32.8677 21.3191 33.3196 22.4175 33.3196 23.6207L33.3197 23.6206Z" stroke="#17202B" stroke-width="0.559936" stroke-miterlimit="10" stroke-linejoin="round"/>
<path d="M32.1231 20.4877C32.1231 20.4877 31.7579 20.1092 31.2583 19.7153M18.0739 29.0193C17.8677 28.5891 17.7357 28.1273 17.6836 27.6532" stroke="#17202B" stroke-width="0.639969" stroke-miterlimit="10" stroke-linecap="round" stroke-linejoin="round"/>
<path d="M27.3125 25.7471C27.479 26.2086 27.564 26.6954 27.5635 27.1859C27.5635 29.7086 25.3462 31.7528 22.6103 31.7528C20.5818 31.7528 18.8386 30.6288 18.0739 29.0192C17.4437 29.4466 16.6876 29.6958 15.8757 29.6958C14.0551 29.6958 12.5192 28.4448 12.0377 26.7337C11.6939 26.8193 11.3409 26.8625 10.9866 26.8623C8.60835 26.8623 6.67969 24.937 6.67969 22.5613C6.67969 20.7368 7.81798 19.1775 9.42423 18.5536C9.36105 18.2924 9.32746 18.0216 9.32746 17.7436C9.32746 15.5891 11.3321 13.8428 13.8055 13.8428C15.2254 13.8428 16.4924 14.4195 17.3123 15.3174C17.9699 14.9651 18.7283 14.7631 19.5362 14.7631C22.0424 14.7631 24.0742 16.7035 24.0742 19.0968C24.0744 19.1532 24.0731 19.2097 24.0701 19.266C26.1381 19.6447 27.7099 21.5412 27.7099 23.8243C27.7099 24.5105 27.5683 25.1615 27.3124 25.7471" fill="#FF5CAA"/>
<path d="M25.7049 23.6211C26.4432 24.1658 27.008 24.9024 27.312 25.7475M12.0372 26.7341C11.9348 26.3714 11.8804 25.9888 11.8804 25.5926C11.8804 23.9756 12.7915 22.577 14.1147 21.9083M10.5454 18.284C10.1534 18.3239 9.77744 18.4158 9.42383 18.554M17.3128 15.3186L17.3119 15.3178M17.3119 15.3178C16.7497 15.6214 16.2617 16.0353 15.8802 16.529" stroke="#17202B" stroke-width="0.639969" stroke-miterlimit="10" stroke-linecap="round" stroke-linejoin="round"/>
<path d="M27.3125 25.7472C27.479 26.2086 27.564 26.6955 27.5635 27.1859C27.5635 29.7087 25.3462 31.7529 22.6103 31.7529C20.5818 31.7529 18.8386 30.6288 18.0739 29.0193C17.4437 29.4466 16.6876 29.6959 15.8757 29.6959C14.0551 29.6959 12.5192 28.4449 12.0377 26.7338C11.6939 26.8194 11.3409 26.8626 10.9866 26.8624C8.60835 26.8624 6.67969 24.9371 6.67969 22.5614C6.67969 20.7369 7.81798 19.1776 9.42423 18.5536C9.36105 18.2925 9.32746 18.0217 9.32746 17.7437C9.32746 15.5892 11.3321 13.8429 13.8055 13.8429C15.2254 13.8429 16.4924 14.4196 17.3123 15.3175C17.9699 14.9652 18.7283 14.7632 19.5362 14.7632C22.0424 14.7632 24.0742 16.7036 24.0742 19.0969C24.0744 19.1533 24.0731 19.2097 24.0701 19.2661C26.1381 19.6448 27.7099 21.5413 27.7099 23.8243C27.7099 24.5105 27.5683 25.1616 27.3124 25.7471L27.3125 25.7472Z" stroke="#17202B" stroke-width="0.559936" stroke-miterlimit="10" stroke-linejoin="round"/>
<path d="M20.1992 20.5541C20.9959 19.717 22.0958 19.1985 23.3101 19.1985C23.5693 19.1985 23.8229 19.2217 24.07 19.2671M23.7851 24.7086C23.1574 25.4924 22.1916 25.9946 21.1084 25.9946C19.2166 25.9946 17.6831 24.463 17.6831 22.574C17.6819 21.7852 17.9549 21.0204 18.4554 20.4102" stroke="#17202B" stroke-width="0.639969" stroke-miterlimit="10" stroke-linecap="round" stroke-linejoin="round"/>
<path d="M22.6232 27.6882C22.6232 27.0164 22.4535 26.3846 22.1544 25.8325M15.4645 25.5034C16.0293 24.6678 16.9085 24.0631 17.9332 23.8578M9.35791 22.5652C9.7918 22.3935 10.2543 22.3055 10.721 22.3056C11.4693 22.3046 12.2001 22.5314 12.816 22.9559M16.4002 19.417C16.1671 19.4856 15.9204 19.5223 15.665 19.5223C14.9873 19.5232 14.3362 19.259 13.8512 18.7864M27.642 19.2502C28.0005 18.9831 28.4361 18.8391 28.8834 18.8398C29.0077 18.8397 29.1318 18.8507 29.2542 18.8726" stroke="#17202B" stroke-width="0.639969" stroke-miterlimit="10" stroke-linecap="round" stroke-linejoin="round"/>
<path d="M32.4918 20.4894C32.9814 19.8828 33.2484 19.1306 33.2484 18.3453C33.2484 16.4582 31.7114 14.923 29.8223 14.923C29.6902 14.923 29.5585 14.9306 29.4278 14.9457C29.2941 12.5919 27.3345 10.7179 24.945 10.7179C24.1482 10.7179 23.3743 10.9262 22.6924 11.3224C21.63 10.2621 20.1899 9.66587 18.6879 9.6643C16.1704 9.6643 14.0324 11.314 13.2985 13.5873C10.9123 13.8103 9.04712 15.5891 9.04712 17.7437C9.04712 17.9582 9.0659 18.1729 9.10292 18.3848C7.45269 19.1234 6.39941 20.7379 6.39941 22.5615C6.39941 25.0872 8.45707 27.142 10.9862 27.142C11.2751 27.1421 11.5632 27.1151 11.847 27.0616C12.4474 28.7899 14.0681 29.9755 15.8754 29.9755C16.6088 29.976 17.3293 29.7835 17.9644 29.4173C18.8586 31.0158 20.6472 32.0325 22.61 32.0325C24.9997 32.0325 27.0191 30.5407 27.6429 28.5103C27.9568 28.5721 28.2796 28.6046 28.6079 28.6046C31.3603 28.6046 33.5995 26.3687 33.5995 23.6207C33.5995 22.4759 33.2079 21.3733 32.4918 20.4894V20.4894Z" stroke="#17202B" stroke-width="1.11993" stroke-miterlimit="10" stroke-linejoin="round"/>
<path d="M18.6882 8.06667C17.2093 8.06667 15.7869 8.50643 14.5745 9.33832C13.5277 10.0566 12.6979 11.0255 12.1498 12.1631C9.48177 12.8088 7.57422 14.9529 7.45363 17.4883C5.80227 18.6333 4.7998 20.5238 4.7998 22.5616C4.7998 25.9325 7.51747 28.6816 10.8795 28.7388C11.9412 30.4807 13.8336 31.5733 15.8757 31.5733C16.3974 31.5733 16.91 31.5042 17.4073 31.3674C18.6942 32.7966 20.585 33.6302 22.6103 33.6302C23.9822 33.6302 25.3111 33.2418 26.4533 32.5071C27.3815 31.9101 28.1294 31.1221 28.6469 30.2023C32.2639 30.1815 35.1997 27.2371 35.1997 23.6208C35.1997 22.5035 34.9198 21.4194 34.3852 20.4501C34.6907 19.7903 34.8488 19.0721 34.8486 18.3453C34.8486 17.0288 34.3405 15.7839 33.4178 14.8401C32.6902 14.0958 31.7692 13.6041 30.7669 13.4138C30.4281 12.3155 29.7794 11.326 28.8929 10.5718C27.7913 9.63538 26.392 9.12083 24.9454 9.12018C24.2711 9.12018 23.5943 9.23443 22.9567 9.45335C21.718 8.55526 20.2252 8.06667 18.6882 8.06667ZM18.6882 9.10514C20.1876 9.10514 21.658 9.66119 22.7843 10.6429C23.4599 10.3239 24.1979 10.1586 24.9452 10.1588C27.4344 10.1588 29.5244 11.9665 29.9259 14.3652C32.0761 14.4203 33.8086 16.1846 33.8086 18.3453C33.8078 19.1024 33.5915 19.8437 33.1849 20.4827C33.8161 21.4011 34.1597 22.4999 34.1597 23.6209C34.1597 26.6774 31.6692 29.164 28.6081 29.164C28.4101 29.164 28.2114 29.1533 28.0137 29.1319C27.1594 31.1913 25.0065 32.5918 22.6102 32.5918C20.634 32.5918 18.8231 31.6662 17.7606 30.1446C17.1655 30.4017 16.5241 30.5345 15.8757 30.5348C13.9866 30.5348 12.2779 29.4037 11.4911 27.6768C11.3235 27.6932 11.1549 27.7013 10.9865 27.7013C8.14862 27.7013 5.83976 25.3957 5.83976 22.5616C5.83976 20.68 6.87096 18.9563 8.49941 18.0611C8.49151 17.9555 8.48755 17.8497 8.48753 17.7438C8.48753 15.4192 10.3546 13.4663 12.8867 13.0751C13.8118 10.686 16.0994 9.10514 18.6883 9.10514" fill="#FAFCF8"/>
</g>
<defs>
<clipPath id="clip0_13137_10813">
<rect width="30.4" height="25.5636" fill="white" transform="translate(4.7998 8.06667)"/>
</clipPath>
</defs>
</svg>
