<svg width="55" height="63" viewBox="0 0 55 63" fill="none" xmlns="http://www.w3.org/2000/svg">
<path fill-rule="evenodd" clip-rule="evenodd" d="M27.0114 0.0132932C25.9848 0.123451 24.9554 0.627119 24.1934 1.39198C23.8392 1.74773 23.4187 2.32536 23.4187 2.45643C23.4187 2.49606 23.3982 2.52851 23.3731 2.52851C23.348 2.52851 23.3141 2.56939 23.298 2.61964C23.2816 2.66957 23.1978 2.90954 23.1113 3.15264C22.9283 3.66692 22.835 4.30914 22.8592 4.88739L22.8759 5.29619L17.9911 8.13034C12.6572 11.2254 12.9462 11.0578 12.4422 11.3483C12.2475 11.4604 12.0149 11.5967 11.9252 11.651C11.8356 11.705 11.6343 11.8195 11.478 11.9054C11.3217 11.9909 11.1589 12.0882 11.1164 12.1216C11.0736 12.155 10.9805 12.2112 10.9095 12.2464C10.8385 12.2817 10.7336 12.3391 10.6769 12.3738C10.6201 12.4084 10.399 12.5373 10.1859 12.6602C9.97254 12.7832 9.71666 12.9327 9.61711 12.9926C9.51755 13.0525 9.3082 13.1717 9.15188 13.2575C8.99557 13.343 8.83275 13.4391 8.79026 13.471C8.74746 13.5028 8.6572 13.5602 8.58928 13.5986C8.24781 13.7921 8.07847 13.8898 7.93735 13.9753C7.50563 14.2368 7.38405 14.2549 7.23952 14.0801C7.22525 14.063 7.15547 14.0152 7.08445 13.974C4.43268 12.438 1.12837 13.6326 0.24538 16.4462C-0.302341 18.1919 0.0757299 19.9169 1.29089 21.2157C1.50148 21.441 2.13325 21.9285 2.21451 21.9285C2.24428 21.9285 2.27623 21.9478 2.28553 21.9715C2.29515 21.9953 2.43657 22.078 2.60002 22.155L2.89745 22.2955V31.2376V40.1798L2.57428 40.3308C-1.03553 42.0187 -0.763219 47.4814 3.00073 48.8919C4.16999 49.3304 6.1816 49.1918 6.82981 48.6285C6.87478 48.5895 6.92875 48.5577 6.94984 48.5577C6.97093 48.5577 7.08971 48.4875 7.21346 48.4017C7.33752 48.3158 7.45538 48.2456 7.47523 48.2456C7.51493 48.2456 11.1257 50.328 11.1678 50.3755C11.1821 50.3914 11.2637 50.4394 11.349 50.4822C11.4343 50.5249 11.6784 50.6629 11.8917 50.7886C12.4156 51.0976 12.5914 51.1984 12.9255 51.3812C13.0818 51.4667 13.2446 51.5628 13.2874 51.5947C13.3299 51.6262 13.4204 51.6836 13.4884 51.7223C13.556 51.7607 13.6955 51.8406 13.7985 51.8999C13.9012 51.9588 14.0432 52.04 14.1142 52.0796C14.1856 52.1193 14.3366 52.2094 14.4504 52.28C14.564 52.3505 14.7035 52.431 14.7606 52.4585C14.8174 52.4859 14.9569 52.5664 15.0707 52.637C15.1843 52.7075 15.3356 52.7977 15.4066 52.8373C15.4777 52.8769 15.62 52.9581 15.7227 53.0171C15.8253 53.0763 15.9649 53.1562 16.0328 53.1946C16.1007 53.2333 16.191 53.2907 16.2338 53.3223C16.2763 53.3541 16.4391 53.4502 16.5954 53.5357C16.7517 53.6215 16.9611 53.7407 17.0606 53.8006C17.1602 53.8606 17.4161 54.01 17.6295 54.1324C17.8425 54.255 18.0776 54.3908 18.1517 54.4341C19.2121 55.0554 19.5899 55.267 19.6386 55.267C19.6709 55.267 19.6969 55.2867 19.6969 55.3107C19.6969 55.3347 19.7493 55.3806 19.8132 55.4128C19.9785 55.4955 20.386 55.7295 21.7129 56.5031L22.8759 57.1812L22.8598 57.5635C22.8192 58.5125 23.1516 59.7782 23.5886 60.338C23.611 60.3667 23.6873 60.4719 23.758 60.5721C23.9112 60.7883 24.6081 61.5083 24.6645 61.5083C24.6859 61.5083 24.7343 61.5388 24.7718 61.5766C25.6316 62.4351 27.8609 62.7056 29.26 62.1212C31.0833 61.3594 32.3314 59.346 32.1242 57.5001C32.0895 57.1909 32.109 57.1622 32.4905 56.955C32.8828 56.7421 33.3217 56.4906 33.3434 56.4663C33.3729 56.4335 33.5019 56.3583 33.9122 56.1352C34.0685 56.0503 34.2313 55.9526 34.2738 55.9183C34.3166 55.8843 34.427 55.8262 34.5195 55.7894C34.6119 55.7526 34.6876 55.7045 34.6876 55.683C34.6876 55.6612 34.7282 55.6296 34.7778 55.6134C34.8278 55.5969 34.9614 55.5245 35.0753 55.4521C35.1888 55.38 35.3693 55.2829 35.4757 55.2364C35.5823 55.1896 35.6695 55.1353 35.6695 55.115C35.6695 55.0948 35.7511 55.0464 35.8506 55.0071C35.9499 54.9678 36.0314 54.9222 36.0314 54.906C36.0314 54.8897 36.1071 54.8429 36.1995 54.8021C36.292 54.7612 36.4883 54.6501 36.6362 54.5552C36.7842 54.4603 36.9296 54.3829 36.9594 54.3829C36.9892 54.3829 37.0137 54.3639 37.0137 54.3405C37.0137 54.3174 37.0949 54.2662 37.1945 54.2269C37.294 54.1876 37.3753 54.1364 37.3753 54.113C37.3753 54.0899 37.3967 54.0709 37.4228 54.0709C37.4488 54.0709 37.6473 53.9654 37.8638 53.8368C38.08 53.708 38.2698 53.6028 38.285 53.6028C38.3005 53.6028 38.4103 53.5363 38.5291 53.4555C38.6478 53.3744 38.9313 53.2049 39.1587 53.0785C39.3863 52.9521 39.6109 52.8255 39.6583 52.7967C39.7054 52.768 39.9263 52.6391 40.1493 52.5106C40.3719 52.382 40.5946 52.2534 40.644 52.2247C43.3218 50.6622 47.5035 48.2456 47.5292 48.2456C47.5485 48.2456 47.6967 48.3361 47.8586 48.4466C49.2729 49.4121 51.7134 49.3884 52.9556 48.3973C54.1658 47.4318 54.6183 46.7493 54.8999 45.4655C55.0636 44.7193 54.9901 43.5013 54.7492 42.9665C54.7234 42.9094 54.6722 42.7805 54.635 42.6806C54.297 41.7678 53.3631 40.7727 52.4348 40.3361L52.1073 40.1819V31.2357C52.1073 22.7633 52.1123 22.2874 52.1979 22.2546C53.1224 21.8995 54.1099 20.9361 54.5441 19.9653C54.6307 19.7721 54.7228 19.5671 54.7488 19.51C54.7749 19.4526 54.8425 19.1851 54.8993 18.9155C55.4231 16.4209 53.8525 13.9515 51.3837 13.3886C50.7929 13.2538 49.0282 13.3402 48.9246 13.5087C48.9091 13.534 48.8539 13.5546 48.8021 13.5546C48.7059 13.5546 47.8127 14.0005 47.7653 14.072C47.6471 14.2514 47.4746 14.2377 47.145 14.023C47.0268 13.9459 45.9158 13.3028 45.5942 13.1249C45.4379 13.0388 45.2751 12.942 45.2326 12.9102C45.1898 12.8787 45.0995 12.8213 45.0316 12.7826C44.745 12.6203 44.5192 12.4905 44.2761 12.3482C44.134 12.2649 43.9771 12.1837 43.9272 12.1675C43.8775 12.1516 43.8369 12.1219 43.8369 12.102C43.8369 12.082 43.7553 12.0336 43.6558 11.9943C43.5562 11.955 43.475 11.9066 43.475 11.8866C43.475 11.8667 43.4343 11.837 43.3844 11.8208C43.3348 11.8042 43.2011 11.7322 43.0873 11.6607C42.9735 11.5889 42.7992 11.4897 42.6996 11.4401C42.6001 11.3905 42.507 11.3368 42.4927 11.3209C42.4785 11.305 42.3972 11.2572 42.3119 11.2141C42.2266 11.1714 42.1454 11.1246 42.1311 11.1102C42.1168 11.0959 42.0353 11.0494 41.95 11.0072C41.8647 10.9648 41.7251 10.8818 41.6398 10.8225C41.5545 10.7632 41.415 10.6811 41.3297 10.6396C41.2444 10.5981 41.1631 10.5526 41.1489 10.5382C41.1346 10.5239 41.0533 10.477 40.9681 10.434C40.8828 10.3912 40.8012 10.3435 40.7869 10.3279C40.7429 10.2795 39.8971 9.80986 39.854 9.80986C39.8317 9.80986 39.8056 9.79145 39.7963 9.76898C39.779 9.72779 39.5355 9.57956 39.0554 9.31774C38.9133 9.24003 37.2965 8.30291 35.4629 7.23504L32.1289 5.2937L32.1406 5.01627C32.1869 3.92562 31.9009 2.89581 31.2983 1.98116C31.1271 1.72121 30.4147 0.968203 30.3402 0.968203C30.3188 0.968203 30.2704 0.938869 30.2329 0.902982C30.1141 0.790015 29.7606 0.575628 29.4926 0.453923C29.3502 0.389326 29.1955 0.315993 29.1483 0.290716C28.8134 0.111905 27.5815 -0.047871 27.0114 0.0132932ZM28.5206 1.07899C30.3461 1.64507 31.4459 3.38981 31.1556 5.25906C31.1156 5.51651 31.0905 5.74088 31.0998 5.75804C31.1221 5.7983 31.8658 6.24049 32.4905 6.58501C32.6611 6.67894 32.8357 6.78192 32.8782 6.81375C32.921 6.84527 33.0112 6.90269 33.0791 6.94138C33.1471 6.97977 33.2866 7.05966 33.3893 7.11895C33.492 7.17793 33.6343 7.25907 33.7053 7.2987C33.7764 7.33833 33.9277 7.42851 34.0412 7.49904C34.155 7.56957 34.2946 7.65008 34.3514 7.67754C34.4084 7.705 34.548 7.78551 34.6615 7.85604C34.7753 7.92656 34.9267 8.01675 34.9977 8.05638C35.0687 8.09601 35.2108 8.17715 35.3134 8.23613C35.4164 8.29542 35.556 8.37531 35.6236 8.41369C35.6915 8.45239 35.7821 8.50981 35.8246 8.54133C35.8674 8.57316 36.0302 8.66927 36.1865 8.75478C36.4985 8.92579 36.6424 9.00817 37.2202 9.34895C37.4336 9.47471 37.6777 9.61201 37.763 9.65446C37.8483 9.69721 37.9299 9.74495 37.9441 9.76118C37.9978 9.82203 39.1695 10.4861 39.2232 10.4861C39.2542 10.4861 39.2871 10.5054 39.2967 10.5288C39.3168 10.5791 47.5866 15.3752 47.6527 15.3752C47.6775 15.3752 47.742 15.3252 47.7963 15.2641C49.1451 13.744 51.9082 13.9316 53.2704 15.6357C54.836 17.5943 53.9418 20.7398 51.6163 21.456C51.5025 21.491 51.3571 21.5453 51.2932 21.5768L51.1766 21.6339L51.1899 31.2576L51.2029 40.8813L51.5906 41.0139C53.8299 41.7797 54.7628 44.4566 53.5039 46.5034C53.151 47.077 52.4137 47.7313 51.9395 47.8917C51.8471 47.923 51.7482 47.9666 51.7196 47.9888C51.5804 48.0968 50.7926 48.2456 50.3612 48.2456C49.4354 48.2456 48.4404 47.8549 47.9011 47.2795C47.7358 47.1035 47.4036 47.0482 47.4036 47.1968C47.4036 47.2161 47.3279 47.2651 47.2355 47.3057C47.1431 47.346 47.0559 47.3946 47.0417 47.4134C47.0274 47.4321 46.8878 47.5157 46.7315 47.5993C46.5752 47.6827 46.4356 47.7626 46.4214 47.7772C46.4071 47.7919 46.3259 47.8387 46.2406 47.8814C46.1553 47.9245 46.0737 47.9729 46.0594 47.9891C46.0452 48.0056 45.8476 48.1227 45.6203 48.2491C45.3926 48.3758 45.1681 48.5028 45.1209 48.5315C44.7726 48.7443 31.4003 56.5043 31.2071 56.6061C31.097 56.6641 31.0675 56.7106 31.0874 56.7943C31.9949 60.5693 27.5601 63.1313 24.8491 60.3979C23.9847 59.5267 23.5694 58.0353 23.8836 56.9328C23.9447 56.7187 23.9165 56.6585 23.7152 56.5721C23.6234 56.5324 23.513 56.4716 23.4705 56.4369C23.4277 56.4023 23.2651 56.3043 23.1085 56.2191C22.6892 55.9913 22.5772 55.9239 22.5028 55.8556C22.4662 55.8216 22.3837 55.7779 22.3201 55.7582C22.2562 55.7385 22.1719 55.6961 22.1328 55.6637C22.0559 55.6006 21.5631 55.311 21.3512 55.2043C21.2802 55.1684 21.2104 55.1253 21.1962 55.1082C21.1819 55.0913 20.984 54.974 20.7567 54.8473C20.5293 54.7209 20.3045 54.5939 20.2573 54.5652C20.2099 54.5365 19.9891 54.4076 19.7661 54.279C19.5434 54.1505 19.3207 54.0216 19.2711 53.9929C16.2828 52.2578 7.83066 47.3469 7.66008 47.2467C7.39366 47.0901 7.26526 47.0682 7.20323 47.1684C6.86703 47.7129 5.59077 48.2456 4.62249 48.2456C0.839312 48.2456 -0.464548 43.1793 2.82581 41.2635C3.14929 41.0754 3.17783 41.0638 3.55652 40.9652L3.77641 40.9081L3.76338 31.2492L3.75036 21.5905L3.4306 21.4804C2.36245 21.1121 1.32407 20.0446 1.10914 19.0937C1.08991 19.0079 1.04804 18.9049 1.01641 18.8647C0.892968 18.7083 0.948485 17.2138 1.09301 16.8038C1.64663 15.231 3.02957 14.2209 4.62901 14.2209C5.11408 14.2209 5.86246 14.3653 6.02467 14.4905C6.0532 14.5123 6.13012 14.5467 6.19556 14.5669C6.35994 14.6178 6.91634 14.9938 7.13593 15.2023C7.23548 15.2969 7.33473 15.3742 7.35644 15.3746C7.37815 15.3749 8.3728 14.8075 9.56625 14.1138C10.76 13.4201 11.7773 12.8291 11.8269 12.8004C12.5598 12.3775 12.7409 12.2723 12.8138 12.2283C12.8609 12.1996 13.074 12.0754 13.2874 11.9528C13.5005 11.8298 13.7563 11.6804 13.8559 11.6201C13.9555 11.5602 14.1648 11.441 14.3211 11.3555C14.4774 11.2697 14.6403 11.1723 14.6831 11.1389C14.7255 11.1055 14.8186 11.0503 14.8896 11.016C14.9609 10.9813 15.0887 10.9099 15.174 10.8571C15.5586 10.6181 15.7028 10.5357 15.87 10.4596C15.9686 10.4146 16.0617 10.3613 16.0769 10.341C16.1066 10.301 16.2084 10.2405 16.6472 10.0021C16.8035 9.9169 16.9664 9.82047 17.0092 9.78739C17.0517 9.75431 17.1565 9.69346 17.2418 9.65165C17.3271 9.61014 17.4083 9.56427 17.4226 9.54991C17.4496 9.52276 17.5377 9.47127 17.9356 9.25033C18.0655 9.17824 18.2302 9.08057 18.3012 9.03345C18.3726 8.98664 18.5004 8.91393 18.5856 8.87211C18.6709 8.8303 18.7522 8.78411 18.7665 8.76976C18.7807 8.7554 18.8505 8.71047 18.9215 8.66959C19.7319 8.20399 20.0269 8.04172 20.061 8.04172C20.0837 8.04172 20.1097 8.02331 20.119 8.00053C20.1364 7.95933 20.3848 7.80829 20.86 7.54959C22.1796 6.83185 23.9087 5.76241 23.8966 5.6716C23.7682 4.70359 23.7651 4.63868 23.8237 4.19461C24.123 1.93247 26.4004 0.421471 28.5206 1.07899ZM21.2476 9.26157C19.357 10.3588 17.7858 11.2766 17.7557 11.3006C17.7256 11.3246 17.6093 11.393 17.497 11.4526C17.1307 11.647 16.7769 11.8536 16.7505 11.8882C16.7362 11.9069 16.6491 11.9531 16.5567 11.9906C16.4642 12.0283 16.3889 12.0739 16.3889 12.092C16.3889 12.1101 16.3132 12.1581 16.2208 12.1984C16.1283 12.2386 15.8458 12.3965 15.5927 12.5491C15.3396 12.7017 15.1148 12.8266 15.0931 12.8266C15.0714 12.8266 15.0456 12.844 15.0363 12.8656C15.0267 12.8871 14.8676 12.9835 14.6831 13.0803C14.4982 13.1767 14.3121 13.2819 14.2693 13.3143C14.2268 13.3465 14.1363 13.4042 14.0683 13.4426C14.0007 13.481 13.8612 13.5608 13.7582 13.6201C13.6555 13.6794 13.5135 13.7603 13.4425 13.7999C13.3714 13.8398 13.2434 13.9147 13.1581 13.9662C13.0169 14.0517 12.8476 14.1497 12.5061 14.3429C12.4382 14.3816 12.3476 14.439 12.3052 14.4705C12.2624 14.5023 12.0995 14.5978 11.9432 14.683C11.5416 14.9015 11.4116 14.9767 11.3229 15.0428C11.2804 15.0744 11.1176 15.1705 10.9613 15.2563C10.8047 15.3418 10.6037 15.4563 10.5141 15.5106C10.3506 15.6095 9.77839 15.9409 9.48809 16.1048C9.27347 16.2259 8.42738 16.7242 8.28875 16.811C8.17709 16.8812 8.17647 16.8871 8.25773 17.1558C8.37 17.5284 8.36814 18.4353 8.25432 18.7704C8.10762 19.2026 8.01365 19.1209 9.94028 20.2393C11.7519 21.2909 12.8768 21.9422 13.2846 22.1756C13.4111 22.248 13.632 22.3775 13.7756 22.463C13.9192 22.5489 14.1065 22.6584 14.1918 22.7068C14.4976 22.8796 15.058 23.2045 15.2178 23.3012C15.3074 23.3555 15.5087 23.4698 15.665 23.5556C15.8213 23.6411 15.9841 23.7372 16.0269 23.769C16.0694 23.8009 16.16 23.8583 16.2279 23.8967C16.2958 23.935 16.4354 24.0149 16.538 24.0742C16.6407 24.1335 16.7905 24.219 16.8711 24.2643C16.9518 24.3098 17.0669 24.3747 17.1267 24.4088C17.2467 24.4768 17.275 24.4659 17.5318 24.2552C18.0472 23.833 19.3291 23.2304 19.7164 23.2282C20.0334 23.2267 20.4208 22.8307 20.4208 22.508C20.4208 22.4802 20.4382 22.4493 20.4596 22.44C20.4806 22.4303 20.5541 22.317 20.6227 22.1884C20.895 21.677 21.4567 21.0001 22.0264 20.4971C22.3977 20.1694 23.1647 19.7213 23.8581 19.4273C24.5247 19.1446 25.6793 18.9402 26.3524 18.9857L26.8309 19.0179L26.8176 13.676L26.8046 8.33412L26.5201 8.26359C26.0298 8.14158 25.2681 7.71655 24.9666 7.397C24.7796 7.19884 24.9399 7.11864 21.2476 9.26157ZM29.831 7.54679C29.4482 7.86509 28.957 8.12722 28.5104 8.25173L28.2002 8.33817L28.1872 13.8592C28.1754 18.767 28.1825 19.3799 28.2523 19.3799C28.2954 19.3799 28.3711 19.4023 28.4207 19.4301C28.47 19.4576 28.6267 19.5309 28.7687 19.5927C29.1508 19.759 29.8322 20.1616 30.0065 20.3235C30.299 20.5957 30.3526 20.6053 30.7695 20.459C31.6599 20.1463 31.717 20.1366 32.6456 20.1366C33.5624 20.1366 33.6532 20.1516 34.455 20.4356C34.8606 20.5791 35.6236 21.0163 35.8801 21.2522C36.6341 21.945 36.9625 22.3529 37.2872 22.9989C37.4541 23.3312 37.7363 24.1526 37.7369 24.308C37.7372 24.4418 37.8641 24.4649 37.9916 24.3541C38.0365 24.3151 38.4571 24.0624 38.926 23.7918C39.3953 23.5216 41.3672 22.3803 43.3081 21.2554L46.837 19.2104L46.8035 19.0219C46.7849 18.9186 46.7514 18.7982 46.7294 18.7548C46.707 18.7114 46.6738 18.4889 46.6549 18.2608C46.6248 17.8932 46.6475 17.6283 46.7625 17.0091L46.7923 16.8487L44.7419 15.6567C43.6139 15.0013 42.5709 14.3975 42.4242 14.3148C42.1075 14.1369 41.0208 13.5025 40.6672 13.289C40.5304 13.2063 40.3968 13.1386 40.3701 13.1386C40.3434 13.1386 40.3217 13.1208 40.3217 13.0993C40.3217 13.0778 40.2463 13.0272 40.1539 12.9873C40.0615 12.947 39.9278 12.8743 39.8565 12.8259C39.7855 12.7773 39.6208 12.6783 39.4908 12.6059C39.0814 12.3788 39.0045 12.3332 38.9778 12.3039C38.9636 12.2879 38.8705 12.234 38.771 12.184C38.6714 12.1338 38.4971 12.0367 38.3833 11.9684C38.2698 11.8997 38.1302 11.8195 38.0731 11.7899C38.0164 11.7602 37.8768 11.6769 37.763 11.6048C37.6495 11.5328 37.4867 11.4379 37.4014 11.3945C37.255 11.3196 37.1433 11.2541 36.7423 11.0066C36.6499 10.9495 36.5162 10.8749 36.4449 10.8406C36.3738 10.8063 36.2808 10.7507 36.2383 10.7173C36.1955 10.6839 36.0327 10.5872 35.8764 10.502C35.4747 10.2836 35.3448 10.2084 35.2561 10.1422C35.2133 10.1107 35.0508 10.0146 34.8941 9.92876C34.7378 9.84325 34.5285 9.72404 34.4289 9.66413C34.3293 9.6039 34.0738 9.45473 33.8604 9.33209C33.6473 9.20977 33.4116 9.07402 33.3372 9.03064C33.2628 8.98726 32.5485 8.5716 31.7499 8.10663C30.0859 7.13798 30.2611 7.18885 29.831 7.54679ZM24.8661 8.52104C24.9657 8.58408 25.0935 8.66397 25.1505 8.6983C25.3227 8.80221 25.8062 9.0297 25.8546 9.0297C25.8803 9.0297 25.8998 10.9873 25.8998 13.5546V18.0795L25.6545 18.0823C24.5085 18.0957 22.2593 18.943 21.6614 19.5868C21.6471 19.6021 21.5525 19.6766 21.4511 19.7525C21.0842 20.0274 20.6038 20.5573 20.0681 21.2781C19.9987 21.3714 19.5595 22.1603 19.5285 22.2474C19.5105 22.2976 19.3864 22.3588 19.2227 22.3981C18.6691 22.5308 17.907 22.8622 17.3674 23.2048L17.1562 23.339L13.4071 21.1642C11.3452 19.9684 9.55632 18.9327 9.43164 18.8628L9.20523 18.7361L9.24276 18.4468C9.28463 18.1257 9.28773 17.9054 9.25455 17.5659L9.23253 17.338L13.0821 15.1049C15.1991 13.8767 17.2222 12.7049 17.5777 12.5008C17.9331 12.297 18.2355 12.1169 18.2498 12.1013C18.2637 12.0854 18.3685 12.0227 18.4824 11.9622C18.8294 11.7765 19.2044 11.5602 19.2317 11.5293C19.2459 11.5134 19.3275 11.465 19.4128 11.4223C19.4981 11.3795 19.5794 11.3327 19.5936 11.3184C19.6079 11.304 19.6891 11.2572 19.7744 11.2148C19.8597 11.172 20.0505 11.0609 20.1984 10.9676C20.3463 10.8743 20.4918 10.7982 20.5216 10.7982C20.5514 10.7982 20.5759 10.7791 20.5759 10.7557C20.5759 10.7326 20.6571 10.6814 20.7567 10.6421C20.8562 10.6028 20.9375 10.5572 20.9375 10.541C20.9375 10.5248 21.0132 10.4786 21.1056 10.4384C21.198 10.3978 21.3962 10.287 21.546 10.1915C21.6958 10.096 21.8413 10.018 21.8692 10.018C21.8968 10.018 21.9197 10.0002 21.9197 9.97868C21.9197 9.95715 21.9954 9.9066 22.0878 9.86666C22.1803 9.8264 22.3139 9.75369 22.3849 9.70532C22.456 9.65664 22.6188 9.55834 22.7469 9.48656C22.8747 9.4151 23.0636 9.30869 23.1662 9.25002C23.2689 9.19167 23.4084 9.11209 23.4764 9.07371C23.5443 9.03532 23.6345 8.9779 23.6773 8.94607C23.7443 8.89614 24.0436 8.72607 24.5042 8.47642C24.6683 8.38748 24.6531 8.38561 24.8661 8.52104ZM30.6743 8.57971C30.8489 8.67551 31.0728 8.80315 31.1724 8.86338C31.2719 8.9236 31.5278 9.07339 31.7412 9.19603C31.9542 9.31899 32.1692 9.44287 32.2185 9.47158C32.2678 9.50029 32.7563 9.7849 33.304 10.1041C33.8517 10.4231 34.3749 10.7273 34.4667 10.7801C34.5585 10.8331 37.13 12.3241 40.1815 14.0942L45.7294 17.3118L45.7263 17.8907C45.7248 18.2093 45.7415 18.5342 45.7632 18.6128C45.7939 18.7236 45.7853 18.7557 45.7245 18.7557C45.6814 18.7557 45.646 18.7792 45.646 18.8079C45.646 18.8363 45.6224 18.8597 45.5933 18.8597C45.5644 18.8597 45.4537 18.9143 45.3476 18.9811C45.2416 19.0478 45.027 19.1727 44.8706 19.2585C44.4392 19.4953 44.3304 19.559 44.3021 19.5921C44.2879 19.6086 44.125 19.7047 43.9402 19.8052C43.7554 19.9057 43.5227 20.038 43.4232 20.0989C43.3236 20.1597 43.0681 20.3095 42.855 20.4318C42.3637 20.7139 42.5988 20.5776 40.344 21.8895C38.1609 23.1599 38.3408 23.0772 38.2518 22.8516C37.1545 20.0673 33.7723 18.5279 30.7853 19.4535L30.5273 19.5334L30.2366 19.3281C30.0766 19.2154 29.7568 19.0269 29.5255 18.909L29.1049 18.6952V13.8751V9.05529L29.2727 8.98196C29.3651 8.9417 29.4991 8.88366 29.5701 8.85308C29.6412 8.8225 29.8365 8.70953 30.0047 8.60155C30.3703 8.36688 30.2909 8.36938 30.6743 8.57971ZM7.15237 20.6681C7.00505 20.8035 6.85183 20.9408 6.81213 20.9729C6.64714 21.1074 5.95551 21.4513 5.72755 21.5122L5.48191 21.5777V31.2151V40.8526L5.77903 40.9627C6.39684 41.1915 6.87323 41.4879 7.23673 41.8693C7.46717 42.1114 7.42437 42.1276 8.88423 41.2501C8.93199 41.2214 9.15716 41.0944 9.38449 40.9677C9.61214 40.841 9.80971 40.7243 9.82398 40.7078C9.83824 40.6912 9.9195 40.6429 10.0048 40.6001C10.0901 40.5573 10.1717 40.5102 10.1859 40.4959C10.1999 40.4812 10.3394 40.401 10.4961 40.3177C10.6524 40.2344 10.7919 40.1526 10.8062 40.1361C10.8202 40.1195 10.9017 40.0708 10.987 40.0281C11.0723 39.985 11.1536 39.9385 11.1678 39.9242C11.1821 39.9098 11.2869 39.849 11.4005 39.7887C11.7664 39.5959 12.1206 39.3915 12.2614 39.2926C12.3368 39.2392 12.4243 39.1958 12.4553 39.1958C12.4863 39.1958 12.512 39.178 12.512 39.1565C12.512 39.135 12.5874 39.0844 12.6798 39.0445C12.7722 39.0042 12.9062 38.9315 12.9772 38.8831C13.0483 38.8344 13.2111 38.7361 13.3389 38.6644C13.467 38.5929 13.6555 38.4865 13.7582 38.4278C13.8612 38.3695 14.0007 38.2899 14.0683 38.2515C14.1363 38.2131 14.2268 38.1557 14.2693 38.1239C14.3121 38.0921 14.4749 37.9959 14.6313 37.9098C15.125 37.6383 15.2512 37.5584 15.2382 37.5253C15.2314 37.5076 15.0425 37.3453 14.8186 37.1646C14.4356 36.8557 13.8243 36.1944 13.6856 35.9391C13.3048 35.2373 13.1633 34.8884 12.9931 34.2306C12.4568 32.1607 13.4077 29.7656 15.2351 28.5857L15.5974 28.3517L15.6247 27.7275C15.6551 27.0357 15.7394 26.7214 16.0846 26.0181C16.3591 25.4588 16.4121 25.5556 15.5874 25.1112C15.4454 25.0344 15.3173 24.9589 15.3034 24.943C15.2516 24.8853 7.51462 20.42 7.4681 20.4212C7.44174 20.4215 7.29969 20.5329 7.15237 20.6681ZM43.5851 22.6812C39.0486 25.3115 39.5885 24.9552 39.8649 25.1362C40.2175 25.3671 40.2163 25.3662 40.6322 25.7771C41.8504 26.9811 42.146 29.1231 41.2949 30.5773C41.1169 30.8812 41.1036 30.787 41.3967 31.2991C41.6339 31.7144 41.8104 32.1532 42.0098 32.8244C42.1438 33.2754 42.1454 34.9028 42.0126 35.4252C41.7676 36.3876 41.3092 37.2854 40.7528 37.8926C40.6046 38.0546 40.6343 38.0917 41.142 38.3763C41.3591 38.4977 41.5756 38.6207 41.6234 38.6494C41.6954 38.6928 42.6441 39.2426 42.9697 39.4299C43.0194 39.4586 44.0571 40.0612 45.2754 40.7692C47.5454 42.0883 47.5922 42.1124 47.6434 41.9779C47.728 41.7563 48.6755 41.1537 49.2775 40.939L49.5232 40.8513L49.5101 31.2208L49.4971 21.5902L49.2127 21.4994C48.7034 21.3368 48.1191 20.9761 47.768 20.6072C47.67 20.5042 47.5655 20.4206 47.5354 20.4212C47.5057 20.4215 45.7279 21.4385 43.5851 22.6812ZM7.98263 21.7749C8.18516 21.8907 8.43203 22.0346 8.53159 22.0945C8.63115 22.1544 8.8405 22.2736 8.99681 22.3594C9.15312 22.4449 9.31595 22.5411 9.35876 22.5729C9.40125 22.6044 9.49181 22.6618 9.55973 22.7005C9.62765 22.7389 9.76722 22.8188 9.86988 22.8781C9.97254 22.9371 10.1149 23.0182 10.1859 23.0578C10.2569 23.0978 10.3847 23.1724 10.47 23.2242C10.6496 23.3328 10.9814 23.5256 11.1678 23.6298C11.2392 23.6695 11.3902 23.7597 11.504 23.8299C11.6176 23.9004 11.7981 23.9984 11.9044 24.0477C12.0111 24.097 12.0983 24.1554 12.0983 24.1772C12.0983 24.199 12.1256 24.2168 12.1591 24.2168C12.1923 24.2168 12.2562 24.2487 12.3011 24.2877C12.3768 24.3532 12.7127 24.5461 13.2099 24.8094C13.3234 24.8697 13.4282 24.9315 13.4425 24.9464C13.4884 24.9957 14.0839 25.339 14.2566 25.4158C14.349 25.457 14.4244 25.5022 14.4247 25.5169C14.4247 25.5312 14.5736 25.6239 14.7559 25.7228L15.0872 25.9026L14.9929 26.1647C14.818 26.6509 14.7249 27.0469 14.6964 27.4276L14.6679 27.8059L14.3006 28.1011C13.8432 28.4687 13.5929 28.7193 13.2768 29.1259C13.1407 29.301 13.0107 29.4673 12.9875 29.496C11.8725 30.8756 11.5971 33.9226 12.441 35.5494C12.4795 35.624 12.5114 35.7045 12.5117 35.7282C12.5126 35.882 13.3013 37.0526 13.5609 37.2857C13.6875 37.3993 13.9818 37.2061 11.478 38.6531C10.2982 39.3353 9.32526 39.912 9.31564 39.9348C9.30634 39.9572 9.27347 39.976 9.24276 39.976C9.17205 39.976 8.35667 40.4522 8.33341 40.5071C8.3241 40.5296 8.28782 40.548 8.25308 40.548C8.21834 40.548 8.08002 40.6182 7.94572 40.704C7.63434 40.9028 7.60828 40.9009 7.25161 40.6581C7.08847 40.5471 6.83291 40.3945 6.68373 40.3192L6.41235 40.1822V31.2242V22.2661L6.70947 22.1229C6.87292 22.0439 7.13469 21.8873 7.291 21.7749C7.63774 21.5259 7.54749 21.5259 7.98263 21.7749ZM47.799 21.8508C47.9737 21.9681 48.224 22.1089 48.3545 22.1632L48.5924 22.2618V31.2173V40.1732L48.321 40.3152C48.1719 40.3935 47.8968 40.5564 47.71 40.6775L47.3707 40.8978L47.1673 40.7745C47.0556 40.7068 46.8944 40.6157 46.8091 40.5723C46.6611 40.4968 46.4791 40.3898 46.137 40.1773C46.0517 40.1242 45.9239 40.0527 45.8529 40.0184C45.7819 39.9841 45.6885 39.9285 45.646 39.8951C45.6032 39.8618 45.4404 39.765 45.2841 39.6798C44.8824 39.4614 44.7525 39.3862 44.6638 39.32C44.6213 39.2885 44.4585 39.1924 44.3021 39.1066C44.1455 39.0211 43.9362 38.9019 43.8369 38.8419C43.7374 38.7817 43.4815 38.6322 43.2681 38.5093C43.055 38.3866 42.8417 38.2624 42.7939 38.2337C42.7461 38.205 42.5535 38.0924 42.3656 37.9831L42.0241 37.7844L42.1913 37.4888C42.511 36.9249 42.5966 36.7271 42.7703 36.1532C43.2681 34.5099 43.122 32.5926 42.3882 31.1399L42.2307 30.8279L42.3603 30.5177C42.6401 29.8492 42.7148 29.3708 42.6832 28.4556C42.641 27.241 42.3308 26.356 41.6392 25.476C41.3716 25.1355 41.3275 25.0535 41.3982 25.0288C41.446 25.0123 41.5778 24.9396 41.6916 24.8672C41.8055 24.7951 41.9857 24.6955 42.0923 24.6462C42.1987 24.5966 42.2862 24.5386 42.2862 24.5167C42.2862 24.4949 42.3116 24.4768 42.3426 24.4768C42.374 24.4768 42.4611 24.4334 42.5365 24.3804C42.6121 24.3273 42.7784 24.2253 42.9065 24.1535C43.0343 24.082 43.2203 23.9759 43.3199 23.9179C44.0639 23.4841 44.5239 23.2285 44.5605 23.2285C44.5841 23.2285 44.6114 23.2098 44.6207 23.1867C44.6303 23.1633 44.7776 23.0653 44.9482 22.9686C45.1188 22.8722 45.7325 22.5173 46.3125 22.18C46.8922 21.843 47.3921 21.583 47.4238 21.6021C47.4554 21.6214 47.6241 21.7331 47.799 21.8508ZM16.3371 38.5037C15.7565 38.8476 15.2711 39.1253 15.1095 39.2061C15.0453 39.2383 14.9932 39.2841 14.9932 39.3082C14.9932 39.3322 14.9668 39.3518 14.9346 39.3518C14.8859 39.3518 14.5081 39.5634 13.4477 40.1847C13.3736 40.2281 13.1388 40.3639 12.9255 40.4865C12.7124 40.6088 12.4562 40.7583 12.357 40.8182C12.2574 40.8782 12.048 40.9974 11.8917 41.0832C11.7351 41.1687 11.5723 41.2648 11.5298 41.2966C11.4411 41.3625 11.3111 41.438 10.9095 41.6564C10.7532 41.7413 10.5903 41.8368 10.5475 41.8686C10.5051 41.9005 10.4145 41.9579 10.3466 41.9963C10.279 42.0346 10.1394 42.1145 10.0364 42.1738C9.93377 42.2331 9.79172 42.3139 9.7207 42.3536C9.64968 42.3932 9.49832 42.4837 9.38449 42.5542C9.27098 42.6248 9.13141 42.705 9.07435 42.7324C9.01759 42.7602 8.87802 42.841 8.7642 42.9125C8.65069 42.9836 8.47018 43.09 8.3638 43.1484C8.14267 43.2695 8.13894 43.2876 8.25494 43.6724C8.36969 44.0534 8.37186 44.9512 8.25897 45.3207C8.17647 45.59 8.17678 45.5953 8.28875 45.6667C8.43824 45.7625 14.3661 49.2005 14.7345 49.4052C14.8909 49.4923 15.1076 49.6193 15.2162 49.6873C15.3248 49.7557 15.4991 49.8596 15.6039 49.9183C15.7872 50.0209 16.7155 50.5571 16.8956 50.6644C16.9437 50.6931 17.1577 50.817 17.3708 50.94C17.5842 51.0626 17.84 51.2124 17.9396 51.2723C18.0389 51.3322 18.2482 51.4514 18.4048 51.5373C18.5611 51.6228 18.724 51.7189 18.7665 51.7507C18.8093 51.7822 18.8995 51.8396 18.9674 51.8783C19.3089 52.0715 19.4782 52.1695 19.6194 52.255C19.7047 52.3065 19.8327 52.3814 19.9038 52.4213C19.9748 52.461 20.1261 52.548 20.2397 52.6145C20.3535 52.681 20.5048 52.768 20.5759 52.8077C20.6469 52.8473 20.7979 52.9375 20.9117 53.0077C21.0256 53.0782 21.2058 53.1762 21.3125 53.2255C21.4188 53.2748 21.5063 53.3332 21.5063 53.355C21.5063 53.3769 21.5317 53.3946 21.5627 53.3946C21.5941 53.3946 21.6812 53.438 21.7566 53.4914C21.8974 53.5903 22.2516 53.7947 22.6176 53.9876C22.7314 54.0478 22.8359 54.1102 22.8502 54.1268C22.8917 54.1754 23.736 54.6429 23.7819 54.6429C23.8048 54.6429 23.8315 54.6616 23.8408 54.6844C23.8659 54.7446 24.6943 55.2152 24.7734 55.214C24.81 55.2137 24.8971 55.1528 24.9669 55.0788C25.3208 54.7041 26.103 54.2828 26.6882 54.1523L26.8303 54.1208V48.3083V42.4959L26.5158 42.2653C26.1653 42.0087 25.7237 41.5843 25.4064 41.1999C25.1974 40.9462 25.1974 40.9462 24.993 41.0017C23.8575 41.311 23.767 41.3281 23.276 41.3281C22.126 41.3281 20.8386 40.8591 20.0663 40.1592C19.5369 39.6795 19.2751 39.3568 18.9383 38.7689L18.7057 38.3635L18.1288 38.3632C17.8115 38.3632 17.4704 38.342 17.3708 38.3161C16.886 38.1904 16.8572 38.1957 16.3371 38.5037ZM39.1847 39.1606C38.3579 39.6511 37.5012 39.8708 36.412 39.8714L35.7843 39.8721L35.6692 40.1189C35.1559 41.2199 34.1535 42.2434 33.0708 42.7727C32.3742 43.1131 32.2495 43.1615 31.6894 43.3079C31.2111 43.433 30.1731 43.5154 29.7562 43.4611C29.0789 43.3734 28.6192 43.2951 28.5361 43.2536C28.4936 43.2323 28.3947 43.1996 28.3162 43.1809L28.1738 43.1465L28.1872 48.6435L28.2002 54.1405L28.4846 54.2066C28.961 54.3174 29.7237 54.7459 30.0378 55.0788C30.1889 55.2393 30.259 55.2461 30.4407 55.1194C30.5164 55.067 30.6129 55.009 30.6557 54.9905C30.6981 54.9721 30.8262 54.8994 30.9397 54.8286C31.0536 54.758 31.2049 54.6679 31.2759 54.6282C31.4623 54.5237 31.7942 54.3308 31.9738 54.2222C32.0591 54.1707 32.1868 54.0958 32.2579 54.0559C32.3292 54.0163 32.4744 53.9333 32.581 53.8712C32.6877 53.8094 32.862 53.7095 32.9687 53.6493C33.0754 53.5888 33.1858 53.522 33.2144 53.5001C33.2426 53.4783 33.3707 53.4021 33.4985 53.331C33.6266 53.2595 33.8126 53.1537 33.9122 53.0957C34.6562 52.6619 35.1162 52.4063 35.1528 52.4063C35.1764 52.4063 35.2037 52.3873 35.213 52.3636C35.2226 52.3402 35.4164 52.2154 35.6438 52.0862C36.1384 51.8056 46.4983 45.7984 46.6701 45.6926C46.7669 45.6334 46.7839 45.589 46.7591 45.463C46.6053 44.6825 46.6047 44.1002 46.7576 43.5956C46.8001 43.4552 46.8348 43.3228 46.8348 43.3019C46.8348 43.281 46.52 43.0797 46.1351 42.8551C45.7502 42.6304 45.3957 42.4229 45.347 42.3941C45.2983 42.3654 45.084 42.2415 44.8706 42.1186C44.6576 41.996 44.4014 41.8462 44.3021 41.7859C44.2026 41.7257 43.97 41.5943 43.7851 41.4938C43.6003 41.3937 43.3518 41.2448 43.2331 41.1637C43.1143 41.0826 43.0045 41.0161 42.989 41.0161C42.9738 41.0161 42.784 40.9109 42.5675 40.782C42.3513 40.6535 42.1528 40.548 42.1268 40.548C42.1007 40.548 42.0793 40.5289 42.0793 40.5059C42.0793 40.4825 41.9977 40.4313 41.8985 40.392C41.7989 40.3526 41.7174 40.3015 41.7174 40.2784C41.7174 40.255 41.6932 40.2359 41.6634 40.2359C41.6336 40.2359 41.4882 40.1585 41.3402 40.0637C41.1923 39.9688 40.9957 39.8577 40.9032 39.8168C40.8108 39.7759 40.7354 39.7291 40.7354 39.7129C40.7354 39.6967 40.6539 39.6511 40.5543 39.6118C40.4548 39.5725 40.3735 39.5241 40.3735 39.5038C40.3735 39.4835 40.2864 39.4296 40.1797 39.3834C39.9877 39.3 39.9089 39.2554 39.6422 39.0788C39.4747 38.9677 39.524 38.959 39.1847 39.1606ZM17.7172 39.2763L18.1409 39.31L18.3878 39.682C18.6058 40.0103 19.3871 40.8541 19.6712 41.0685C20.0365 41.3441 20.9549 41.8484 21.0916 41.8484C21.1214 41.8484 21.1862 41.8708 21.2355 41.8986C21.8574 42.2459 23.7474 42.3505 24.6152 42.0858L24.8553 42.0125L25.0817 42.2556C25.2061 42.3891 25.4411 42.6126 25.604 42.7518L25.8998 43.0052V48.1951V53.385L25.5252 53.5688C25.3189 53.6702 25.0407 53.8262 24.9064 53.9158L24.6624 54.0787L24.2601 53.8493C24.039 53.7233 21.4855 52.2435 18.5856 50.5605C15.6858 48.8775 13.0979 47.3759 12.8346 47.2236C12.2735 46.8985 11.4256 46.406 11.1678 46.2559C11.0683 46.1979 10.8822 46.0921 10.7544 46.0209C10.6263 45.9495 10.4985 45.8733 10.47 45.8518C10.4418 45.8299 10.3311 45.7629 10.2247 45.7026C10.118 45.6424 9.94339 45.5425 9.837 45.4811C9.73031 45.4196 9.55694 45.3222 9.4518 45.2648L9.26044 45.1603L9.27067 44.6875C9.27657 44.4275 9.26323 44.1096 9.24121 43.9807L9.2012 43.7463L11.8396 42.2122C13.2908 41.3684 14.5184 40.6547 14.5677 40.626C14.6167 40.5973 14.8316 40.4731 15.0447 40.3504C15.2581 40.2275 15.5139 40.0777 15.6135 40.0175C15.7127 39.9573 15.9454 39.8259 16.1302 39.7251C16.3151 39.6246 16.4779 39.5282 16.4921 39.511C16.5064 39.4938 16.5762 39.4501 16.6472 39.4136C16.7182 39.3774 16.8345 39.3135 16.9056 39.272C16.9769 39.2301 17.0932 39.2064 17.1642 39.2192C17.2353 39.232 17.484 39.2576 17.7172 39.2763ZM42.6646 41.9257C45.1042 43.3403 45.7949 43.7628 45.7673 43.824C45.748 43.8674 45.7279 44.176 45.7226 44.5096C45.7124 45.1759 45.7108 45.1799 45.3616 45.364C44.9956 45.5572 44.6418 45.7616 44.5009 45.8605C44.4253 45.9136 44.3381 45.9573 44.3071 45.9573C44.2758 45.9573 44.2503 45.9751 44.2503 45.9969C44.2503 46.0187 44.1632 46.0771 44.0565 46.1264C43.9498 46.1757 43.7696 46.2737 43.6558 46.3439C43.5423 46.4144 43.3909 46.5043 43.3199 46.5439C43.2489 46.5839 43.0975 46.6706 42.984 46.7374C42.8702 46.8039 42.7191 46.891 42.6478 46.9306C42.5768 46.9705 42.449 47.0451 42.3637 47.0969C42.2223 47.1824 42.053 47.2801 41.7118 47.4736C41.6439 47.512 41.5533 47.5694 41.5108 47.6012C41.468 47.633 41.3052 47.7292 41.1489 47.8147C40.9926 47.9005 40.7832 48.0197 40.6837 48.0796C40.5332 48.1701 40.2048 48.3611 39.6366 48.6875C39.5867 48.7162 37.4755 49.9414 34.9453 51.4099L30.3452 54.0799L30.0223 53.8758C29.8446 53.7638 29.5655 53.6109 29.402 53.5363L29.1049 53.4003V48.876V44.3517L29.8415 44.3814C30.8448 44.4222 31.9973 44.2737 32.5423 44.0337C32.599 44.0084 32.8667 43.8924 33.1368 43.7753C33.6349 43.5594 34.2568 43.198 34.6178 42.9147C34.8718 42.7153 35.8246 41.7497 35.8246 41.6917C35.8246 41.6674 35.8547 41.6168 35.8909 41.579C35.9623 41.5051 36.242 41.0435 36.2982 40.9072C36.3255 40.8407 36.4498 40.8179 36.9185 40.7933C37.7078 40.7521 38.6699 40.5046 39.2104 40.2044C39.4837 40.0527 39.1345 39.8786 42.6646 41.9257Z" fill="#FCFCFC"/>
<path fill-rule="evenodd" clip-rule="evenodd" d="M27.0116 2.35303C26.4211 2.5075 25.9429 2.8258 25.5623 3.31761C25.0627 3.96358 25.0583 5.34633 25.5539 6.00134C26.409 7.13195 27.885 7.34103 28.9953 6.4891C30.253 5.52389 30.0247 3.29733 28.5968 2.60236C28.4358 2.52404 28.2597 2.43791 28.2057 2.41107C28.0953 2.35584 27.1714 2.3109 27.0116 2.35303ZM4.00892 15.6865C1.42042 16.4482 1.91139 20.2423 4.60347 20.2816C6.20631 20.305 7.3275 18.8215 6.87189 17.2793C6.81203 17.0758 6.74783 16.8979 6.72984 16.8836C6.71154 16.8692 6.66192 16.7893 6.61912 16.7063C6.20383 15.8943 4.95735 15.4072 4.00892 15.6865ZM49.7079 15.6949C48.7185 15.9724 48.0232 16.9067 48.0244 17.9577C48.0269 20.0757 50.6052 21.0952 52.0619 19.5545C52.5321 19.0571 52.6503 18.7291 52.6503 17.9237C52.6503 17.0555 52.4927 16.7172 51.7974 16.0919C51.3179 15.6606 50.4312 15.4921 49.7079 15.6949ZM25.4348 20.1406C23.6301 20.4773 22.1113 21.5121 21.5127 22.8128C21.4665 22.9129 21.4172 23.0065 21.4029 23.0209C21.3623 23.0618 21.1446 23.5389 21.1446 23.5867C21.1446 23.6107 21.3291 23.6453 21.5546 23.6644C22.223 23.7205 22.9837 23.9396 23.5243 24.2317C24.0199 24.4995 24.0125 24.4945 24.4377 24.8433L24.7587 25.1067L24.9805 25.0428C25.1027 25.0078 25.2255 24.9626 25.254 24.9423C25.2826 24.9223 25.4395 24.8671 25.6029 24.8199C25.9404 24.7226 25.9354 24.7351 25.798 24.325C25.5238 23.5062 25.5611 23.0209 25.8976 23.0209C26.1125 23.0209 26.19 23.1267 26.2279 23.4718C26.2601 23.7664 26.4199 24.3462 26.5166 24.5204C26.556 24.5909 26.6646 24.6084 27.1239 24.6171C27.9542 24.633 28.5131 24.7716 29.2859 25.1538C29.9425 25.4784 29.9531 25.4862 30.6183 26.1565C31.1183 26.6605 31.2762 26.7672 31.2762 26.6021C31.2762 26.5269 31.6037 25.8591 31.6508 25.8379C31.6722 25.8285 31.6905 25.7933 31.6918 25.7599C31.7029 25.4397 32.5022 24.7001 32.7165 24.8115C32.9562 24.9363 32.9302 25.0936 32.6017 25.5071C32.2987 25.8884 32.0205 26.3497 31.8738 26.7135C31.702 27.1398 31.5891 27.5645 31.6325 27.6207C31.7246 27.7393 31.9014 28.4261 31.9569 28.8799L32.0152 29.3573L32.3564 29.4725C34.0287 30.0367 35.3561 31.577 35.6697 33.3174C35.7683 33.8651 35.7255 33.8388 36.5204 33.8388C36.9013 33.8388 37.3293 33.812 37.4717 33.7789C37.7781 33.7078 37.9958 33.8048 37.9958 34.0124C37.9958 34.3385 37.5988 34.4586 36.5099 34.4611L35.7733 34.463V34.658C35.773 34.9017 35.6495 35.5193 35.5053 35.9958C35.4089 36.3144 35.403 36.3903 35.4569 36.6199C35.6043 37.2469 35.6269 37.48 35.5978 38.0664L35.567 38.6786L35.6995 38.7295C35.7721 38.7573 36.0974 38.78 36.4218 38.78C38.7408 38.78 40.678 37.1149 40.9909 34.8527C41.084 34.1781 40.9977 32.9217 40.8442 32.7238C40.8206 32.6936 40.7862 32.6037 40.7673 32.5241C40.6225 31.9153 39.6501 30.6755 39.0537 30.3397C38.7644 30.1768 38.9027 29.7377 39.2457 29.7309C39.2649 29.7306 39.3115 29.7593 39.349 29.7951C40.0608 30.4723 40.124 30.4867 40.3582 30.0217C41.0421 28.6636 40.6479 27.0836 39.3815 26.1078C38.8534 25.7012 37.6844 25.4949 37.061 25.6987C36.4897 25.8853 35.9988 26.1303 35.7823 26.3363C35.6281 26.4835 35.3081 26.3175 35.3081 26.0903C35.3081 25.885 36.2888 25.2025 36.5809 25.2047C36.6132 25.205 36.6637 25.1757 36.6935 25.1395C36.7475 25.074 36.7397 25.0059 36.5936 24.2692C36.5375 23.9858 36.2019 23.1769 36.1405 23.1769C36.1228 23.1769 36.0791 23.1098 36.0431 23.0278C35.9662 22.8533 35.4876 22.3419 35.1493 22.0729C33.7304 20.9444 31.6158 20.9226 30.2458 22.0226C29.7518 22.4192 29.205 23.0287 29.1169 23.2808C29.0087 23.5907 28.6635 23.6906 28.5109 23.4559C28.424 23.3227 28.5676 22.8128 28.692 22.8128C28.7109 22.8128 28.7528 22.755 28.7847 22.6845C28.8598 22.5188 29.0499 22.2979 29.4646 21.8944L29.798 21.5701L29.6491 21.4309C29.1448 20.961 28.2221 20.4701 27.3993 20.2345C27.1202 20.1543 25.7189 20.0875 25.4348 20.1406ZM20.5243 24.2211C20.2827 24.2439 19.9918 24.2897 19.8782 24.3228C19.4487 24.4473 18.7667 24.7082 18.7667 24.7479C18.7667 24.7706 18.7431 24.789 18.7139 24.789C18.4401 24.789 17.1644 26.0242 17.1644 26.2891C17.1644 26.3222 17.1427 26.3494 17.1167 26.3494C17.0903 26.3494 17.041 26.4374 17.0066 26.5444C16.9722 26.6517 16.9269 26.7628 16.9058 26.7915C16.8192 26.9095 16.7368 27.4347 16.7312 27.9037L16.725 28.404L16.9098 28.3877C17.0115 28.379 17.2432 28.3409 17.425 28.3032C17.8961 28.2055 18.1259 28.3974 17.919 28.7154C17.8306 28.8512 17.822 28.854 17.2293 28.9504C17.023 28.9841 16.8431 29.03 16.8292 29.0528C16.8152 29.0755 16.7216 29.1095 16.6214 29.1286C16.4505 29.161 15.9288 29.396 15.8721 29.4665C15.8578 29.484 15.7765 29.543 15.6912 29.5976C14.1104 30.6078 13.4945 32.9869 14.3375 34.8271C15.0489 36.3806 16.8329 37.4254 18.472 37.2487L18.7977 37.2135L18.7964 36.3194C18.7949 35.2203 18.9971 34.4293 19.4468 33.7789C19.5259 33.6644 19.5771 33.4753 19.5293 33.4747C19.5222 33.4747 19.3473 33.4051 19.1407 33.3205C18.4525 33.0384 17.3539 33.0016 16.7836 33.2412C16.4052 33.4004 16.1822 33.3214 16.1822 33.0287C16.1822 32.8275 16.2266 32.7897 16.6226 32.6539C17.5438 32.3378 18.6832 32.4212 19.6565 32.8749C19.9579 33.0156 20.0913 33.0063 20.1989 32.8371C20.2755 32.7167 20.8326 32.301 21.1374 32.1366C21.3285 32.0336 21.5412 32.0548 21.6327 32.1862C21.7829 32.4021 21.7007 32.5273 21.2317 32.7947C19.4053 33.837 18.8076 36.6624 20.0262 38.4939C21.139 40.1665 23.2312 40.6836 25.0583 39.7378C25.5539 39.4812 25.6374 39.4881 25.7974 39.7986C26.2698 40.7133 27.3218 41.6616 28.2197 41.9821C28.3512 42.0292 28.5053 42.0876 28.5624 42.1122C29.1386 42.3616 30.766 42.4374 31.4052 42.2446C33.2837 41.6782 34.3488 40.7245 34.894 39.1211C35.0997 38.516 35.1332 37.0231 34.9455 36.834C34.9173 36.8059 34.8943 36.7448 34.8943 36.6983C34.8943 36.6056 34.4443 35.6501 34.3807 35.6076C34.359 35.5933 34.3128 35.5268 34.2778 35.46C34.1618 35.2388 33.8004 34.8452 33.3483 34.448C33.0285 34.1671 33.0713 33.846 33.4295 33.8407C33.66 33.8373 34.4539 34.6075 34.8339 35.2032C35.0665 35.5683 35.0748 35.5692 35.1573 35.2303C35.6182 33.3405 34.3004 30.7089 32.6064 30.1356C32.5146 30.1047 32.4159 30.0616 32.3874 30.0404C32.2016 29.9006 30.9055 29.7995 30.3355 29.88C29.517 29.9958 28.7032 30.3912 28.0863 30.9729C27.7457 31.2943 27.3993 31.2793 27.3993 30.9429C27.3993 30.6858 28.2984 29.9506 28.9832 29.6475C29.1498 29.5739 29.3325 29.4918 29.3892 29.465C29.6373 29.3483 30.2638 29.245 30.8519 29.2241C31.4139 29.2041 31.4843 29.1913 31.4629 29.1149C31.4495 29.0671 31.4108 28.853 31.3766 28.6396C30.8212 25.1648 26.2784 23.963 23.7191 26.6137C23.2979 27.0496 23.1822 27.0996 23.0055 26.9217C22.7883 26.7029 23.2474 26.0719 23.9979 25.5573C24.2954 25.3533 24.2941 25.3735 24.0243 25.1754C23.1633 24.5431 21.8784 24.1116 21.0413 24.1733C20.9985 24.1765 20.7659 24.198 20.5243 24.2211ZM21.4125 28.9395C21.8737 29.4132 22.9537 29.6666 23.6354 29.4609C23.9102 29.3782 24.0683 29.5246 24.0454 29.8413C24.0274 30.0929 22.967 30.2364 22.3334 30.0726C21.7121 29.9122 20.9976 29.4909 20.8381 29.191C20.6626 28.8611 21.135 28.6542 21.4125 28.9395ZM37.311 28.9841C37.5566 29.254 37.3613 29.4996 36.9429 29.4472C36.5328 29.3957 35.8846 29.5761 35.6095 29.8186C35.487 29.9265 35.3099 29.8838 35.1868 29.7171L35.081 29.5742L35.1859 29.431C35.5605 28.9195 36.9804 28.6209 37.311 28.9841ZM26.0282 30.5191C26.2415 30.6171 26.2493 30.7922 26.0527 31.0677C25.843 31.3617 25.5899 31.8526 25.5899 31.9658C25.5899 32.012 25.5614 32.0788 25.526 32.1141C25.3827 32.2586 25.4088 33.607 25.5639 34.0695C26.0418 35.4937 27.1332 36.2573 28.6914 36.2573C29.7747 36.2573 30.2908 36.0323 31.1046 35.2041C31.3977 34.9058 31.7414 34.9573 31.7414 35.2993C31.7414 35.514 30.9151 36.242 30.3327 36.5404C30.1913 36.6128 30.1497 36.7379 30.2356 36.8321C30.4195 37.0334 30.5932 38.4218 30.4555 38.5897C30.2235 38.8724 29.9574 38.6434 29.9109 38.1207C29.8762 37.7299 29.7769 37.2874 29.6618 37.0106L29.6073 36.8799H28.723C27.2169 36.8799 26.2347 36.3678 25.4308 35.1639C25.1414 34.7304 25.17 34.746 24.8598 34.8537C24.3096 35.0453 23.8103 35.3804 23.4189 35.8211C22.7905 36.5288 22.8364 36.4992 22.6246 36.3316C22.4785 36.2158 22.4459 36.0242 22.5533 35.91C22.5886 35.8722 22.681 35.7562 22.7583 35.6519C22.985 35.3464 23.3159 35.0403 23.7033 34.7778C24.0392 34.55 24.2163 34.4564 24.7274 34.2352L24.924 34.1497L24.8825 33.9034C24.7841 33.3243 24.8363 32.2267 24.9805 31.8367C25.2556 31.0924 25.6098 30.5541 25.8849 30.4617C25.8904 30.4598 25.955 30.4857 26.0282 30.5191ZM4.18973 42.1937C2.03607 42.6165 1.61178 45.5824 3.55827 46.6066C4.88384 47.304 6.52235 46.5551 6.89763 45.0803C7.31385 43.4463 5.83569 41.8707 4.18973 42.1937ZM49.9107 42.1965C48.5266 42.5154 47.7146 43.8972 48.1352 45.2182C48.7778 47.2372 51.5092 47.4513 52.4493 45.5565L52.6503 45.1511V44.5011C52.6503 42.9963 51.3148 41.8729 49.9107 42.1965ZM26.8938 55.53C25.4904 55.8948 24.7556 57.5122 25.3998 58.82C26.2949 60.6381 28.79 60.5788 29.6569 58.7183C29.9354 58.1207 29.8306 56.977 29.4509 56.4752C28.8049 55.6205 27.872 55.2757 26.8938 55.53Z" fill="#FC5CAC"/>
</svg>
