<svg width="42" height="35" viewBox="0 0 42 35" fill="none" xmlns="http://www.w3.org/2000/svg">
<g clip-path="url(#clip0_482_8400)">
<path d="M38.9125 21.1159C38.9125 21.9153 38.7673 22.6799 38.5017 23.3848C37.5927 25.7926 35.2834 27.5029 32.577 27.5029C29.8072 27.5029 27.4537 25.7112 26.592 23.2145C21.4753 23.5853 18.5495 21.2796 17.3329 16.8848C14.2598 16.0422 12.001 13.2093 12.001 9.84377C12.001 7.66711 12.9464 5.71259 14.4458 4.37653C15.7216 3.23772 17.3997 2.54688 19.2379 2.54688C21.3439 2.54688 23.2403 3.45345 24.5611 4.90257C25.4496 4.31682 26.5112 3.9773 27.6516 3.9773C28.4474 3.9773 29.2059 4.14332 29.8932 4.44266C31.8821 5.30815 33.2805 7.29065 33.3116 9.60633C33.3127 9.63342 33.3127 9.65945 33.3127 9.68661L33.3116 9.78317V9.78423C33.6008 9.72021 33.9009 9.68661 34.2098 9.68661C35.5887 9.68661 36.8139 10.3526 37.5861 11.3829H37.5873C38.1229 12.0976 38.4403 12.988 38.4403 13.9533C38.4422 14.9544 38.0924 15.9238 37.4528 16.6896C37.4048 16.7487 37.3549 16.8062 37.3032 16.8621C38.3048 17.9911 38.9124 19.4824 38.9124 21.1159" fill="#ED64A6"/>
<path d="M27.5819 9.32839C26.4357 10.5844 25.7357 12.261 25.7357 14.1025C25.7357 17.9972 28.8671 21.1546 32.7298 21.1546C33.2282 21.1549 33.7252 21.1016 34.2123 20.9959M18.9326 7.052C19.1076 9.59902 21.2122 11.6105 23.7827 11.6105M31.5145 10.6646C32.0344 10.2291 32.6511 9.92698 33.312 9.78408M24.5615 4.90234C23.7473 5.43693 23.0781 6.17781 22.6275 7.052" stroke="#103849" stroke-width="0.864166" stroke-miterlimit="10" stroke-linecap="round" stroke-linejoin="round"/>
<path d="M38.9125 21.1158C38.9125 24.6438 36.076 27.5029 32.577 27.5029C29.8072 27.5029 27.4537 25.7112 26.592 23.2145C21.4753 23.5853 18.5495 21.2796 17.3329 16.8848C14.2598 16.0422 12.001 13.2093 12.001 9.84377C12.001 5.81362 15.2407 2.54688 19.2379 2.54688C21.3439 2.54688 23.2403 3.45345 24.5611 4.90257C25.4496 4.31682 26.5112 3.9773 27.6516 3.9773C30.7784 3.9773 33.3127 6.53375 33.3127 9.68661L33.3116 9.78317V9.78423C33.6008 9.72021 33.9009 9.68661 34.2098 9.68661C36.546 9.68661 38.4403 11.5965 38.4403 13.9533C38.4403 15.078 38.0089 16.0997 37.3032 16.8621C38.3048 17.9911 38.9124 19.4824 38.9124 21.1159L38.9125 21.1158Z" stroke="#103849" stroke-width="0.756095" stroke-miterlimit="10" stroke-linejoin="round"/>
<path d="M37.304 16.8612C37.304 16.8612 36.8129 16.3473 36.1411 15.8125M18.4125 28.4445C18.1352 27.8605 17.9578 27.2334 17.8877 26.5897" stroke="#103849" stroke-width="0.864166" stroke-miterlimit="10" stroke-linecap="round" stroke-linejoin="round"/>
<path d="M30.8331 24.0061C31.057 24.6326 31.1712 25.2935 31.1707 25.9595C31.1707 29.3846 28.1891 32.1599 24.5103 32.1599C21.7825 32.1599 19.4386 30.6338 18.4103 28.4486C17.5628 29.0288 16.5462 29.3672 15.4544 29.3672C13.0064 29.3672 10.9411 27.6687 10.2936 25.3456C9.83129 25.4618 9.35662 25.5204 8.88018 25.5202C5.68228 25.5202 3.08887 22.9062 3.08887 19.6807C3.08887 17.2036 4.61949 15.0865 6.77936 14.2394C6.69441 13.8849 6.64923 13.5172 6.64923 13.1398C6.64923 10.2147 9.34486 7.84375 12.6707 7.84375C14.58 7.84375 16.2837 8.62668 17.3862 9.84577C18.2705 9.36747 19.2902 9.09318 20.3766 9.09318C23.7466 9.09318 26.4786 11.7276 26.4786 14.977C26.479 15.0536 26.4772 15.1302 26.4732 15.2068C29.2539 15.7209 31.3675 18.2958 31.3675 21.3954C31.3675 22.3271 31.1771 23.211 30.833 24.006" fill="#ED64A6"/>
<path d="M28.6749 21.1169C29.6675 21.8565 30.4271 22.8566 30.8359 24.0041M10.2964 25.3435C10.1587 24.8511 10.0855 24.3315 10.0855 23.7936C10.0855 21.5983 11.3107 19.6994 13.0899 18.7916M8.29034 13.8708C7.7633 13.9251 7.25772 14.0498 6.78223 14.2374M17.3903 9.84481L17.3891 9.84375M17.3891 9.84375C16.633 10.2559 15.9769 10.8178 15.4638 11.4881" stroke="#103849" stroke-width="0.864166" stroke-miterlimit="10" stroke-linecap="round" stroke-linejoin="round"/>
<path d="M30.835 24.0061C31.059 24.6326 31.1732 25.2935 31.1726 25.9595C31.1726 29.3846 28.191 32.1599 24.5122 32.1599C21.7845 32.1599 19.4405 30.6338 18.4123 28.4486C17.5648 29.0288 16.5481 29.3672 15.4564 29.3672C13.0083 29.3672 10.943 27.6687 10.2955 25.3456C9.83325 25.4618 9.35857 25.5204 8.88213 25.5202C5.68423 25.5202 3.09082 22.9062 3.09082 19.6807C3.09082 17.2036 4.62144 15.0865 6.78131 14.2394C6.69636 13.8849 6.65119 13.5172 6.65119 13.1398C6.65119 10.2147 9.34681 7.84375 12.6727 7.84375C14.582 7.84375 16.2856 8.62668 17.3882 9.84577C18.2725 9.36747 19.2922 9.09318 20.3786 9.09318C23.7486 9.09318 26.4806 11.7276 26.4806 14.977C26.481 15.0536 26.4791 15.1302 26.4752 15.2068C29.2558 15.7209 31.3694 18.2958 31.3694 21.3954C31.3694 22.3271 31.1791 23.211 30.8349 24.006L30.835 24.0061Z" stroke="#103849" stroke-width="0.756095" stroke-miterlimit="10" stroke-linejoin="round"/>
<path d="M21.269 16.9577C22.3404 15.8211 23.8194 15.1172 25.4521 15.1172C25.8007 15.1172 26.1417 15.1487 26.474 15.2103M26.0909 22.5982C25.2468 23.6625 23.9482 24.3442 22.4916 24.3442C19.9478 24.3442 17.8857 22.2648 17.8857 19.7001C17.8841 18.6291 18.2512 17.5908 18.9242 16.7623" stroke="#103849" stroke-width="0.864166" stroke-miterlimit="10" stroke-linecap="round" stroke-linejoin="round"/>
<path d="M24.5298 26.6406C24.5298 25.7285 24.3016 24.8707 23.8993 24.1212M14.9037 23.6744C15.6631 22.5399 16.8454 21.7188 18.2233 21.4401M6.69238 19.6852C7.27582 19.4521 7.89773 19.3325 8.52529 19.3327C9.53151 19.3313 10.5142 19.6393 11.3423 20.2157M16.1618 15.4109C15.8484 15.504 15.5167 15.5538 15.1734 15.5538C14.2621 15.555 13.3866 15.1964 12.7343 14.5547M31.2784 15.1844C31.7605 14.8217 32.3461 14.6262 32.9477 14.6272C33.1148 14.6271 33.2817 14.642 33.4462 14.6718" stroke="#103849" stroke-width="0.864166" stroke-miterlimit="10" stroke-linecap="round" stroke-linejoin="round"/>
<path d="M37.7994 16.8651C38.4577 16.0415 38.8168 15.0203 38.8168 13.954C38.8168 11.392 36.75 9.30763 34.2098 9.30763C34.0322 9.30763 33.8551 9.31804 33.6794 9.33854C33.4996 6.14272 30.8646 3.59847 27.6514 3.59847C26.5801 3.59847 25.5394 3.8813 24.6226 4.41914C23.1939 2.97966 21.2574 2.17011 19.2378 2.16797C15.8526 2.16797 12.9777 4.40775 11.9908 7.49424C8.78221 7.79692 6.27415 10.212 6.27415 13.1373C6.27415 13.4285 6.2994 13.7201 6.34918 14.0077C4.13017 15.0105 2.71387 17.2025 2.71387 19.6784C2.71387 23.1075 5.48073 25.8973 8.8816 25.8973C9.26997 25.8974 9.65749 25.8608 10.0391 25.7881C10.8463 28.1347 13.0256 29.7443 15.4559 29.7443C16.442 29.745 17.4109 29.4836 18.2649 28.9864C19.4673 31.1567 21.8724 32.5371 24.5117 32.5371C27.7251 32.5371 30.4404 30.5117 31.2793 27.755C31.7013 27.8389 32.1354 27.8831 32.5769 27.8831C36.2779 27.8831 39.2889 24.8474 39.2889 21.1165C39.2889 19.5622 38.7623 18.0652 37.7994 16.8651V16.8651Z" stroke="#103849" stroke-width="1.51227" stroke-miterlimit="10" stroke-linejoin="round"/>
<path d="M19.2367 0C17.2482 0 15.3354 0.597059 13.7053 1.72651C12.2977 2.70173 11.1819 4.01713 10.4448 5.56168C6.85721 6.43832 4.29219 9.34934 4.13004 12.7916C1.9095 14.3462 0.561523 16.913 0.561523 19.6796C0.561523 24.2562 4.21587 27.9887 8.73674 28.0664C10.1643 30.4314 12.709 31.9147 15.4549 31.9147C16.1564 31.9147 16.8457 31.821 17.5143 31.6352C19.2449 33.5756 21.7874 34.7074 24.5107 34.7074C26.3554 34.7074 28.1424 34.18 29.6783 33.1825C30.9264 32.372 31.932 31.3022 32.628 30.0533C37.4915 30.0252 41.4392 26.0275 41.4392 21.1178C41.4392 19.6008 41.0629 18.1289 40.344 16.8128C40.7548 15.9171 40.9674 14.942 40.9671 13.9552C40.9671 12.1678 40.2839 10.4777 39.0432 9.19626C38.0648 8.18565 36.8264 7.51807 35.4787 7.25972C35.0231 5.76862 34.1508 4.42515 32.9587 3.4012C31.4774 2.12983 29.5958 1.43123 27.6506 1.43034C26.7439 1.43034 25.8339 1.58546 24.9765 1.88269C23.3109 0.663354 21.3035 0 19.2367 0ZM19.2367 1.40992C21.2529 1.40992 23.2301 2.16487 24.7446 3.49776C25.6531 3.06468 26.6455 2.84017 27.6504 2.84042C30.9975 2.84042 33.8079 5.29471 34.3478 8.55145C37.239 8.6262 39.5686 11.0216 39.5686 13.9552C39.5676 14.9832 39.2768 15.9896 38.73 16.8572C39.5787 18.1041 40.0407 19.5959 40.0407 21.1178C40.0407 25.2676 36.6919 28.6437 32.5758 28.6437C32.3096 28.6437 32.0424 28.6291 31.7765 28.6001C30.6277 31.396 27.7328 33.2976 24.5106 33.2976C21.8533 33.2976 19.4182 32.0409 17.9894 29.975C17.1893 30.3241 16.3268 30.5044 15.4549 30.5048C12.9147 30.5048 10.6171 28.9691 9.55912 26.6245C9.33372 26.6467 9.10695 26.6578 8.88058 26.6578C5.06456 26.6578 1.95992 23.5275 1.95992 19.6796C1.95992 17.125 3.34654 14.7847 5.53626 13.5694C5.52564 13.426 5.52031 13.2823 5.52028 13.1386C5.52028 9.98252 8.03085 7.33098 11.4358 6.79997C12.6797 3.55624 15.7557 1.40992 19.2369 1.40992" fill="#F0F0F0"/>
</g>
<defs>
<clipPath id="clip0_482_8400">
<rect width="40.8779" height="34.7075" fill="white" transform="translate(0.561523)"/>
</clipPath>
</defs>
</svg>
