<svg width="167" height="69" viewBox="0 0 167 69" fill="none" xmlns="http://www.w3.org/2000/svg">
<path fill-rule="evenodd" clip-rule="evenodd" d="M41.1713 27.0089C40.4807 27.083 39.7882 27.4219 39.2756 27.9364C39.0373 28.1757 38.7544 28.5643 38.7544 28.6525C38.7544 28.6792 38.7406 28.701 38.7237 28.701C38.7068 28.701 38.6841 28.7285 38.6732 28.7623C38.6622 28.7959 38.6058 28.9573 38.5476 29.1209C38.4245 29.4668 38.3617 29.8989 38.378 30.2879L38.3892 30.5629L35.1031 32.4695C31.5148 34.5516 31.7093 34.4389 31.3702 34.6343C31.2392 34.7097 31.0827 34.8014 31.0224 34.838C30.9621 34.8743 30.8267 34.9513 30.7216 35.0091C30.6164 35.0666 30.5069 35.1321 30.4783 35.1545C30.4495 35.177 30.3869 35.2148 30.3391 35.2385C30.2913 35.2622 30.2208 35.3009 30.1826 35.3242C30.1444 35.3475 29.9957 35.4342 29.8523 35.5169C29.7088 35.5996 29.5367 35.7002 29.4697 35.7405C29.4027 35.7808 29.2619 35.861 29.1567 35.9187C29.0516 35.9762 28.942 36.0409 28.9134 36.0623C28.8847 36.0837 28.8239 36.1223 28.7782 36.1482C28.5485 36.2783 28.4346 36.344 28.3397 36.4015C28.0492 36.5775 27.9675 36.5896 27.8702 36.4721C27.8606 36.4605 27.8137 36.4284 27.7659 36.4007C25.982 35.3674 23.7591 36.171 23.1651 38.0638C22.7966 39.2382 23.0509 40.3987 23.8684 41.2724C24.0101 41.424 24.4351 41.7519 24.4898 41.7519C24.5098 41.7519 24.5313 41.7649 24.5375 41.7809C24.544 41.7968 24.6391 41.8524 24.7491 41.9043L24.9492 41.9988V48.0144V54.03L24.7318 54.1316C22.3034 55.2671 22.4866 58.942 25.0187 59.8909C25.8053 60.1859 27.1585 60.0927 27.5946 59.7137C27.6249 59.6875 27.6612 59.6661 27.6753 59.6661C27.6895 59.6661 27.7694 59.6188 27.8527 59.5611C27.9362 59.5034 28.0154 59.4561 28.0288 59.4561C28.0555 59.4561 30.4845 60.857 30.5129 60.8889C30.5225 60.8996 30.5774 60.932 30.6348 60.9607C30.6921 60.9895 30.8563 61.0823 30.9999 61.1669C31.3523 61.3747 31.4706 61.4425 31.6953 61.5656C31.8005 61.6231 31.91 61.6877 31.9388 61.7091C31.9674 61.7303 32.0283 61.769 32.074 61.795C32.1195 61.8208 32.2134 61.8746 32.2826 61.9145C32.3517 61.9541 32.4473 62.0087 32.495 62.0354C32.543 62.062 32.6446 62.1227 32.7212 62.1702C32.7976 62.2176 32.8915 62.2718 32.9299 62.2902C32.968 62.3087 33.0619 62.3629 33.1385 62.4103C33.2149 62.4578 33.3167 62.5184 33.3645 62.5451C33.4122 62.5718 33.508 62.6263 33.5771 62.666C33.6461 62.7059 33.74 62.7596 33.7857 62.7855C33.8314 62.8115 33.8921 62.8501 33.9209 62.8713C33.9495 62.8927 34.059 62.9574 34.1642 63.0149C34.2694 63.0727 34.4102 63.1529 34.4772 63.1932C34.5441 63.2335 34.7163 63.334 34.8598 63.4163C35.0032 63.4988 35.1613 63.5901 35.2112 63.6193C35.9245 64.0373 36.1787 64.1796 36.2114 64.1796C36.2331 64.1796 36.2506 64.1929 36.2506 64.209C36.2506 64.2252 36.2859 64.2561 36.3289 64.2777C36.4401 64.3333 36.7142 64.4908 37.6068 65.0112L38.3892 65.4674L38.3784 65.7245C38.3511 66.3629 38.5747 67.2144 38.8687 67.591C38.8837 67.6104 38.9351 67.6811 38.9826 67.7485C39.0857 67.894 39.5545 68.3783 39.5925 68.3783C39.6069 68.3783 39.6395 68.3989 39.6647 68.4243C40.2431 69.0018 41.7428 69.1838 42.684 68.7906C43.9106 68.2781 44.7502 66.9237 44.6108 65.6819C44.5875 65.4739 44.6006 65.4546 44.8572 65.3152C45.1212 65.172 45.4164 65.0028 45.431 64.9864C45.4508 64.9644 45.5376 64.9138 45.8137 64.7637C45.9188 64.7066 46.0284 64.6409 46.0569 64.6178C46.0857 64.5949 46.16 64.5558 46.2222 64.5311C46.2844 64.5063 46.3353 64.474 46.3353 64.4595C46.3353 64.4448 46.3626 64.4236 46.396 64.4127C46.4296 64.4015 46.5195 64.3528 46.5961 64.3041C46.6724 64.2556 46.7939 64.1903 46.8654 64.1591C46.9372 64.1276 46.9958 64.091 46.9958 64.0774C46.9958 64.0638 47.0507 64.0312 47.1177 64.0048C47.1845 63.9783 47.2393 63.9477 47.2393 63.9367C47.2393 63.9258 47.2902 63.8943 47.3524 63.8668C47.4146 63.8393 47.5467 63.7646 47.6462 63.7008C47.7457 63.637 47.8436 63.5849 47.8636 63.5849C47.8836 63.5849 47.9001 63.5721 47.9001 63.5563C47.9001 63.5408 47.9548 63.5064 48.0217 63.4799C48.0887 63.4535 48.1434 63.419 48.1434 63.4033C48.1434 63.3878 48.1578 63.375 48.1753 63.375C48.1928 63.375 48.3264 63.304 48.472 63.2175C48.6174 63.1308 48.7451 63.0601 48.7553 63.0601C48.7658 63.0601 48.8396 63.0153 48.9195 62.961C48.9995 62.9064 49.1902 62.7924 49.3431 62.7074C49.4962 62.6224 49.6473 62.5371 49.6792 62.5178C49.7109 62.4985 49.8595 62.4118 50.0095 62.3253C50.1593 62.2388 50.3091 62.1523 50.3423 62.133C52.1437 61.0819 54.9569 59.4561 54.9742 59.4561C54.9871 59.4561 55.0869 59.517 55.1958 59.5913C56.1472 60.2409 57.789 60.2249 58.6247 59.5582C59.4388 58.9086 59.7432 58.4495 59.9327 57.5859C60.0428 57.0839 59.9934 56.2645 59.8312 55.9047C59.8139 55.8663 59.7795 55.7796 59.7545 55.7124C59.527 55.0984 58.8988 54.4289 58.2743 54.1352L58.054 54.0315V48.0131C58.054 42.3135 58.0574 41.9933 58.1149 41.9713C58.7369 41.7324 59.4012 41.0843 59.6933 40.4312C59.7515 40.3013 59.8135 40.1633 59.831 40.1249C59.8486 40.0863 59.894 39.9064 59.9322 39.725C60.2846 38.0468 59.2281 36.3856 57.5672 36.0069C57.1698 35.9162 55.9826 35.9743 55.9129 36.0877C55.9025 36.1047 55.8653 36.1186 55.8305 36.1186C55.7658 36.1186 55.1649 36.4185 55.133 36.4666C55.0535 36.5873 54.9375 36.5781 54.7157 36.4337C54.6362 36.3818 53.8888 35.9491 53.6725 35.8295C53.5673 35.7715 53.4578 35.7065 53.4292 35.685C53.4004 35.6638 53.3397 35.6252 53.294 35.5992C53.1012 35.49 52.9493 35.4027 52.7857 35.307C52.6902 35.2509 52.5846 35.1963 52.551 35.1854C52.5176 35.1747 52.4903 35.1548 52.4903 35.1413C52.4903 35.1279 52.4354 35.0953 52.3684 35.0689C52.3015 35.0424 52.2468 35.0099 52.2468 34.9965C52.2468 34.983 52.2195 34.9631 52.1859 34.9522C52.1525 34.941 52.0626 34.8925 51.986 34.8445C51.9094 34.7962 51.7922 34.7294 51.7252 34.6961C51.6582 34.6627 51.5956 34.6266 51.586 34.6159C51.5764 34.6051 51.5218 34.573 51.4644 34.5441C51.407 34.5153 51.3523 34.4838 51.3427 34.4742C51.3332 34.4645 51.2783 34.4332 51.2209 34.4049C51.1635 34.3763 51.0696 34.3205 51.0123 34.2806C50.9549 34.2407 50.861 34.1855 50.8036 34.1576C50.7462 34.1297 50.6916 34.099 50.682 34.0893C50.6724 34.0797 50.6177 34.0482 50.5603 34.0192C50.503 33.9905 50.4481 33.9583 50.4385 33.9478C50.4089 33.9153 49.8399 33.5994 49.8109 33.5994C49.7959 33.5994 49.7783 33.587 49.7721 33.5719C49.7604 33.5441 49.5966 33.4444 49.2736 33.2683C49.1781 33.216 48.0904 32.5856 46.8569 31.8672L44.614 30.5612L44.6219 30.3746C44.653 29.6409 44.4606 28.9481 44.0552 28.3328C43.94 28.1579 43.4608 27.6513 43.4107 27.6513C43.3963 27.6513 43.3638 27.6316 43.3385 27.6075C43.2586 27.5315 43.0207 27.3872 42.8405 27.3054C42.7447 27.2619 42.6406 27.2126 42.6089 27.1956C42.3835 27.0753 41.5548 26.9678 41.1713 27.0089ZM42.1866 27.7259C43.4147 28.1067 44.1545 29.2804 43.9592 30.5379C43.9323 30.7111 43.9154 30.862 43.9217 30.8736C43.9367 30.9007 44.437 31.1982 44.8572 31.4299C44.972 31.4931 45.0895 31.5624 45.118 31.5838C45.1468 31.605 45.2076 31.6436 45.2532 31.6697C45.2989 31.6955 45.3928 31.7492 45.4619 31.7891C45.531 31.8288 45.6267 31.8834 45.6745 31.91C45.7223 31.9367 45.8241 31.9974 45.9005 32.0448C45.977 32.0923 46.0709 32.1464 46.1091 32.1649C46.1475 32.1834 46.2414 32.2375 46.3177 32.285C46.3943 32.3324 46.4961 32.3931 46.5439 32.4197C46.5917 32.4464 46.6873 32.501 46.7563 32.5407C46.8256 32.5806 46.9195 32.6343 46.965 32.6601C47.0107 32.6862 47.0716 32.7248 47.1002 32.746C47.129 32.7674 47.2385 32.8321 47.3437 32.8896C47.5536 33.0046 47.6504 33.06 48.0391 33.2893C48.1826 33.3739 48.3468 33.4663 48.4042 33.4948C48.4616 33.5236 48.5164 33.5557 48.526 33.5666C48.5621 33.6075 49.3504 34.0543 49.3865 34.0543C49.4074 34.0543 49.4295 34.0673 49.4359 34.083C49.4495 34.1168 55.0128 37.3433 55.0572 37.3433C55.0739 37.3433 55.1173 37.3097 55.1539 37.2686C56.0612 36.246 57.9201 36.3722 58.8364 37.5186C59.8897 38.8361 59.2881 40.9523 57.7237 41.434C57.6472 41.4576 57.5493 41.4941 57.5063 41.5153L57.4279 41.5537L57.4368 48.0278L57.4456 54.5019L57.7064 54.5912C59.2128 55.1063 59.8404 56.9071 58.9935 58.2841C58.7561 58.6699 58.2602 59.1102 57.9411 59.2181C57.879 59.2391 57.8124 59.2685 57.7932 59.2834C57.6995 59.356 57.1696 59.4561 56.8793 59.4561C56.2565 59.4561 55.5872 59.1933 55.2244 58.8062C55.1132 58.6878 54.8897 58.6506 54.8897 58.7506C54.8897 58.7636 54.8388 58.7965 54.7766 58.8238C54.7144 58.8509 54.6558 58.8837 54.6462 58.8963C54.6366 58.9088 54.5427 58.9651 54.4376 59.0214C54.3324 59.0774 54.2385 59.1312 54.2289 59.141C54.2193 59.1509 54.1647 59.1824 54.1073 59.2112C54.0499 59.2401 53.995 59.2727 53.9854 59.2836C53.9758 59.2947 53.8429 59.3734 53.69 59.4585C53.5369 59.5437 53.3858 59.6291 53.3541 59.6484C53.1198 59.7916 44.1239 65.012 43.9939 65.0805C43.9198 65.1195 43.9 65.1508 43.9133 65.207C44.5238 67.7466 41.5404 69.4701 39.7167 67.6313C39.1352 67.0452 38.8558 66.0419 39.0671 65.3003C39.1082 65.1562 39.0893 65.1157 38.9538 65.0576C38.8921 65.0309 38.8178 64.99 38.7892 64.9667C38.7604 64.9434 38.6511 64.8774 38.5457 64.8201C38.2636 64.6669 38.1883 64.6215 38.1383 64.5756C38.1136 64.5527 38.0581 64.5233 38.0154 64.5101C37.9724 64.4968 37.9156 64.4683 37.8893 64.4465C37.8376 64.404 37.5061 64.2092 37.3636 64.1374C37.3158 64.1133 37.2688 64.0843 37.2592 64.0728C37.2496 64.0614 37.1165 63.9825 36.9636 63.8973C36.8106 63.8122 36.6594 63.7268 36.6277 63.7075C36.5957 63.6882 36.4472 63.6015 36.2972 63.515C36.1474 63.4285 35.9976 63.3418 35.9642 63.3225C33.9539 62.1553 28.2679 58.8515 28.1531 58.7842C27.9739 58.6788 27.8875 58.6641 27.8458 58.7315C27.6196 59.0978 26.7611 59.4561 26.1097 59.4561C23.5646 59.4561 22.6875 56.0479 24.901 54.7591C25.1186 54.6325 25.1378 54.6248 25.3926 54.5584L25.5405 54.52L25.5317 48.0222L25.523 41.5245L25.3079 41.4504C24.5893 41.2027 23.8907 40.4845 23.7462 39.8449C23.7332 39.7871 23.705 39.7178 23.6838 39.6908C23.6007 39.5856 23.6381 38.5802 23.7353 38.3044C24.1077 37.2463 25.0381 36.5668 26.1141 36.5668C26.4404 36.5668 26.9438 36.664 27.053 36.7481C27.0722 36.7628 27.1239 36.7859 27.1679 36.7996C27.2785 36.8338 27.6528 37.0868 27.8005 37.227C27.8675 37.2906 27.9343 37.3427 27.9489 37.3429C27.9635 37.3431 28.6326 36.9614 29.4355 36.4948C30.2385 36.0281 30.9229 35.6305 30.9563 35.6111C31.4493 35.3267 31.5712 35.2559 31.6202 35.2263C31.6519 35.207 31.7952 35.1235 31.9388 35.041C32.0821 34.9583 32.2543 34.8577 32.3212 34.8172C32.3882 34.7769 32.529 34.6967 32.6342 34.6392C32.7394 34.5814 32.8489 34.5159 32.8777 34.4935C32.9063 34.471 32.9689 34.4338 33.0166 34.4107C33.0646 34.3874 33.1506 34.3394 33.208 34.3039C33.4667 34.1431 33.5637 34.0877 33.6762 34.0364C33.7425 34.0062 33.8051 33.9703 33.8153 33.9567C33.8354 33.9298 33.9038 33.8891 34.199 33.7287C34.3042 33.6714 34.4137 33.6065 34.4425 33.5842C34.4711 33.562 34.5416 33.5211 34.599 33.4929C34.6564 33.465 34.7111 33.4341 34.7207 33.4245C34.7388 33.4062 34.7981 33.3716 35.0658 33.2229C35.1532 33.1745 35.264 33.1087 35.3117 33.077C35.3597 33.0456 35.4457 32.9966 35.5031 32.9685C35.5604 32.9404 35.6151 32.9093 35.6247 32.8997C35.6343 32.89 35.6813 32.8598 35.729 32.8323C36.2742 32.519 36.4726 32.4099 36.4956 32.4099C36.5108 32.4099 36.5283 32.3975 36.5346 32.3822C36.5463 32.3545 36.7134 32.2529 37.0331 32.0788C37.9208 31.596 39.084 30.8765 39.0759 30.8154C38.9895 30.1642 38.9874 30.1206 39.0269 29.8218C39.2282 28.3 40.7603 27.2835 42.1866 27.7259ZM37.2939 33.2305C36.022 33.9686 34.965 34.586 34.9447 34.6022C34.9245 34.6184 34.8463 34.6643 34.7707 34.7044C34.5243 34.8352 34.2863 34.9742 34.2685 34.9975C34.2589 35.0101 34.2003 35.0412 34.1381 35.0664C34.0759 35.0918 34.0252 35.1224 34.0252 35.1346C34.0252 35.1468 33.9743 35.1791 33.9122 35.2062C33.85 35.2333 33.6599 35.3395 33.4896 35.4421C33.3194 35.5448 33.1681 35.6288 33.1535 35.6288C33.1389 35.6288 33.1216 35.6405 33.1153 35.655C33.1089 35.6695 33.0018 35.7344 32.8777 35.7995C32.7533 35.8643 32.6282 35.9351 32.5994 35.9569C32.5708 35.9785 32.5099 36.0174 32.4642 36.0432C32.4187 36.069 32.3248 36.1228 32.2555 36.1626C32.1865 36.2025 32.0909 36.2569 32.0431 36.2836C31.9953 36.3104 31.9092 36.3608 31.8518 36.3955C31.7569 36.453 31.6429 36.5189 31.4132 36.6488C31.3675 36.6749 31.3066 36.7135 31.278 36.7347C31.2492 36.7561 31.1397 36.8204 31.0345 36.8777C30.7643 37.0246 30.6769 37.0752 30.6172 37.1197C30.5887 37.1409 30.4791 37.2056 30.374 37.2633C30.2686 37.3208 30.1334 37.3979 30.0731 37.4344C29.9631 37.501 29.5782 37.7239 29.3829 37.8341C29.2385 37.9156 28.6693 38.2508 28.5761 38.3092C28.501 38.3564 28.5005 38.3604 28.5552 38.5412C28.6307 38.7918 28.6295 39.4019 28.5529 39.6274C28.4542 39.9181 28.391 39.8631 29.6871 40.6155C30.9058 41.323 31.6625 41.7611 31.9369 41.9182C32.022 41.9669 32.1706 42.054 32.2672 42.1115C32.3638 42.1692 32.4898 42.2429 32.5472 42.2755C32.7529 42.3918 33.1299 42.6103 33.2374 42.6754C33.2977 42.7119 33.4331 42.7887 33.5383 42.8465C33.6434 42.904 33.753 42.9687 33.7818 42.9901C33.8103 43.0115 33.8713 43.0501 33.917 43.0759C33.9626 43.1018 34.0565 43.1555 34.1256 43.1954C34.1947 43.2353 34.2954 43.2928 34.3497 43.3232C34.4039 43.3539 34.4813 43.3976 34.5216 43.4204C34.6024 43.4662 34.6213 43.4589 34.7941 43.3171C35.1409 43.0331 36.0032 42.6277 36.2638 42.6263C36.477 42.6252 36.7376 42.3588 36.7376 42.1417C36.7376 42.123 36.7493 42.1023 36.7637 42.096C36.7779 42.0895 36.8273 42.0133 36.8734 41.9268C37.0566 41.5827 37.4345 41.1273 37.8178 40.7889C38.0675 40.5685 38.5835 40.267 39.05 40.0693C39.4984 39.8791 40.2752 39.7416 40.728 39.7722L41.0499 39.7938L41.0409 36.2002L41.0322 32.6066L40.8408 32.5591C40.511 32.4771 39.9985 32.1911 39.7957 31.9762C39.6699 31.8429 39.7778 31.7889 37.2939 33.2305ZM43.0681 32.0769C42.8106 32.2911 42.4801 32.4674 42.1797 32.5512L41.9711 32.6093L41.9623 36.3234C41.9544 39.6251 41.9592 40.0374 42.0061 40.0374C42.0351 40.0374 42.086 40.0525 42.1194 40.0712C42.1526 40.0896 42.2579 40.139 42.3535 40.1805C42.6105 40.2924 43.0689 40.5632 43.1862 40.6722C43.383 40.8553 43.419 40.8618 43.6995 40.7633C44.2985 40.553 44.3369 40.5465 44.9616 40.5465C45.5783 40.5465 45.6394 40.5565 46.1788 40.7476C46.4517 40.8441 46.965 41.1383 47.1375 41.297C47.6447 41.763 47.8657 42.0374 48.0841 42.472C48.1964 42.6955 48.3863 43.2481 48.3867 43.3526C48.3869 43.4427 48.4722 43.4582 48.558 43.3837C48.5882 43.3575 48.8711 43.1874 49.1866 43.0054C49.5023 42.8236 50.8289 42.0559 52.1346 41.2991L54.5085 39.9234L54.486 39.7966C54.4735 39.7271 54.4509 39.6461 54.4361 39.6169C54.4211 39.5877 54.3988 39.438 54.386 39.2845C54.3658 39.0372 54.381 38.859 54.4584 38.4425L54.4785 38.3346L53.0991 37.5327C52.3403 37.0918 51.6386 36.6856 51.5399 36.6299C51.3269 36.5103 50.5958 36.0835 50.3579 35.9399C50.2659 35.8843 50.176 35.8387 50.1581 35.8387C50.1401 35.8387 50.1255 35.8267 50.1255 35.8123C50.1255 35.7978 50.0748 35.7638 50.0126 35.7369C49.9505 35.7098 49.8605 35.6609 49.8125 35.6284C49.7648 35.5956 49.654 35.5291 49.5666 35.4804C49.2911 35.3275 49.2394 35.2969 49.2215 35.2771C49.2119 35.2664 49.1493 35.2301 49.0823 35.1965C49.0153 35.1627 48.8981 35.0974 48.8215 35.0515C48.7451 35.0053 48.6512 34.9513 48.6128 34.9314C48.5747 34.9114 48.4808 34.8554 48.4042 34.8069C48.3278 34.7584 48.2183 34.6946 48.1609 34.6654C48.0624 34.615 47.9873 34.5709 47.7175 34.4045C47.6554 34.366 47.5654 34.3159 47.5175 34.2928C47.4697 34.2697 47.4071 34.2323 47.3785 34.2098C47.3497 34.1874 47.2402 34.1223 47.135 34.065C46.8648 33.918 46.7774 33.8674 46.7177 33.8229C46.6889 33.8017 46.5796 33.7371 46.4742 33.6793C46.3691 33.6218 46.2282 33.5416 46.1613 33.5013C46.0943 33.4608 45.9224 33.3605 45.7788 33.278C45.6355 33.1957 45.4769 33.1043 45.4268 33.0752C45.3768 33.046 44.8963 32.7663 44.359 32.4535C43.2396 31.8019 43.3575 31.8361 43.0681 32.0769ZM39.7281 32.7323C39.7951 32.7747 39.8811 32.8285 39.9195 32.8516C40.0352 32.9215 40.3605 33.0745 40.3931 33.0745C40.4104 33.0745 40.4235 34.3914 40.4235 36.1186V39.1626L40.2585 39.1645C39.4876 39.1735 37.9745 39.7435 37.5722 40.1766C37.5626 40.1868 37.499 40.237 37.4307 40.288C37.1839 40.473 36.8607 40.8294 36.5004 41.3144C36.4537 41.3772 36.1582 41.9079 36.1373 41.9664C36.1252 42.0002 36.0418 42.0414 35.9316 42.0678C35.5592 42.1571 35.0466 42.38 34.6835 42.6105L34.5414 42.7008L32.0193 41.2378C30.6323 40.4333 29.4288 39.7365 29.3449 39.6895L29.1926 39.6043L29.2179 39.4097C29.246 39.1936 29.2481 39.0454 29.2258 38.817L29.211 38.6638L31.8007 37.1615C33.2249 36.3352 34.5859 35.5469 34.825 35.4096C35.0641 35.2725 35.2675 35.1514 35.2771 35.1409C35.2865 35.1302 35.357 35.088 35.4336 35.0473C35.6671 34.9224 35.9193 34.7769 35.9377 34.7561C35.9473 34.7454 36.0021 34.7128 36.0595 34.6841C36.1169 34.6553 36.1716 34.6238 36.1812 34.6142C36.1908 34.6045 36.2454 34.573 36.3028 34.5445C36.3602 34.5157 36.4885 34.441 36.588 34.3782C36.6875 34.3154 36.7854 34.2642 36.8054 34.2642C36.8255 34.2642 36.8419 34.2514 36.8419 34.2357C36.8419 34.2201 36.8966 34.1857 36.9636 34.1593C37.0306 34.1328 37.0852 34.1021 37.0852 34.0912C37.0852 34.0803 37.1361 34.0492 37.1983 34.0222C37.2605 33.9949 37.3938 33.9203 37.4946 33.8561C37.5954 33.7919 37.6932 33.7394 37.712 33.7394C37.7306 33.7394 37.746 33.7274 37.746 33.7129C37.746 33.6984 37.7969 33.6644 37.8591 33.6376C37.9213 33.6105 38.0112 33.5616 38.059 33.529C38.1067 33.4963 38.2163 33.4302 38.3025 33.3819C38.3884 33.3338 38.5155 33.2622 38.5845 33.2227C38.6536 33.1835 38.7475 33.13 38.7932 33.1041C38.8389 33.0783 38.8996 33.0397 38.9284 33.0183C38.9735 32.9847 39.1748 32.8703 39.4846 32.7023C39.595 32.6425 39.5848 32.6412 39.7281 32.7323ZM43.6354 32.7718C43.7529 32.8363 43.9035 32.9221 43.9705 32.9626C44.0375 33.0032 44.2096 33.1039 44.3532 33.1864C44.4965 33.2691 44.6411 33.3525 44.6743 33.3718C44.7074 33.3911 45.036 33.5826 45.4045 33.7973C45.773 34.0119 46.125 34.2166 46.1867 34.252C46.2485 34.2877 47.9784 35.2908 50.0312 36.4815L53.7634 38.6461L53.7614 39.0356C53.7603 39.2499 53.7716 39.4685 53.7862 39.5214C53.8068 39.5959 53.801 39.6175 53.7601 39.6175C53.7311 39.6175 53.7073 39.6332 53.7073 39.6526C53.7073 39.6717 53.6915 39.6874 53.6718 39.6874C53.6524 39.6874 53.578 39.7241 53.5066 39.7691C53.4352 39.814 53.2909 39.898 53.1857 39.9557C52.8955 40.115 52.8222 40.1579 52.8033 40.1801C52.7937 40.1912 52.6841 40.2559 52.5598 40.3235C52.4354 40.3911 52.2789 40.4801 52.212 40.5211C52.145 40.562 51.9731 40.6628 51.8297 40.7451C51.4992 40.9348 51.6574 40.8431 50.1405 41.7256C48.6719 42.5803 48.7929 42.5246 48.733 42.3729C47.9948 40.4998 45.7196 39.4642 43.7101 40.0869L43.5365 40.1407L43.341 40.0025C43.2334 39.9267 43.0182 39.7999 42.8626 39.7206L42.5797 39.5768V36.3342V33.0917L42.6925 33.0424C42.7547 33.0153 42.8449 32.9763 42.8926 32.9557C42.9404 32.9351 43.0719 32.8591 43.1849 32.7865C43.4309 32.6286 43.3775 32.6303 43.6354 32.7718ZM27.8116 40.904C27.7125 40.9951 27.6094 41.0874 27.5827 41.1091C27.4717 41.1996 27.0064 41.4309 26.8531 41.4718L26.6878 41.5159V47.9993V54.4826L26.8877 54.5567C27.3033 54.7106 27.6238 54.9101 27.8683 55.1666C28.0234 55.3295 27.9946 55.3404 28.9767 54.7501C29.0088 54.7308 29.1603 54.6453 29.3132 54.5601C29.4664 54.4749 29.5993 54.3963 29.6089 54.3852C29.6185 54.3741 29.6731 54.3416 29.7305 54.3128C29.7879 54.284 29.8427 54.2523 29.8523 54.2427C29.8617 54.2328 29.9556 54.1789 30.061 54.1228C30.1661 54.0668 30.26 54.0118 30.2696 54.0006C30.279 53.9895 30.3339 53.9567 30.3913 53.928C30.4487 53.899 30.5033 53.8677 30.5129 53.8581C30.5225 53.8484 30.593 53.8075 30.6694 53.767C30.9156 53.6372 31.1539 53.4997 31.2486 53.4332C31.2993 53.3973 31.3581 53.3681 31.379 53.3681C31.3999 53.3681 31.4172 53.3561 31.4172 53.3416C31.4172 53.3272 31.4679 53.2931 31.5301 53.2663C31.5922 53.2392 31.6824 53.1903 31.7301 53.1577C31.7779 53.125 31.8875 53.0589 31.9734 53.0106C32.0596 52.9625 32.1865 52.8909 32.2555 52.8515C32.3248 52.8122 32.4187 52.7587 32.4642 52.7328C32.5099 52.707 32.5708 52.6684 32.5994 52.647C32.6282 52.6256 32.7377 52.5609 32.8428 52.503C33.175 52.3203 33.2599 52.2666 33.2512 52.2443C33.2466 52.2324 33.1195 52.1232 32.9689 52.0016C32.7112 51.7938 32.3 51.349 32.2067 51.1772C31.9505 50.7051 31.8553 50.4704 31.7408 50.0279C31.38 48.6354 32.0197 47.0241 33.2491 46.2304L33.4928 46.0729L33.5111 45.6531C33.5316 45.1876 33.5883 44.9762 33.8206 44.5031C34.0052 44.1269 34.0409 44.1919 33.4861 43.893C33.3905 43.8413 33.3044 43.7905 33.295 43.7798C33.2601 43.741 28.0553 40.7371 28.024 40.7379C28.0063 40.7381 27.9107 40.8131 27.8116 40.904ZM52.3209 42.2582C49.269 44.0278 49.6323 43.788 49.8182 43.9098C50.0554 44.0651 50.0546 44.0645 50.3344 44.341C51.1539 45.1509 51.3528 46.5919 50.7802 47.5702C50.6605 47.7746 50.6515 47.7112 50.8487 48.0557C51.0083 48.3352 51.127 48.6303 51.2612 49.0819C51.3513 49.3853 51.3523 50.4801 51.263 50.8315C51.0982 51.4789 50.7898 52.0829 50.4155 52.4914C50.3158 52.6004 50.3358 52.6254 50.6774 52.8168C50.8234 52.8985 50.9691 52.9812 51.0012 53.0005C51.0496 53.0297 51.6878 53.3996 51.9069 53.5255C51.9403 53.5449 52.6384 53.9502 53.458 54.4266C54.9851 55.314 55.0166 55.3301 55.051 55.2396C55.1079 55.0906 55.7454 54.6852 56.1503 54.5408L56.3156 54.4818L56.3068 48.0031L56.2981 41.5243L56.1067 41.4632C55.7641 41.3539 55.3711 41.1112 55.1349 40.863C55.0689 40.7938 54.9986 40.7375 54.9784 40.7379C54.9584 40.7381 53.7624 41.4223 52.3209 42.2582ZM28.3701 41.6486C28.5064 41.7265 28.6725 41.8233 28.7394 41.8636C28.8064 41.9039 28.9472 41.9841 29.0524 42.0418C29.1576 42.0993 29.2671 42.164 29.2959 42.1854C29.3245 42.2066 29.3854 42.2452 29.4311 42.2713C29.4768 42.2971 29.5707 42.3508 29.6397 42.3907C29.7088 42.4304 29.8046 42.485 29.8523 42.5116C29.9001 42.5385 29.9861 42.5887 30.0435 42.6235C30.1643 42.6966 30.3875 42.8263 30.5129 42.8964C30.5609 42.9231 30.6625 42.9838 30.7391 43.031C30.8155 43.0785 30.9369 43.1444 31.0084 43.1775C31.0802 43.2107 31.1388 43.25 31.1388 43.2647C31.1388 43.2794 31.1572 43.2913 31.1797 43.2913C31.2021 43.2913 31.245 43.3127 31.2753 43.339C31.3262 43.3831 31.5522 43.5128 31.8866 43.69C31.963 43.7305 32.0335 43.7721 32.0431 43.7821C32.074 43.8153 32.4746 44.0462 32.5908 44.0979C32.653 44.1256 32.7037 44.156 32.7039 44.1659C32.7039 44.1756 32.804 44.2379 32.9267 44.3045L33.1496 44.4254L33.0861 44.6017C32.9685 44.9288 32.9059 45.1952 32.8867 45.4513L32.8675 45.7058L32.6204 45.9044C32.3127 46.1517 32.1443 46.3202 31.9317 46.5938C31.8401 46.7115 31.7527 46.8234 31.737 46.8428C30.987 47.7709 30.8017 49.8207 31.3694 50.915C31.3953 50.9652 31.4168 51.0194 31.417 51.0353C31.4176 51.1388 31.9482 51.9263 32.1228 52.0831C32.2079 52.1595 32.4059 52.0296 30.7216 53.003C29.9279 53.4619 29.2734 53.8499 29.2669 53.8652C29.2606 53.8803 29.2385 53.8929 29.2179 53.8929C29.1703 53.8929 28.6218 54.2133 28.6061 54.2502C28.5999 54.2653 28.5754 54.2777 28.5521 54.2777C28.5287 54.2777 28.4356 54.325 28.3453 54.3827C28.1358 54.5164 28.1183 54.5152 27.8784 54.3518C27.7686 54.2771 27.5967 54.1744 27.4963 54.1239L27.3138 54.0317V48.0054V41.979L27.5136 41.8827C27.6236 41.8296 27.7997 41.7242 27.9049 41.6486C28.1381 41.4811 28.0774 41.4811 28.3701 41.6486ZM55.1557 41.6996C55.2732 41.7785 55.4416 41.8732 55.5294 41.9098L55.6894 41.9761V48.0007V54.0256L55.5069 54.1211C55.4065 54.1738 55.2215 54.2834 55.0958 54.3649L54.8676 54.5131L54.7307 54.4301C54.6556 54.3846 54.5471 54.3233 54.4897 54.2941C54.3902 54.2433 54.2677 54.1713 54.0376 54.0283C53.9802 53.9926 53.8943 53.9446 53.8465 53.9215C53.7987 53.8984 53.7359 53.861 53.7073 53.8386C53.6785 53.8161 53.569 53.751 53.4638 53.6937C53.1936 53.5467 53.1062 53.4962 53.0465 53.4516C53.018 53.4304 52.9084 53.3658 52.8033 53.3081C52.6979 53.2505 52.5571 53.1703 52.4903 53.13C52.4233 53.0895 52.2512 52.989 52.1076 52.9062C51.9643 52.8237 51.8208 52.7402 51.7886 52.7209C51.7565 52.7016 51.6269 52.6258 51.5005 52.5523L51.2708 52.4186L51.3832 52.2198C51.5983 51.8404 51.6559 51.7073 51.7728 51.3213C52.1076 50.2157 52.0094 48.9259 51.5157 47.9487L51.4097 47.7387L51.4969 47.5301C51.6851 47.0804 51.7354 46.7586 51.7141 46.1428C51.6858 45.3258 51.4771 44.7304 51.0118 44.1384C50.8318 43.9094 50.8021 43.8542 50.8497 43.8376C50.8819 43.8264 50.9705 43.7775 51.0471 43.7288C51.1237 43.6803 51.2449 43.6134 51.3167 43.5802C51.3882 43.5468 51.4471 43.5078 51.4471 43.4931C51.4471 43.4784 51.4642 43.4662 51.485 43.4662C51.5061 43.4662 51.5647 43.437 51.6154 43.4013C51.6664 43.3656 51.7782 43.297 51.8644 43.2487C51.9503 43.2006 52.0755 43.1293 52.1425 43.0902C52.643 42.7984 52.9524 42.6265 52.9771 42.6265C52.9929 42.6265 53.0113 42.6139 53.0175 42.5983C53.024 42.5826 53.1231 42.5167 53.2379 42.4516C53.3526 42.3867 53.7655 42.148 54.1557 41.9211C54.5456 41.6944 54.882 41.5195 54.9033 41.5323C54.9245 41.5453 55.0381 41.6205 55.1557 41.6996ZM33.9904 52.9025C33.5998 53.1338 33.2733 53.3207 33.1646 53.375C33.1214 53.3966 33.0863 53.4275 33.0863 53.4437C33.0863 53.4598 33.0686 53.4731 33.0469 53.4731C33.0141 53.4731 32.76 53.6154 32.0467 54.0334C31.9968 54.0626 31.8389 54.1539 31.6953 54.2364C31.552 54.3187 31.3796 54.4192 31.3129 54.4595C31.2459 54.4998 31.105 54.58 30.9999 54.6378C30.8945 54.6953 30.785 54.7599 30.7564 54.7814C30.6967 54.8257 30.6093 54.8765 30.3391 55.0234C30.234 55.0805 30.1244 55.1448 30.0956 55.1662C30.067 55.1876 30.0061 55.2262 29.9604 55.252C29.9149 55.2779 29.821 55.3316 29.7518 55.3715C29.6827 55.4114 29.5872 55.4657 29.5394 55.4924C29.4916 55.5191 29.3898 55.5799 29.3132 55.6274C29.2368 55.6748 29.143 55.7288 29.1046 55.7473C29.0664 55.7659 28.9725 55.8203 28.8959 55.8684C28.8196 55.9163 28.6981 55.9878 28.6266 56.0271C28.4778 56.1086 28.4753 56.1207 28.5533 56.3796C28.6305 56.6359 28.632 57.2399 28.556 57.4884C28.5005 57.6696 28.5007 57.6732 28.5761 57.7213C28.6766 57.7857 32.6645 60.0985 32.9123 60.2363C33.0175 60.2948 33.1633 60.3803 33.2364 60.426C33.3094 60.472 33.4266 60.5419 33.4972 60.5814C33.6205 60.6505 34.2449 61.0111 34.3662 61.0833C34.3985 61.1026 34.5425 61.186 34.6858 61.2687C34.8294 61.3512 35.0015 61.452 35.0685 61.4923C35.1352 61.5326 35.2761 61.6128 35.3814 61.6705C35.4866 61.728 35.5961 61.7927 35.6247 61.8141C35.6535 61.8353 35.7142 61.8739 35.7599 61.9C35.9896 62.0299 36.1035 62.0958 36.1985 62.1534C36.2559 62.188 36.342 62.2384 36.3898 62.2653C36.4376 62.2919 36.5394 62.3505 36.6158 62.3952C36.6923 62.4399 36.7942 62.4985 36.8419 62.5252C36.8897 62.5518 36.9913 62.6125 37.0679 62.6597C37.1445 62.7072 37.2657 62.7731 37.3375 62.8063C37.409 62.8394 37.4679 62.8787 37.4679 62.8934C37.4679 62.9081 37.485 62.92 37.5058 62.92C37.5269 62.92 37.5856 62.9492 37.6363 62.9851C37.731 63.0517 37.9692 63.1892 38.2154 63.3189C38.292 63.3594 38.3623 63.4014 38.3719 63.4125C38.3999 63.4453 38.9678 63.7598 38.9987 63.7598C39.0141 63.7598 39.0321 63.7724 39.0383 63.7877C39.0552 63.8282 39.6125 64.1448 39.6657 64.1439C39.6904 64.1437 39.749 64.1028 39.7959 64.053C40.034 63.8009 40.5602 63.5175 40.9539 63.4298L41.0495 63.4086V59.4983V55.5881L40.8379 55.433C40.6021 55.2604 40.305 54.9749 40.0916 54.7163C39.951 54.5456 39.951 54.5456 39.8135 54.583C39.0496 54.791 38.9887 54.8026 38.6584 54.8026C37.8847 54.8026 37.0187 54.487 36.4991 54.0162C36.143 53.6935 35.9669 53.4764 35.7403 53.0809L35.5838 52.8082L35.1957 52.808C34.9823 52.808 34.7528 52.7937 34.6858 52.7763C34.3597 52.6917 34.3403 52.6953 33.9904 52.9025ZM49.3606 53.3444C48.8044 53.6744 48.2281 53.8222 47.4953 53.8226L47.073 53.823L46.9956 53.9891C46.6503 54.7297 45.976 55.4183 45.2476 55.7743C44.779 56.0034 44.6951 56.0359 44.3183 56.1344C43.9966 56.2186 43.2982 56.274 43.0178 56.2375C42.5621 56.1785 42.2529 56.1258 42.197 56.0979C42.1684 56.0836 42.1019 56.0615 42.0491 56.0489L41.9533 56.0258L41.9623 59.7238L41.9711 63.4218L42.1624 63.4663C42.4829 63.5408 42.9959 63.829 43.2073 64.053C43.3089 64.1609 43.356 64.1656 43.4783 64.0803C43.5292 64.0451 43.5941 64.006 43.6229 63.9936C43.6515 63.9812 43.7376 63.9323 43.814 63.8847C43.8906 63.8372 43.9924 63.7766 44.0402 63.7499C44.1656 63.6796 44.3888 63.5498 44.5096 63.4768C44.567 63.4421 44.653 63.3918 44.7008 63.3649C44.7487 63.3382 44.8464 63.2824 44.9182 63.2406C44.9899 63.199 45.1072 63.1319 45.179 63.0913C45.2507 63.0506 45.325 63.0057 45.3442 62.991C45.3632 62.9763 45.4494 62.9251 45.5353 62.8772C45.6215 62.8291 45.7467 62.758 45.8137 62.7189C46.3142 62.4271 46.6236 62.2552 46.6482 62.2552C46.6641 62.2552 46.6825 62.2424 46.6887 62.2264C46.6952 62.2107 46.8256 62.1267 46.9785 62.0398C47.3113 61.8511 54.2807 57.8099 54.3963 57.7387C54.4614 57.6988 54.4728 57.669 54.4561 57.5842C54.3527 57.0591 54.3522 56.6674 54.4551 56.3279C54.4837 56.2335 54.5071 56.1445 54.5071 56.1304C54.5071 56.1163 54.2953 55.9809 54.0364 55.8298C53.7774 55.6786 53.5389 55.539 53.5062 55.5197C53.4734 55.5004 53.3293 55.417 53.1857 55.3343C53.0424 55.2518 52.87 55.1511 52.8033 55.1105C52.7363 55.07 52.5798 54.9816 52.4555 54.914C52.3311 54.8467 52.164 54.7465 52.0841 54.6919C52.0042 54.6374 51.9303 54.5926 51.9199 54.5926C51.9096 54.5926 51.7819 54.5219 51.6363 54.4352C51.4909 54.3487 51.3574 54.2777 51.3398 54.2777C51.3223 54.2777 51.3079 54.2649 51.3079 54.2494C51.3079 54.2336 51.253 54.1992 51.1863 54.1728C51.1193 54.1463 51.0644 54.1119 51.0644 54.0964C51.0644 54.0806 51.0481 54.0678 51.0281 54.0678C51.0081 54.0678 50.9102 54.0157 50.8107 53.9519C50.7112 53.8881 50.5789 53.8134 50.5167 53.7859C50.4545 53.7584 50.4038 53.7269 50.4038 53.716C50.4038 53.705 50.349 53.6744 50.282 53.6479C50.215 53.6215 50.1604 53.5889 50.1604 53.5753C50.1604 53.5617 50.1017 53.5253 50.03 53.4943C49.9008 53.4382 49.8478 53.4082 49.6684 53.2894C49.5557 53.2146 49.5889 53.2088 49.3606 53.3444ZM34.9189 53.4223L35.2039 53.4449L35.37 53.6952C35.5166 53.916 36.0422 54.4837 36.2333 54.6279C36.4791 54.8133 37.0969 55.1525 37.1889 55.1525C37.2089 55.1525 37.2526 55.1676 37.2857 55.1863C37.7041 55.42 38.9755 55.4903 39.5593 55.3123L39.7208 55.2629L39.8731 55.4265C39.9568 55.5163 40.115 55.6667 40.2245 55.7603L40.4235 55.9307V59.4221V62.9135L40.1715 63.0372C40.0327 63.1054 39.8456 63.2104 39.7552 63.2706L39.591 63.3802L39.3204 63.2259C39.1717 63.1411 37.4539 62.1456 35.5031 61.0134C33.5522 59.8813 31.8113 58.8711 31.6342 58.7686C31.2567 58.5499 30.6863 58.2186 30.5129 58.1176C30.4459 58.0786 30.3208 58.0074 30.2348 57.9595C30.1486 57.9115 30.0627 57.8602 30.0435 57.8458C30.0245 57.8311 29.95 57.7859 29.8784 57.7454C29.8067 57.7049 29.6892 57.6377 29.6176 57.5964C29.5458 57.555 29.4292 57.4895 29.3585 57.4509L29.2297 57.3805L29.2366 57.0625C29.2406 56.8876 29.2316 56.6737 29.2168 56.587L29.1899 56.4293L30.9648 55.3973C31.9411 54.8296 32.7669 54.3495 32.8001 54.3302C32.833 54.3109 32.9776 54.2274 33.121 54.1448C33.2645 54.0621 33.4367 53.9614 33.5036 53.9208C33.5704 53.8803 33.7269 53.7919 33.8512 53.7241C33.9756 53.6565 34.0851 53.5917 34.0947 53.5801C34.1043 53.5686 34.1513 53.5392 34.199 53.5146C34.2468 53.4903 34.3251 53.4472 34.3728 53.4193C34.4208 53.3912 34.4991 53.3752 34.5469 53.3838C34.5946 53.3924 34.762 53.4097 34.9189 53.4223ZM51.7016 55.2046C53.3428 56.1562 53.8075 56.4405 53.7889 56.4816C53.776 56.5108 53.7624 56.7184 53.7589 56.9428C53.752 57.391 53.7509 57.3938 53.516 57.5176C53.2698 57.6476 53.0317 57.7851 52.937 57.8516C52.8861 57.8873 52.8275 57.9167 52.8066 57.9167C52.7855 57.9167 52.7684 57.9287 52.7684 57.9434C52.7684 57.9581 52.7098 57.9973 52.638 58.0305C52.5662 58.0637 52.445 58.1296 52.3684 58.1768C52.2921 58.2243 52.1903 58.2847 52.1425 58.3114C52.0947 58.3383 51.9929 58.3966 51.9165 58.4415C51.8399 58.4863 51.7383 58.5448 51.6903 58.5715C51.6426 58.5984 51.5566 58.6485 51.4992 58.6834C51.4041 58.7409 51.2902 58.8066 51.0607 58.9368C51.015 58.9626 50.954 59.0012 50.9255 59.0226C50.8967 59.044 50.7871 59.1087 50.682 59.1662C50.5768 59.224 50.436 59.3042 50.369 59.3445C50.2678 59.4053 50.0469 59.5338 49.6646 59.7534C49.631 59.7727 48.2108 60.5969 46.5087 61.5849L43.414 63.3811L43.1968 63.2438C43.0773 63.1684 42.8895 63.0655 42.7796 63.0153L42.5797 62.9238V59.8802V56.8366L43.0752 56.8566C43.7502 56.8841 44.5255 56.7841 44.8921 56.6227C44.9303 56.6057 45.1103 56.5276 45.2921 56.4489C45.6271 56.3036 46.0455 56.0605 46.2883 55.8699C46.4592 55.7357 47.1002 55.0862 47.1002 55.0471C47.1002 55.0308 47.1204 54.9968 47.1448 54.9714C47.1928 54.9216 47.381 54.6111 47.4188 54.5194C47.4371 54.4747 47.5208 54.4593 47.8361 54.4427C48.3671 54.415 49.0143 54.2486 49.3779 54.0466C49.5618 53.9446 49.3268 53.8274 51.7016 55.2046Z" fill="#FCFCFC"/>
<path fill-rule="evenodd" clip-rule="evenodd" d="M41.1715 28.5831C40.7742 28.687 40.4525 28.9011 40.1965 29.232C39.8604 29.6665 39.8574 30.5967 40.1909 31.0374C40.7661 31.798 41.759 31.9386 42.506 31.3655C43.352 30.7162 43.1985 29.2183 42.2379 28.7508C42.1296 28.6981 42.0111 28.6402 41.9748 28.6221C41.9005 28.585 41.2789 28.5547 41.1715 28.5831ZM25.6969 37.5529C23.9556 38.0653 24.2859 40.6177 26.0969 40.6441C27.1752 40.6599 27.9294 39.6618 27.6229 38.6244C27.5827 38.4875 27.5395 38.3678 27.5274 38.3582C27.5151 38.3485 27.4817 38.2948 27.4529 38.2389C27.1735 37.6927 26.335 37.365 25.6969 37.5529ZM56.4399 37.5585C55.7743 37.7452 55.3065 38.3737 55.3074 39.0808C55.309 40.5056 57.0435 41.1914 58.0235 40.155C58.3398 39.8203 58.4193 39.5997 58.4193 39.0579C58.4193 38.4738 58.3133 38.2463 57.8455 37.8256C57.523 37.5354 56.9265 37.4221 56.4399 37.5585ZM40.1107 40.5492C38.8966 40.7757 37.8749 41.4719 37.4722 42.3469C37.4411 42.4143 37.408 42.4773 37.3984 42.4869C37.371 42.5144 37.2246 42.8354 37.2246 42.8675C37.2246 42.8837 37.3487 42.907 37.5004 42.9198C37.95 42.9576 38.4618 43.105 38.8255 43.3014C39.1589 43.4816 39.1539 43.4782 39.4399 43.7129L39.6559 43.8901L39.8051 43.8471C39.8873 43.8236 39.9699 43.7931 39.9891 43.7795C40.0083 43.766 40.1139 43.7289 40.2238 43.6972C40.4508 43.6317 40.4475 43.6401 40.3551 43.3642C40.1706 42.8134 40.1957 42.4869 40.422 42.4869C40.5666 42.4869 40.6188 42.5581 40.6442 42.7903C40.6659 42.9884 40.7734 43.3785 40.8385 43.4956C40.865 43.5431 40.938 43.5548 41.247 43.5607C41.8056 43.5714 42.1815 43.6646 42.7015 43.9218C43.1432 44.1401 43.1503 44.1454 43.5978 44.5963C43.9342 44.9354 44.0403 45.0072 44.0403 44.8961C44.0403 44.8455 44.2607 44.3962 44.2924 44.382C44.3068 44.3757 44.3191 44.352 44.3199 44.3295C44.3274 44.1141 44.8651 43.6166 45.0093 43.6915C45.1706 43.7755 45.153 43.8813 44.9321 44.1594C44.7283 44.416 44.5411 44.7263 44.4424 44.971C44.3268 45.2578 44.2509 45.5435 44.2801 45.5813C44.342 45.6611 44.461 46.1232 44.4983 46.4284L44.5375 46.7496L44.7671 46.8271C45.8921 47.2066 46.7851 48.2428 46.996 49.4136C47.0624 49.7821 47.0336 49.7644 47.5683 49.7644C47.8245 49.7644 48.1125 49.7464 48.2082 49.7241C48.4144 49.6763 48.5608 49.7416 48.5608 49.8812C48.5608 50.1005 48.2938 50.1814 47.5612 50.183L47.0657 50.1843V50.3155C47.0655 50.4795 46.9824 50.8949 46.8854 51.2155C46.8205 51.4298 46.8166 51.4808 46.8529 51.6354C46.952 52.0571 46.9672 52.2139 46.9476 52.6084L46.9269 53.0203L47.016 53.0545C47.0649 53.0732 47.2837 53.0885 47.502 53.0885C49.062 53.0885 50.3652 51.9683 50.5757 50.4465C50.6383 49.9926 50.5803 49.1474 50.477 49.0143C50.4612 48.994 50.438 48.9335 50.4253 48.88C50.3279 48.4704 49.6738 47.6363 49.2725 47.4105C49.0779 47.3009 49.1709 47.0055 49.4017 47.0009C49.4146 47.0007 49.4459 47.02 49.4712 47.0441C49.95 47.4997 49.9926 47.5093 50.1501 47.1965C50.6102 46.2829 50.345 45.22 49.4931 44.5636C49.1377 44.29 48.3514 44.1513 47.932 44.2883C47.5477 44.4139 47.2174 44.5787 47.0717 44.7172C46.9681 44.8163 46.7527 44.7046 46.7527 44.5518C46.7527 44.4137 47.4125 43.9545 47.609 43.956C47.6307 43.9562 47.6647 43.9365 47.6847 43.9121C47.7211 43.8681 47.7158 43.8223 47.6176 43.3266C47.5798 43.136 47.354 42.5919 47.3127 42.5919C47.3008 42.5919 47.2714 42.5467 47.2472 42.4915C47.1955 42.3742 46.8735 42.0301 46.6459 41.8491C45.6914 41.09 44.2688 41.0753 43.3472 41.8153C43.0149 42.0822 42.647 42.4922 42.5878 42.6618C42.5149 42.8702 42.2827 42.9374 42.1801 42.7796C42.1217 42.6899 42.2183 42.3469 42.3019 42.3469C42.3146 42.3469 42.3428 42.308 42.3643 42.2606C42.4148 42.1491 42.5427 42.0005 42.8217 41.7291L43.0459 41.5109L42.9458 41.4173C42.6065 41.1011 41.9858 40.7709 41.4323 40.6124C41.2445 40.5585 40.3019 40.5135 40.1107 40.5492ZM36.8073 43.2943C36.6447 43.3096 36.449 43.3405 36.3727 43.3628C36.0837 43.4465 35.6249 43.622 35.6249 43.6487C35.6249 43.664 35.609 43.6764 35.5894 43.6764C35.4052 43.6764 34.547 44.5073 34.547 44.6855C34.547 44.7078 34.5324 44.7261 34.5149 44.7261C34.4971 44.7261 34.464 44.7853 34.4408 44.8573C34.4177 44.9295 34.3872 45.0042 34.373 45.0235C34.3148 45.1029 34.2593 45.4562 34.2555 45.7717L34.2514 46.1083L34.3757 46.0973C34.4442 46.0915 34.6 46.0658 34.7223 46.0404C35.0392 45.9747 35.1938 46.1038 35.0546 46.3178C34.9952 46.4091 34.9893 46.411 34.5906 46.4758C34.4519 46.4985 34.3309 46.5294 34.3215 46.5447C34.3121 46.56 34.2491 46.5829 34.1817 46.5957C34.0667 46.6175 33.7158 46.7756 33.6776 46.8231C33.668 46.8348 33.6133 46.8745 33.556 46.9112C32.4925 47.5908 32.0781 49.1913 32.6452 50.4293C33.1239 51.4743 34.324 52.1772 35.4267 52.0584L35.6457 52.0347L35.6449 51.4332C35.6439 50.6938 35.7799 50.1616 36.0824 49.7241C36.1356 49.6471 36.1701 49.5199 36.1379 49.5194C36.1331 49.5194 36.0155 49.4726 35.8765 49.4157C35.4135 49.226 34.6745 49.2012 34.2908 49.3624C34.0363 49.4695 33.8862 49.4164 33.8862 49.2195C33.8862 49.084 33.9161 49.0586 34.1825 48.9673C34.8022 48.7547 35.5687 48.8107 36.2235 49.116C36.4263 49.2106 36.516 49.2043 36.5884 49.0906C36.6399 49.0095 37.0147 48.7299 37.2198 48.6193C37.3483 48.55 37.4914 48.5643 37.553 48.6526C37.6539 48.7979 37.5987 48.8821 37.2832 49.062C36.0545 49.7632 35.6524 51.6639 36.4722 52.896C37.2208 54.0212 38.6283 54.3691 39.8574 53.7328C40.1909 53.5602 40.247 53.5648 40.3546 53.7737C40.6724 54.389 41.3801 55.027 41.9842 55.2426C42.0726 55.2743 42.1763 55.3136 42.2147 55.3302C42.6024 55.4979 43.6971 55.5489 44.1271 55.4192C45.3909 55.0382 46.1074 54.3966 46.4742 53.318C46.6125 52.9109 46.6351 51.9066 46.5088 51.7794C46.4898 51.7605 46.4744 51.7193 46.4744 51.6881C46.4744 51.6257 46.1717 50.9829 46.1289 50.9543C46.1143 50.9447 46.0832 50.9 46.0596 50.855C45.9816 50.7062 45.7385 50.4415 45.4343 50.1742C45.2192 49.9853 45.248 49.7693 45.489 49.7657C45.644 49.7634 46.1781 50.2815 46.4337 50.6823C46.5902 50.9279 46.5958 50.9285 46.6513 50.7005C46.9614 49.4292 46.0748 47.6588 44.9352 47.2732C44.8735 47.2524 44.8071 47.2234 44.7879 47.2091C44.6629 47.1151 43.791 47.0471 43.4075 47.1012C42.8569 47.1791 42.3094 47.4451 41.8944 47.8364C41.6653 48.0526 41.4323 48.0426 41.4323 47.8163C41.4323 47.6433 42.0372 47.1487 42.4978 46.9448C42.6099 46.8953 42.7328 46.8401 42.771 46.822C42.9379 46.7435 43.3593 46.674 43.7549 46.66C44.133 46.6465 44.1803 46.6379 44.166 46.5865C44.157 46.5544 44.1309 46.4103 44.108 46.2667C43.7343 43.9291 40.6782 43.1207 38.9565 44.9039C38.6732 45.1971 38.5953 45.2307 38.4764 45.1111C38.3304 44.9639 38.6392 44.5394 39.1441 44.1932C39.3442 44.0559 39.3433 44.0696 39.1618 43.9363C38.5826 43.511 37.7182 43.2206 37.1551 43.2622C37.1263 43.2643 36.9698 43.2788 36.8073 43.2943ZM37.4048 46.4685C37.7151 46.7872 38.4416 46.9576 38.9002 46.8193C39.085 46.7637 39.1914 46.8621 39.176 47.0752C39.1639 47.2444 38.4505 47.341 38.0243 47.2308C37.6064 47.1229 37.1257 46.8394 37.0184 46.6377C36.9003 46.4158 37.2181 46.2766 37.4048 46.4685ZM48.1002 46.4985C48.2654 46.6801 48.134 46.8453 47.8525 46.8101C47.5767 46.7754 47.1406 46.8968 46.9555 47.0599C46.8731 47.1325 46.754 47.1038 46.6712 46.9916L46.6 46.8955L46.6705 46.7991C46.9226 46.4551 47.8777 46.2542 48.1002 46.4985ZM40.5099 47.5312C40.6534 47.5971 40.6586 47.7149 40.5264 47.9002C40.3853 48.098 40.2151 48.4282 40.2151 48.5044C40.2151 48.5355 40.1959 48.5804 40.1721 48.6041C40.0757 48.7013 40.0932 49.6085 40.1975 49.9196C40.5191 50.8777 41.2533 51.3914 42.3015 51.3914C43.0303 51.3914 43.3775 51.2401 43.925 50.6829C44.1221 50.4822 44.3533 50.5168 44.3533 50.7469C44.3533 50.8914 43.7975 51.3811 43.4057 51.5818C43.3105 51.6305 43.2826 51.7147 43.3403 51.7781C43.4641 51.9135 43.5809 52.8475 43.4883 52.9605C43.3322 53.1507 43.1532 52.9966 43.1219 52.6449C43.0985 52.3821 43.0318 52.0844 42.9544 51.8982L42.9176 51.8102H42.3228C41.3096 51.8102 40.6488 51.4657 40.108 50.6558C39.9134 50.3642 39.9326 50.3747 39.7239 50.4471C39.3538 50.576 39.0179 50.8015 38.7545 51.0979C38.3318 51.5741 38.3627 51.5541 38.2202 51.4414C38.1219 51.3635 38.1 51.2346 38.1722 51.1578C38.196 51.1324 38.2582 51.0543 38.3101 50.9841C38.4627 50.7786 38.6853 50.5727 38.9459 50.3961C39.1718 50.2429 39.291 50.1799 39.6348 50.0311L39.7671 49.9735L39.7391 49.8079C39.673 49.4183 39.708 48.6799 39.8051 48.4175C39.9901 47.9168 40.2284 47.5547 40.4135 47.4925C40.4172 47.4913 40.4606 47.5087 40.5099 47.5312ZM25.8186 55.385C24.3697 55.6694 24.0843 57.6646 25.3938 58.3536C26.2855 58.8228 27.3878 58.319 27.6402 57.3268C27.9203 56.2276 26.9259 55.1677 25.8186 55.385ZM56.5763 55.3869C55.6452 55.6014 55.0989 56.531 55.3819 57.4196C55.8142 58.7779 57.6517 58.9219 58.2841 57.6472L58.4193 57.3745V56.9372C58.4193 55.9249 57.5209 55.1692 56.5763 55.3869ZM41.0922 64.3567C40.1481 64.6021 39.6538 65.6901 40.0872 66.57C40.6893 67.793 42.3679 67.7532 42.951 66.5015C43.1384 66.0995 43.0679 65.3301 42.8125 64.9925C42.3779 64.4175 41.7503 64.1856 41.0922 64.3567Z" fill="#FC5CAC"/>
<path d="M78.62 47.448C79.316 47.676 79.868 48.06 80.276 48.6C80.684 49.128 80.888 49.788 80.888 50.58C80.888 51.672 80.468 52.518 79.628 53.118C78.788 53.706 77.564 54 75.956 54H69.692V41.4H75.596C77.084 41.4 78.23 41.694 79.034 42.282C79.838 42.858 80.24 43.656 80.24 44.676C80.24 45.3 80.096 45.852 79.808 46.332C79.52 46.812 79.124 47.184 78.62 47.448ZM72.032 43.236V46.71H75.344C76.16 46.71 76.784 46.566 77.216 46.278C77.66 45.978 77.882 45.546 77.882 44.982C77.882 44.406 77.66 43.974 77.216 43.686C76.784 43.386 76.16 43.236 75.344 43.236H72.032ZM75.812 52.164C77.624 52.164 78.53 51.558 78.53 50.346C78.53 49.134 77.624 48.528 75.812 48.528H72.032V52.164H75.812ZM85.3114 45.792C85.9594 44.784 87.0994 44.28 88.7314 44.28V46.422C88.5394 46.386 88.3654 46.368 88.2094 46.368C87.3334 46.368 86.6494 46.626 86.1574 47.142C85.6654 47.646 85.4194 48.378 85.4194 49.338V54H83.1694V44.388H85.3114V45.792ZM94.2593 44.28C95.6753 44.28 96.7553 44.622 97.4993 45.306C98.2553 45.978 98.6333 46.998 98.6333 48.366V54H96.5093V52.83C96.2333 53.25 95.8373 53.574 95.3213 53.802C94.8173 54.018 94.2053 54.126 93.4853 54.126C92.7653 54.126 92.1353 54.006 91.5953 53.766C91.0553 53.514 90.6353 53.172 90.3353 52.74C90.0473 52.296 89.9033 51.798 89.9033 51.246C89.9033 50.382 90.2213 49.692 90.8573 49.176C91.5053 48.648 92.5193 48.384 93.8993 48.384H96.3833V48.24C96.3833 47.568 96.1793 47.052 95.7713 46.692C95.3753 46.332 94.7813 46.152 93.9893 46.152C93.4493 46.152 92.9153 46.236 92.3873 46.404C91.8713 46.572 91.4333 46.806 91.0733 47.106L90.1913 45.468C90.6953 45.084 91.3013 44.79 92.0093 44.586C92.7173 44.382 93.4673 44.28 94.2593 44.28ZM93.9533 52.488C94.5173 52.488 95.0153 52.362 95.4473 52.11C95.8913 51.846 96.2033 51.474 96.3833 50.994V49.878H94.0613C92.7653 49.878 92.1173 50.304 92.1173 51.156C92.1173 51.564 92.2793 51.888 92.6033 52.128C92.9273 52.368 93.3773 52.488 93.9533 52.488ZM101.521 44.388H103.771V54H101.521V44.388ZM102.655 42.804C102.247 42.804 101.905 42.678 101.629 42.426C101.353 42.162 101.215 41.838 101.215 41.454C101.215 41.07 101.353 40.752 101.629 40.5C101.905 40.236 102.247 40.104 102.655 40.104C103.063 40.104 103.405 40.23 103.681 40.482C103.957 40.722 104.095 41.028 104.095 41.4C104.095 41.796 103.957 42.132 103.681 42.408C103.417 42.672 103.075 42.804 102.655 42.804ZM112.178 44.28C113.39 44.28 114.362 44.634 115.094 45.342C115.826 46.05 116.192 47.1 116.192 48.492V54H113.942V48.78C113.942 47.94 113.744 47.31 113.348 46.89C112.952 46.458 112.388 46.242 111.656 46.242C110.828 46.242 110.174 46.494 109.694 46.998C109.214 47.49 108.974 48.204 108.974 49.14V54H106.724V44.388H108.866V45.63C109.238 45.186 109.706 44.85 110.27 44.622C110.834 44.394 111.47 44.28 112.178 44.28ZM119.262 41.4H124.77C126.114 41.4 127.308 41.664 128.352 42.192C129.396 42.708 130.206 43.446 130.782 44.406C131.358 45.354 131.646 46.452 131.646 47.7C131.646 48.948 131.358 50.052 130.782 51.012C130.206 51.96 129.396 52.698 128.352 53.226C127.308 53.742 126.114 54 124.77 54H119.262V41.4ZM124.662 52.02C125.586 52.02 126.396 51.846 127.092 51.498C127.8 51.138 128.34 50.634 128.712 49.986C129.096 49.326 129.288 48.564 129.288 47.7C129.288 46.836 129.096 46.08 128.712 45.432C128.34 44.772 127.8 44.268 127.092 43.92C126.396 43.56 125.586 43.38 124.662 43.38H121.602V52.02H124.662ZM142.13 51.084H135.83L134.588 54H132.176L137.846 41.4H140.15L145.838 54H143.39L142.13 51.084ZM141.356 49.248L138.98 43.74L136.622 49.248H141.356ZM153.15 54.18C151.866 54.18 150.708 53.904 149.676 53.352C148.644 52.788 147.834 52.014 147.246 51.03C146.658 50.034 146.364 48.924 146.364 47.7C146.364 46.476 146.658 45.372 147.246 44.388C147.834 43.392 148.644 42.618 149.676 42.066C150.708 41.502 151.866 41.22 153.15 41.22C154.434 41.22 155.592 41.502 156.624 42.066C157.656 42.618 158.466 43.386 159.054 44.37C159.642 45.354 159.936 46.464 159.936 47.7C159.936 48.936 159.642 50.046 159.054 51.03C158.466 52.014 157.656 52.788 156.624 53.352C155.592 53.904 154.434 54.18 153.15 54.18ZM153.15 52.128C153.99 52.128 154.746 51.942 155.418 51.57C156.09 51.186 156.618 50.658 157.002 49.986C157.386 49.302 157.578 48.54 157.578 47.7C157.578 46.86 157.386 46.104 157.002 45.432C156.618 44.748 156.09 44.22 155.418 43.848C154.746 43.464 153.99 43.272 153.15 43.272C152.31 43.272 151.554 43.464 150.882 43.848C150.21 44.22 149.682 44.748 149.298 45.432C148.914 46.104 148.722 46.86 148.722 47.7C148.722 48.54 148.914 49.302 149.298 49.986C149.682 50.658 150.21 51.186 150.882 51.57C151.554 51.942 152.31 52.128 153.15 52.128Z" fill="white"/>
<g clip-path="url(#clip0_4524_5487)">
<path d="M19.8699 45.2278C21.1369 45.1944 22.4059 45.1945 23.6706 45.1214C28.0046 44.8712 32.1645 43.7595 36.3014 42.5342C40.3568 41.333 44.1894 39.6393 47.7853 37.4106C49.5915 36.2911 50.4611 34.1449 49.9043 32.0985C49.4795 30.5372 49.0253 28.9839 48.5406 27.4034C48.3438 27.5832 48.2253 27.8309 48.0316 27.9827C47.0685 28.7372 46.1293 29.5352 45.0999 30.1894C43.3701 31.2887 41.5203 32.1728 39.5806 32.8478C37.955 33.4135 36.3176 33.9455 34.6475 34.505C33.747 34.7322 32.8845 34.9468 31.9837 35.1744C30.8792 35.4285 29.813 35.6697 28.709 35.9224C27.8828 36.0966 27.0942 36.2593 26.2699 36.4345C25.1419 36.6301 24.0532 36.8382 22.9567 36.9908C21.0319 37.2586 19.6391 38.2308 18.9103 40.0444C18.3745 41.3776 18.4153 42.7247 19.0867 44.0141C19.3081 44.4393 19.6067 44.8244 19.8699 45.2278Z" fill="#CCCCFF"/>
<path d="M34.251 14.3484C33.198 13.1808 31.9085 12.3381 30.4917 11.6961C27.566 10.3702 24.5437 10.1397 21.4491 11.0124C20.1296 11.3845 18.7876 11.689 17.5585 12.3389C15.4831 13.4364 14.0113 15.1472 12.7226 17.046C12.1319 17.9161 11.6824 18.8572 11.4315 19.8838C11.2316 20.7019 11.2027 21.5233 11.4746 22.3691C13.7576 21.9112 15.1905 20.15 15.1561 17.8951C15.1404 16.8661 15.6409 15.994 16.2997 15.234C17.5264 13.8188 19.151 13.0181 20.8809 12.436C21.8927 12.0955 22.9503 11.8906 23.9889 11.631C24.4401 11.5181 24.7582 11.6997 24.9767 12.2045C25.1055 12.6492 25.221 13.0567 25.3368 13.4654C24.8986 13.6242 24.5156 13.7631 24.1269 13.9039C24.019 13.6712 23.9291 13.4771 23.8061 13.293C23.3807 13.4734 22.9883 13.6439 22.5958 13.8144C22.6844 14.021 22.7729 14.2276 22.871 14.4563C22.4065 14.7482 21.9551 15.032 21.5372 15.3364C21.8072 15.2585 22.0397 15.1486 22.2808 15.063C23.6643 14.5723 24.9615 15.0004 26.2315 15.4915C26.7998 15.7113 26.9849 16.1658 26.7343 16.7236C26.4568 17.3409 26.1325 17.9701 25.6921 18.475C24.4173 19.9363 23.4885 21.5914 22.6981 23.3448C22.4601 23.8726 22.173 24.396 21.8161 24.8486C21.1452 25.6996 20.1774 25.6679 19.5593 24.7869C19.2768 24.3844 19.0531 23.9226 18.8936 23.4565C18.7055 22.9067 18.6157 22.3231 18.4832 21.7542C18.3264 23.1698 18.2044 24.5903 18.0032 25.9995C17.7956 27.453 17.511 28.8955 17.2893 30.3913C17.3749 30.4464 17.4322 30.4634 17.4874 30.4584C19.0159 30.3195 20.551 30.2284 22.0706 30.0231C23.506 29.8291 24.9271 29.5415 26.2991 29.0303C27.3652 28.6331 28.3557 28.1127 29.2686 27.4499C30.2485 26.7386 31.1376 25.9244 31.9248 24.8083C30.8348 24.8381 29.8504 24.8071 28.8791 24.9052C27.4499 25.0494 26.4278 23.86 26.791 22.7079C26.8229 22.6066 26.7893 22.4847 26.7862 22.3723C26.6882 22.3907 26.5902 22.4091 26.4712 22.4314C26.3514 22.0085 26.2325 21.5891 26.1015 21.1268C28.6627 20.4034 31.2197 20.2972 33.8527 20.8806C34.4585 19.3904 34.5343 17.8632 34.4469 16.321C34.4096 15.6619 34.3179 15.0058 34.251 14.3484Z" fill="#EA2335"/>
<path d="M26.8221 22.3567C26.789 22.4847 26.8226 22.6066 26.7907 22.7079C26.4275 23.86 27.4496 25.0494 28.8788 24.9051C29.8501 24.8071 30.8345 24.838 31.9246 24.8083C31.1373 25.9243 30.2483 26.7385 29.2683 27.4499C28.3554 28.1126 27.3649 28.633 26.2988 29.0303C24.9268 29.5415 23.5057 29.8291 22.0703 30.023C20.5507 30.2284 19.0157 30.3195 17.4872 30.4584C17.4319 30.4634 17.3746 30.4464 17.2911 30.4217C17.1961 30.6793 17.1281 30.9548 17.045 31.2919C20.0341 31.9685 23.0122 31.9223 25.9988 31.5159C28.974 31.1109 31.8496 30.3187 34.6805 29.1929C34.7794 29.3942 34.8648 29.5681 35.0028 29.7603C35.4504 29.6147 35.8454 29.451 36.2349 29.2559C36.1461 29.0347 36.0629 28.8448 35.97 28.6328C36.4042 28.4269 36.7932 28.2424 37.1849 28.0567C37.3174 28.2914 37.415 28.4642 37.5444 28.6215C37.9592 28.4024 38.3422 28.1986 38.7252 27.9948C38.649 27.8499 38.5501 27.7115 38.5065 27.5575C38.4857 27.484 38.57 27.3808 38.5991 27.2433C36.6638 25.6782 34.4053 25.0858 32.2601 24.9002C32.5479 24.2458 32.8686 23.5316 33.1746 22.8112C33.2555 22.6208 33.2908 22.4111 33.3471 22.2102C31.1729 21.6986 29.0112 21.8041 26.8221 22.3567Z" fill="#C12026"/>
<path d="M38.7454 28.023C38.3422 28.1984 37.9593 28.4022 37.5528 28.6532C37.6178 28.8859 37.7062 29.0715 37.8062 29.2814C37.357 29.4939 36.9547 29.6843 36.5408 29.8802C36.4293 29.66 36.3349 29.4735 36.2405 29.287C35.8454 29.4508 35.4504 29.6145 35.0209 29.7936C35.0563 30.0027 35.1262 30.1966 35.2133 30.4383C35.0305 30.5152 34.8456 30.593 34.6419 30.7158C36.0781 31.7608 35.8493 33.205 34.9919 34.1178C34.8819 34.2349 34.7876 34.3668 34.686 34.4918C36.3181 33.9449 37.9555 33.4129 39.5811 32.8473C41.5208 32.1723 43.3706 31.2882 45.1004 30.1889C46.1297 29.5347 47.069 28.7367 48.0321 27.9821C48.2257 27.8304 48.3443 27.5827 48.5234 27.3663C48.1199 25.4227 46.6287 24.2808 44.7532 24.4761C44.5385 24.4984 44.2963 24.6331 44.1409 24.7894C42.6537 26.2856 40.9906 27.5437 39.0996 28.5768C38.9892 28.4031 38.8774 28.2273 38.7454 28.023Z" fill="#EAEAFE"/>
<path d="M18.4759 21.7232C18.6146 22.3234 18.7044 22.9069 18.8925 23.4568C19.052 23.9228 19.2758 24.3846 19.5582 24.7872C20.1763 25.6681 21.1441 25.6999 21.815 24.8489C22.1719 24.3962 22.4591 23.8729 22.697 23.3451C23.4874 21.5917 24.4162 19.9366 25.691 18.4753C26.1314 17.9704 26.4558 17.3412 26.7332 16.7239C26.9839 16.1661 26.7988 15.7115 26.2305 15.4918C24.9604 15.0007 23.6632 14.5726 22.2797 15.0633C22.0386 15.1488 21.8062 15.2587 21.534 15.3693C19.7054 16.4915 18.5639 17.999 18.5408 20.1987C18.5355 20.6966 18.4943 21.1942 18.4759 21.7232Z" fill="#FF5867"/>
<path d="M26.306 36.422C27.0946 36.2592 27.8831 36.0965 28.7079 35.8928C29.024 35.4392 29.3921 35.0602 29.5648 34.6068C29.8907 33.7512 29.4828 33.0408 28.9168 32.4102C26.3367 32.9418 23.7364 33.2666 21.0954 33.1832C19.5379 33.134 17.9975 32.9665 16.4833 32.5795C16.3103 32.5353 16.0661 32.5501 15.9247 32.6433C15.5012 32.9225 15.1123 33.2542 14.6978 33.6176C14.6595 33.6876 14.6333 33.7054 14.6072 33.7231C14.6189 33.7324 14.6306 33.7417 14.6428 33.7714C14.7263 34.5289 14.8599 35.271 15.5511 35.6813C15.9377 35.9108 16.4087 36.0488 16.8582 36.1135C19.8147 36.5392 22.7826 36.6286 25.7596 36.3417C25.9375 36.3246 26.1237 36.3932 26.306 36.422Z" fill="#F5F9FC"/>
<path d="M26.2697 36.4348C26.1231 36.3935 25.937 36.3249 25.759 36.342C22.7821 36.6289 19.8141 36.5395 16.8576 36.1138C16.4081 36.0491 15.9371 35.9111 15.5505 35.6815C14.8594 35.2713 14.7258 34.5292 14.6242 33.7583C13.9558 34.576 13.7931 35.5325 14.0241 36.5598C14.1302 37.0319 14.2838 37.4932 14.4248 37.9907C14.2086 38.0628 14.0119 38.1283 13.792 38.2016C13.9118 38.6243 14.0307 39.0439 14.159 39.4967C14.3534 39.451 14.5552 39.4036 14.806 39.3446C15.039 40.167 15.2525 40.9937 15.5081 41.8071C16.0352 43.4848 17.1486 44.5869 18.8396 45.0826C19.1509 45.1739 19.4836 45.1923 19.8381 45.2362C19.6065 44.8246 19.3079 44.4395 19.0865 44.0143C18.4151 42.7249 18.3743 41.3778 18.9101 40.0446C19.6389 38.231 21.0317 37.2588 22.9565 36.991C24.053 36.8384 25.1418 36.6303 26.2697 36.4348Z" fill="#EAEAFE"/>
<path d="M15.9835 23.2769C16.0415 23.4819 16.0996 23.6869 16.1557 23.8848C15.0857 24.188 14.0613 24.5964 13 24.7507C11.4999 24.9687 10.2455 23.8647 10.0239 22.3577C9.75801 20.55 10.0545 18.8572 10.9835 17.2795C11.0048 17.2433 11.0159 17.2012 11.0479 17.1215C10.9168 17.0298 10.7809 16.9347 10.6093 16.8648C10.4272 17.3232 10.2236 17.64 9.69824 17.7461C8.42494 18.0034 7.70586 19.203 7.87459 20.5109C8.06329 20.7318 8.30246 20.9058 8.38472 21.136C8.66426 21.9182 8.31328 22.702 7.49031 23.3096C7.53249 23.5766 7.57122 23.8092 7.63342 24.0645C7.77527 24.3315 7.89364 24.5757 8.03885 24.8308C8.35789 25.0652 8.62289 25.3509 8.95023 25.4944C9.25754 25.629 9.39022 25.812 9.44666 26.1094C9.58801 26.8546 10.0023 27.4184 10.6536 27.7854C11.3038 28.1518 11.9932 28.2044 12.7149 27.9678C12.9158 27.902 13.1597 27.9672 13.3838 27.9723C13.5406 27.7212 13.7297 27.484 13.8461 27.2154C13.993 26.8764 14.2062 26.6884 14.5798 26.6559C14.8188 26.6352 15.0533 26.5624 15.3146 26.5078C15.425 26.7033 15.5416 26.9096 15.6457 27.0938C16.3897 26.8102 16.6619 26.2494 16.6998 25.5089C16.7367 24.7864 16.8243 24.0663 16.8965 23.3458C16.906 23.2511 16.9555 23.1605 16.9398 23.0437C16.5899 23.1053 16.2867 23.1911 15.9835 23.2769Z" fill="#CBCBFE"/>
<path d="M15.968 23.2411C16.2869 23.1908 16.5901 23.1049 16.9327 23.0115C17.0363 22.1665 17.1787 21.3265 17.1502 20.4922C17.061 17.8842 18.2726 15.9793 20.2819 14.4905C20.8964 14.0351 21.5654 13.6532 22.2331 13.2224C22.3678 13.4488 22.4606 13.6047 22.5744 13.7875C22.988 13.644 23.3804 13.4736 23.8 13.2581C23.7565 13.0333 23.6857 12.8534 23.5968 12.6272C24.0782 12.4652 24.5207 12.3163 24.9631 12.1674C24.7579 11.6998 24.4398 11.5183 23.9886 11.6311C22.95 11.8908 21.8924 12.0956 20.8807 12.4361C19.1507 13.0182 17.5261 13.8189 16.2994 15.2342C15.6406 15.9941 15.1401 16.8662 15.1558 17.8952C15.1902 20.1501 13.7573 21.9113 11.4894 22.4035C11.6021 23.1392 12.4573 23.5732 13.1502 23.3669C14.0063 23.1121 14.8683 22.8772 15.7855 22.6173C15.847 22.8342 15.8996 23.02 15.968 23.2411Z" fill="#C12026"/>
<path d="M34.2787 14.3565C34.3171 15.0059 34.4088 15.6619 34.4461 16.3211C34.5335 17.8633 34.4577 19.3904 33.882 20.8794C36.6852 21.628 39.1322 23.0776 41.3995 24.8626C41.6628 25.0699 41.8356 25.0988 42.0743 24.8432C42.3368 24.5621 42.6404 24.3195 42.9244 24.0582C42.9645 24.0213 42.9945 23.9734 43.0559 23.8977C42.3008 23.0913 41.5532 22.2895 40.8018 21.4912C39.2144 19.8048 37.6142 18.1302 36.0418 16.4298C35.4321 15.7705 34.8836 15.0546 34.2787 14.3565Z" fill="#C12026"/>
<path d="M13.3716 28.0002C13.159 27.9671 12.9151 27.9018 12.7142 27.9677C11.9925 28.2043 11.3031 28.1517 10.6529 27.7853C10.0015 27.4182 9.58729 26.8544 9.44593 26.1093C9.3895 25.8118 9.25682 25.6289 8.94951 25.4942C8.62216 25.3508 8.35717 25.0651 8.01655 24.8505C7.82646 25.036 7.69801 25.2257 7.53955 25.3856C7.36237 25.5644 7.11149 25.6514 6.94631 25.4234C6.82106 25.2506 6.72458 24.9704 6.77232 24.7767C6.87193 24.3725 7.14487 24.0753 7.60921 24.0418C7.57049 23.8091 7.53177 23.5765 7.45279 23.3189C6.45338 23.6771 6.03911 23.0687 6.01759 22.392C5.9907 21.5464 6.58214 20.4341 7.85241 20.4897C7.70514 19.2029 8.42421 18.0033 9.69752 17.746C10.2229 17.6398 10.4265 17.3231 10.579 16.8593C9.49005 16.2558 8.21203 16.7121 7.75623 17.8723C7.58395 18.3109 7.33974 18.5184 6.85574 18.5724C5.53726 18.7196 4.72161 20.2234 5.30064 21.4225C5.49685 21.8288 5.45028 22.1327 5.18721 22.4821C4.33797 23.61 4.75123 25.1137 6.05821 25.6359C6.47805 25.8036 6.68971 26.0346 6.73847 26.5037C6.87551 27.8223 8.373 28.664 9.56993 28.0942C9.99241 27.893 10.304 27.9315 10.6669 28.2075C11.5226 28.8581 12.5132 28.7776 13.3716 28.0002Z" fill="#E9E9FD"/>
<path d="M33.3758 22.2096C33.2901 22.4116 33.2547 22.6213 33.1739 22.8116C32.8679 23.5321 32.5472 24.2463 32.2593 24.9007C34.4045 25.0863 36.663 25.6787 38.6125 27.2176C39.2778 26.8441 39.9213 26.4489 40.6295 26.014C38.4211 24.2574 36.1125 22.8591 33.3758 22.2096Z" fill="#901A1C"/>
<path d="M34.6474 34.5049C34.787 34.3673 34.8813 34.2354 34.9913 34.1183C35.8487 33.2054 36.0775 31.7613 34.61 30.7353C33.2312 31.1471 31.8646 31.585 30.4558 32.0687C30.0097 33.632 30.3928 34.4142 31.8282 35.0132C31.9008 35.0435 31.9577 35.1111 32.0219 35.1614C32.8844 34.9468 33.7469 34.7322 34.6474 34.5049Z" fill="#F6FAFD"/>
<path d="M31.9842 35.174C31.9583 35.1109 31.9013 35.0432 31.8288 35.0129C30.3933 34.4139 30.0102 33.6317 30.4198 32.0855C29.9458 32.1637 29.4662 32.2705 28.9517 32.3937C29.4829 33.0406 29.8908 33.7509 29.5649 34.6065C29.3922 35.0599 29.0241 35.439 28.7457 35.881C29.8134 35.6693 30.8796 35.4281 31.9842 35.174Z" fill="#EAEAFE"/>
<path d="M14.6131 33.7003C14.633 33.7053 14.6591 33.6875 14.6892 33.6453C14.6685 33.6398 14.6439 33.6587 14.6131 33.7003Z" fill="#EAEAFE"/>
<path d="M24.9758 12.2049C24.52 12.3166 24.0775 12.4655 23.5961 12.6275C23.6851 12.8538 23.7558 13.0336 23.8323 13.2485C23.9281 13.4775 24.0181 13.6717 24.1259 13.9044C24.5146 13.7635 24.8976 13.6247 25.3358 13.4659C25.22 13.0572 25.1045 12.6497 24.9758 12.2049Z" fill="#050101"/>
<path d="M36.2348 29.2561C36.3348 29.4739 36.4293 29.6604 36.5407 29.8806C36.9547 29.6847 37.357 29.4943 37.8061 29.2818C37.7061 29.0719 37.6177 28.8863 37.5209 28.669C37.4149 28.4644 37.3174 28.2916 37.1849 28.0569C36.7932 28.2426 36.4041 28.4271 35.97 28.633C36.0628 28.845 36.146 29.0349 36.2348 29.2561Z" fill="#060405"/>
<path d="M7.87451 20.5108C6.58278 20.4341 5.99134 21.5464 6.01823 22.392C6.03975 23.0687 6.45402 23.6771 7.44997 23.2846C8.3132 22.7019 8.66418 21.9181 8.38464 21.1359C8.30238 20.9057 8.06321 20.7317 7.87451 20.5108Z" fill="#F6FAFD"/>
<path d="M7.63371 24.064C7.14589 24.0749 6.87295 24.3722 6.77334 24.7763C6.7256 24.97 6.82208 25.2502 6.94733 25.423C7.11251 25.651 7.36338 25.564 7.54056 25.3852C7.69902 25.2253 7.82748 25.0356 7.99074 24.8393C7.89394 24.5752 7.77556 24.331 7.63371 24.064Z" fill="#F6FAFD"/>
</g>
<defs>
<clipPath id="clip0_4524_5487">
<rect width="44" height="44" fill="white" transform="matrix(-0.962122 0.272619 0.272619 0.962122 42.3334 0)"/>
</clipPath>
</defs>
</svg>
