<svg width="144" height="42" viewBox="0 0 144 42" fill="none" xmlns="http://www.w3.org/2000/svg">
<path fill-rule="evenodd" clip-rule="evenodd" d="M18.1713 0.00894267C17.4807 0.0830489 16.7882 0.42188 16.2756 0.936425C16.0373 1.17575 15.7544 1.56433 15.7544 1.6525C15.7544 1.67917 15.7406 1.701 15.7237 1.701C15.7068 1.701 15.6841 1.7285 15.6732 1.7623C15.6622 1.79589 15.6058 1.95733 15.5476 2.12087C15.4245 2.46683 15.3617 2.89888 15.378 3.28788L15.3892 3.56289L12.1031 5.4695C8.51482 7.55161 8.70928 7.43888 8.37024 7.63433C8.23921 7.70969 8.08272 7.80144 8.02242 7.83796C7.96213 7.87428 7.82671 7.95133 7.72156 8.00906C7.6164 8.06658 7.50687 8.13208 7.47828 8.15454C7.44949 8.177 7.38689 8.21479 7.33911 8.23852C7.29133 8.26224 7.22081 8.30086 7.18263 8.32417C7.14445 8.34747 6.99569 8.43417 6.85235 8.51688C6.7088 8.5996 6.53666 8.70016 6.46969 8.74046C6.40271 8.78077 6.26188 8.86096 6.15672 8.9187C6.05157 8.97622 5.94203 9.04088 5.91345 9.06229C5.88465 9.0837 5.82394 9.12233 5.77824 9.14815C5.54852 9.27831 5.43461 9.34402 5.33967 9.40154C5.04924 9.57747 4.96745 9.58964 4.87022 9.47208C4.86062 9.46053 4.81368 9.42841 4.7659 9.4007C2.98199 8.36741 0.759085 9.17104 0.165074 11.0638C-0.203393 12.2382 0.0509456 13.3987 0.868415 14.2724C1.01009 14.424 1.43509 14.7519 1.48976 14.7519C1.50979 14.7519 1.53128 14.7649 1.53754 14.7809C1.54401 14.7968 1.63915 14.8524 1.7491 14.9043L1.9492 14.9988V21.0144V27.03L1.73179 27.1316C-0.696628 28.2671 -0.513438 31.942 2.01867 32.8909C2.80526 33.1859 4.15853 33.0927 4.5946 32.7137C4.62485 32.6875 4.66116 32.6661 4.67535 32.6661C4.68953 32.6661 4.76944 32.6188 4.85269 32.5611C4.93615 32.5034 5.01544 32.4561 5.02879 32.4561C5.0555 32.4561 7.48454 33.857 7.51291 33.8889C7.52251 33.8996 7.57739 33.932 7.63476 33.9607C7.69214 33.9895 7.85635 34.0823 7.99989 34.1669C8.35229 34.3747 8.47059 34.4425 8.6953 34.5656C8.80046 34.6231 8.91 34.6877 8.93879 34.7091C8.96738 34.7303 9.0283 34.769 9.07399 34.795C9.11948 34.8208 9.21337 34.8746 9.28264 34.9145C9.3517 34.9541 9.44726 35.0087 9.49504 35.0354C9.54303 35.062 9.64464 35.1227 9.72121 35.1702C9.79757 35.2176 9.89147 35.2718 9.92986 35.2902C9.96804 35.3087 10.0619 35.3629 10.1385 35.4103C10.2149 35.4578 10.3167 35.5184 10.3645 35.5451C10.4122 35.5718 10.508 35.6263 10.5771 35.666C10.6461 35.7059 10.74 35.7596 10.7857 35.7855C10.8314 35.8115 10.8921 35.8501 10.9209 35.8713C10.9495 35.8927 11.059 35.9574 11.1642 36.0149C11.2694 36.0727 11.4102 36.1529 11.4772 36.1932C11.5441 36.2335 11.7163 36.334 11.8598 36.4163C12.0032 36.4988 12.1613 36.5901 12.2112 36.6193C12.9245 37.0373 13.1787 37.1796 13.2114 37.1796C13.2331 37.1796 13.2506 37.1929 13.2506 37.209C13.2506 37.2252 13.2859 37.2561 13.3289 37.2777C13.4401 37.3333 13.7142 37.4908 14.6068 38.0112L15.3892 38.4674L15.3784 38.7245C15.3511 39.3629 15.5747 40.2144 15.8687 40.591C15.8837 40.6104 15.9351 40.6811 15.9826 40.7485C16.0857 40.894 16.5545 41.3783 16.5925 41.3783C16.6069 41.3783 16.6395 41.3989 16.6647 41.4243C17.2431 42.0018 18.7428 42.1838 19.684 41.7906C20.9106 41.2781 21.7502 39.9237 21.6108 38.6819C21.5875 38.4739 21.6006 38.4546 21.8572 38.3152C22.1212 38.172 22.4164 38.0028 22.431 37.9864C22.4508 37.9644 22.5376 37.9138 22.8137 37.7637C22.9188 37.7066 23.0284 37.6409 23.0569 37.6178C23.0857 37.5949 23.16 37.5558 23.2222 37.5311C23.2844 37.5063 23.3353 37.474 23.3353 37.4595C23.3353 37.4448 23.3626 37.4236 23.396 37.4127C23.4296 37.4015 23.5195 37.3528 23.5961 37.3041C23.6724 37.2556 23.7939 37.1903 23.8654 37.1591C23.9372 37.1276 23.9958 37.091 23.9958 37.0774C23.9958 37.0638 24.0507 37.0312 24.1177 37.0048C24.1845 36.9783 24.2393 36.9477 24.2393 36.9367C24.2393 36.9258 24.2902 36.8943 24.3524 36.8668C24.4146 36.8393 24.5467 36.7646 24.6462 36.7008C24.7457 36.637 24.8436 36.5849 24.8636 36.5849C24.8836 36.5849 24.9001 36.5721 24.9001 36.5563C24.9001 36.5408 24.9548 36.5064 25.0217 36.4799C25.0887 36.4535 25.1434 36.419 25.1434 36.4033C25.1434 36.3878 25.1578 36.375 25.1753 36.375C25.1928 36.375 25.3264 36.304 25.472 36.2175C25.6174 36.1308 25.7451 36.0601 25.7553 36.0601C25.7658 36.0601 25.8396 36.0153 25.9195 35.961C25.9995 35.9064 26.1902 35.7924 26.3431 35.7074C26.4962 35.6224 26.6473 35.5371 26.6792 35.5178C26.7109 35.4985 26.8595 35.4118 27.0095 35.3253C27.1593 35.2388 27.3091 35.1523 27.3423 35.133C29.1437 34.0819 31.9569 32.4561 31.9742 32.4561C31.9871 32.4561 32.0869 32.517 32.1958 32.5913C33.1472 33.2409 34.789 33.2249 35.6247 32.5582C36.4388 31.9086 36.7432 31.4495 36.9327 30.5859C37.0428 30.0839 36.9934 29.2645 36.8312 28.9047C36.8139 28.8663 36.7795 28.7796 36.7545 28.7124C36.527 28.0984 35.8988 27.4289 35.2743 27.1352L35.054 27.0315V21.0131C35.054 15.3135 35.0574 14.9933 35.1149 14.9713C35.7369 14.7324 36.4012 14.0843 36.6933 13.4312C36.7515 13.3013 36.8135 13.1633 36.831 13.1249C36.8486 13.0863 36.894 12.9064 36.9322 12.725C37.2846 11.0468 36.2281 9.38559 34.5672 9.00687C34.1698 8.91618 32.9826 8.97433 32.9129 9.08769C32.9025 9.1047 32.8653 9.11855 32.8305 9.11855C32.7658 9.11855 32.1649 9.41855 32.133 9.46662C32.0535 9.58733 31.9375 9.5781 31.7157 9.43366C31.6362 9.38181 30.8888 8.94914 30.6725 8.82947C30.5673 8.77153 30.4578 8.70646 30.4292 8.68504C30.4004 8.66384 30.3397 8.62521 30.294 8.59918C30.1012 8.49001 29.9493 8.40268 29.7857 8.30695C29.6902 8.2509 29.5846 8.19632 29.551 8.1854C29.5176 8.1747 29.4903 8.15475 29.4903 8.14132C29.4903 8.12788 29.4354 8.09534 29.3684 8.06889C29.3015 8.04244 29.2468 8.0099 29.2468 7.99646C29.2468 7.98303 29.2195 7.96308 29.1859 7.95217C29.1525 7.94104 29.0626 7.89255 28.986 7.84447C28.9094 7.79619 28.7922 7.72943 28.7252 7.69605C28.6582 7.66267 28.5956 7.62656 28.586 7.61586C28.5764 7.60515 28.5218 7.57303 28.4644 7.54406C28.407 7.5153 28.3523 7.48381 28.3427 7.47415C28.3332 7.46449 28.2783 7.43321 28.2209 7.40487C28.1635 7.37632 28.0696 7.32048 28.0123 7.28059C27.9549 7.24071 27.861 7.18549 27.8036 7.15757C27.7462 7.12965 27.6916 7.099 27.682 7.08934C27.6724 7.07969 27.6177 7.0482 27.5603 7.01922C27.503 6.99046 27.4481 6.95834 27.4385 6.94785C27.4089 6.91531 26.8399 6.59936 26.8109 6.59936C26.7959 6.59936 26.7783 6.58697 26.7721 6.57186C26.7604 6.54415 26.5966 6.44443 26.2736 6.2683C26.1781 6.21602 25.0904 5.5856 23.8569 4.86721L21.614 3.56121L21.6219 3.37458C21.653 2.64087 21.4606 1.94809 21.0552 1.33278C20.94 1.1579 20.4608 0.651336 20.4107 0.651336C20.3963 0.651336 20.3638 0.631603 20.3385 0.60746C20.2586 0.531465 20.0207 0.38724 19.8405 0.305367C19.7447 0.261911 19.6406 0.212577 19.6089 0.195573C19.3835 0.0752814 18.5548 -0.0322041 18.1713 0.00894267ZM19.1866 0.725863C20.4147 1.10668 21.1545 2.28041 20.9592 3.53791C20.9323 3.71111 20.9154 3.86205 20.9217 3.87359C20.9367 3.90068 21.437 4.19815 21.8572 4.42992C21.972 4.49311 22.0895 4.56238 22.118 4.5838C22.1468 4.605 22.2076 4.64363 22.2532 4.66966C22.2989 4.69548 22.3928 4.74922 22.4619 4.78911C22.531 4.82879 22.6267 4.88337 22.6745 4.91003C22.7223 4.93669 22.8241 4.99736 22.9005 5.04481C22.977 5.09225 23.0709 5.14642 23.1091 5.16489C23.1475 5.18336 23.2414 5.23753 23.3177 5.28497C23.3943 5.33242 23.4961 5.39309 23.5439 5.41975C23.5917 5.44641 23.6873 5.50099 23.7563 5.54067C23.8256 5.58056 23.9195 5.6343 23.965 5.66012C24.0107 5.68615 24.0716 5.72478 24.1002 5.74598C24.129 5.7674 24.2385 5.83206 24.3437 5.88958C24.5536 6.00462 24.6504 6.06004 25.0391 6.28929C25.1826 6.37389 25.3468 6.46626 25.4042 6.49482C25.4616 6.52358 25.5164 6.5557 25.526 6.56661C25.5621 6.60755 26.3504 7.05428 26.3865 7.05428C26.4074 7.05428 26.4295 7.0673 26.4359 7.08304C26.4495 7.11684 32.0128 10.3433 32.0572 10.3433C32.0739 10.3433 32.1173 10.3097 32.1539 10.2686C33.0612 9.24598 34.9201 9.37215 35.8364 10.5186C36.8897 11.8361 36.2881 13.9523 34.7237 14.434C34.6472 14.4576 34.5493 14.4941 34.5063 14.5153L34.4279 14.5537L34.4368 21.0278L34.4456 27.5019L34.7064 27.5912C36.2128 28.1063 36.8404 29.9071 35.9935 31.2841C35.7561 31.6699 35.2602 32.1102 34.9411 32.2181C34.879 32.2391 34.8124 32.2685 34.7932 32.2834C34.6995 32.356 34.1696 32.4561 33.8793 32.4561C33.2565 32.4561 32.5872 32.1933 32.2244 31.8062C32.1132 31.6878 31.8897 31.6506 31.8897 31.7506C31.8897 31.7636 31.8388 31.7965 31.7766 31.8238C31.7144 31.8509 31.6558 31.8837 31.6462 31.8963C31.6366 31.9088 31.5427 31.9651 31.4376 32.0214C31.3324 32.0774 31.2385 32.1312 31.2289 32.141C31.2193 32.1509 31.1647 32.1824 31.1073 32.2112C31.0499 32.2401 30.995 32.2727 30.9854 32.2836C30.9758 32.2947 30.8429 32.3734 30.69 32.4585C30.5369 32.5437 30.3858 32.6291 30.3541 32.6484C30.1198 32.7916 21.1239 38.012 20.9939 38.0805C20.9198 38.1195 20.9 38.1508 20.9133 38.207C21.5238 40.7466 18.5404 42.4701 16.7167 40.6313C16.1352 40.0452 15.8558 39.0419 16.0671 38.3003C16.1082 38.1562 16.0893 38.1157 15.9538 38.0576C15.8921 38.0309 15.8178 37.99 15.7892 37.9667C15.7604 37.9434 15.6511 37.8774 15.5457 37.8201C15.2636 37.6669 15.1883 37.6215 15.1383 37.5756C15.1136 37.5527 15.0581 37.5233 15.0154 37.5101C14.9724 37.4968 14.9156 37.4683 14.8893 37.4465C14.8376 37.404 14.5061 37.2092 14.3636 37.1374C14.3158 37.1133 14.2688 37.0843 14.2592 37.0728C14.2496 37.0614 14.1165 36.9825 13.9636 36.8973C13.8106 36.8122 13.6594 36.7268 13.6277 36.7075C13.5957 36.6882 13.4472 36.6015 13.2972 36.515C13.1474 36.4285 12.9976 36.3418 12.9642 36.3225C10.9539 35.1553 5.2679 31.8515 5.15314 31.7842C4.97392 31.6788 4.88754 31.6641 4.84581 31.7315C4.61964 32.0978 3.76106 32.4561 3.10968 32.4561C0.564628 32.4561 -0.312514 29.0479 1.901 27.7591C2.11861 27.6325 2.13781 27.6248 2.39257 27.5584L2.54049 27.52L2.53173 21.0222L2.52297 14.5245L2.30786 14.4504C1.58928 14.2027 0.890741 13.4845 0.74615 12.8449C0.733214 12.7871 0.705046 12.7178 0.683765 12.6908C0.600724 12.5856 0.638072 11.5802 0.7353 11.3044C1.10773 10.2463 2.03808 9.56676 3.11406 9.56676C3.44038 9.56676 3.94384 9.66396 4.05296 9.74814C4.07215 9.76284 4.1239 9.78593 4.16792 9.79957C4.2785 9.83379 4.65281 10.0868 4.80053 10.227C4.86751 10.2906 4.93428 10.3427 4.94888 10.3429C4.96349 10.3431 5.63261 9.96143 6.43547 9.49475C7.23855 9.02807 7.9229 8.63046 7.95628 8.61115C8.44931 8.32669 8.57116 8.25594 8.62019 8.22634C8.65191 8.20702 8.79525 8.12347 8.93879 8.04097C9.08213 7.95825 9.25426 7.8577 9.32124 7.81718C9.38821 7.77687 9.52905 7.69668 9.6342 7.63916C9.73936 7.58142 9.8489 7.51593 9.8777 7.49346C9.90628 7.471 9.96887 7.43384 10.0166 7.41075C10.0646 7.38745 10.1506 7.33937 10.208 7.30389C10.4667 7.14309 10.5637 7.08766 10.6762 7.03644C10.7425 7.00621 10.8051 6.97031 10.8153 6.95667C10.8354 6.9298 10.9038 6.88907 11.199 6.72868C11.3042 6.67137 11.4137 6.6065 11.4425 6.58425C11.4711 6.56199 11.5416 6.52106 11.599 6.49293C11.6564 6.465 11.7111 6.43414 11.7207 6.42449C11.7388 6.40622 11.7981 6.37158 12.0658 6.22295C12.1532 6.17446 12.264 6.10875 12.3117 6.07705C12.3597 6.04556 12.4457 5.99664 12.5031 5.96851C12.5604 5.94038 12.6151 5.90931 12.6247 5.89965C12.6343 5.89 12.6813 5.85977 12.729 5.83227C13.2742 5.51905 13.4726 5.40988 13.4956 5.40988C13.5108 5.40988 13.5283 5.3975 13.5346 5.38217C13.5463 5.35446 13.7134 5.25285 14.0331 5.07882C14.9208 4.59597 16.084 3.87653 16.0759 3.81544C15.9895 3.16423 15.9874 3.12056 16.0269 2.82183C16.2282 1.30003 17.7603 0.283535 19.1866 0.725863ZM14.2939 6.23051C13.022 6.96863 11.965 7.58604 11.9447 7.60221C11.9245 7.61837 11.8463 7.66435 11.7707 7.70445C11.5243 7.83523 11.2863 7.97421 11.2685 7.99751C11.2589 8.01011 11.2003 8.04118 11.1381 8.06637C11.0759 8.09177 11.0252 8.12242 11.0252 8.1346C11.0252 8.14677 10.9743 8.1791 10.9122 8.20619C10.85 8.23327 10.6599 8.33949 10.4896 8.44215C10.3194 8.54481 10.1681 8.62878 10.1535 8.62878C10.1389 8.62878 10.1216 8.64054 10.1153 8.65502C10.1089 8.66951 10.0018 8.73438 9.8777 8.79946C9.75334 8.86433 9.62815 8.93507 9.59936 8.95691C9.57078 8.97853 9.50985 9.01737 9.46416 9.04319C9.41867 9.06901 9.32478 9.12275 9.25551 9.16264C9.18645 9.20253 9.0909 9.2569 9.04312 9.28356C8.99534 9.31043 8.90916 9.36081 8.85179 9.39545C8.75685 9.45297 8.64293 9.51889 8.41322 9.64884C8.36752 9.67487 8.3066 9.7135 8.27801 9.73471C8.24922 9.75612 8.13968 9.82036 8.03452 9.87767C7.76433 10.0246 7.67691 10.0752 7.61724 10.1197C7.58865 10.1409 7.47912 10.2056 7.37396 10.2633C7.26859 10.3208 7.13339 10.3979 7.07309 10.4344C6.96314 10.501 6.57819 10.7239 6.3829 10.8341C6.23851 10.9156 5.66933 11.2508 5.57607 11.3092C5.50095 11.3564 5.50054 11.3604 5.5552 11.5412C5.63073 11.7918 5.62948 12.4019 5.55291 12.6274C5.45422 12.9181 5.391 12.8631 6.6871 13.6155C7.90579 14.323 8.66255 14.7611 8.93692 14.9182C9.02204 14.9669 9.1706 15.054 9.2672 15.1115C9.3638 15.1692 9.48982 15.2429 9.5472 15.2755C9.75292 15.3918 10.1299 15.6103 10.2374 15.6754C10.2977 15.7119 10.4331 15.7887 10.5383 15.8465C10.6434 15.904 10.753 15.9687 10.7818 15.9901C10.8103 16.0115 10.8713 16.0501 10.917 16.0759C10.9626 16.1018 11.0565 16.1555 11.1256 16.1954C11.1947 16.2353 11.2954 16.2928 11.3497 16.3232C11.4039 16.3539 11.4813 16.3976 11.5216 16.4204C11.6024 16.4662 11.6213 16.4589 11.7941 16.3171C12.1409 16.0331 13.0032 15.6277 13.2638 15.6263C13.477 15.6252 13.7376 15.3588 13.7376 15.1417C13.7376 15.123 13.7493 15.1023 13.7637 15.096C13.7779 15.0895 13.8273 15.0133 13.8734 14.9268C14.0566 14.5827 14.4345 14.1273 14.8178 13.7889C15.0675 13.5685 15.5835 13.267 16.05 13.0693C16.4984 12.8791 17.2752 12.7416 17.728 12.7722L18.0499 12.7938L18.0409 9.20022L18.0322 5.60659L17.8408 5.55914C17.511 5.47706 16.9985 5.19113 16.7957 4.97616C16.6699 4.84285 16.7778 4.7889 14.2939 6.23051ZM20.0681 5.07693C19.8106 5.29106 19.4801 5.4674 19.1797 5.55117L18.9711 5.60932L18.9623 9.32345C18.9544 12.6251 18.9592 13.0374 19.0061 13.0374C19.0351 13.0374 19.086 13.0525 19.1194 13.0712C19.1526 13.0896 19.2579 13.139 19.3535 13.1805C19.6105 13.2924 20.0689 13.5632 20.1862 13.6722C20.383 13.8553 20.419 13.8618 20.6995 13.7633C21.2985 13.553 21.3369 13.5465 21.9616 13.5465C22.5783 13.5465 22.6394 13.5565 23.1788 13.7476C23.4517 13.8441 23.965 14.1383 24.1375 14.297C24.6447 14.763 24.8657 15.0374 25.0841 15.472C25.1964 15.6955 25.3863 16.2481 25.3867 16.3526C25.3869 16.4427 25.4722 16.4582 25.558 16.3837C25.5882 16.3575 25.8711 16.1874 26.1866 16.0054C26.5023 15.8236 27.8289 15.0559 29.1346 14.2991L31.5085 12.9234L31.486 12.7966C31.4735 12.7271 31.4509 12.6461 31.4361 12.6169C31.4211 12.5877 31.3988 12.438 31.386 12.2845C31.3658 12.0372 31.381 11.859 31.4584 11.4425L31.4785 11.3346L30.0991 10.5327C29.3403 10.0918 28.6386 9.68558 28.5399 9.62995C28.3269 9.51029 27.5958 9.08349 27.3579 8.9399C27.2659 8.88427 27.176 8.83871 27.1581 8.83871C27.1401 8.83871 27.1255 8.82675 27.1255 8.81226C27.1255 8.79777 27.0748 8.76377 27.0126 8.7369C26.9505 8.70981 26.8605 8.6609 26.8125 8.62836C26.7648 8.59561 26.654 8.52906 26.5666 8.48036C26.2911 8.32753 26.2394 8.29688 26.2215 8.27714C26.2119 8.26644 26.1493 8.23012 26.0823 8.19653C26.0153 8.16273 25.8981 8.09744 25.8215 8.05147C25.7451 8.00528 25.6512 7.95133 25.6128 7.93138C25.5747 7.91144 25.4808 7.85539 25.4042 7.80689C25.3278 7.7584 25.2183 7.69458 25.1609 7.6654C25.0624 7.61501 24.9873 7.57093 24.7175 7.40445C24.6554 7.36603 24.5654 7.31586 24.5175 7.29277C24.4697 7.26968 24.4071 7.23231 24.3785 7.20984C24.3497 7.18738 24.2402 7.1223 24.135 7.06499C23.8648 6.91804 23.7774 6.86744 23.7177 6.82294C23.6889 6.80173 23.5796 6.73708 23.4742 6.67935C23.3691 6.62182 23.2282 6.54163 23.1613 6.50132C23.0943 6.4608 22.9224 6.36046 22.7788 6.27795C22.6355 6.19566 22.4769 6.10434 22.4268 6.07516C22.3768 6.04598 21.8963 5.76635 21.359 5.45355C20.2396 4.80192 20.3575 4.83614 20.0681 5.07693ZM16.7281 5.73234C16.7951 5.77475 16.8811 5.82849 16.9195 5.85158C17.0352 5.92149 17.3605 6.07453 17.3931 6.07453C17.4104 6.07453 17.4235 7.39144 17.4235 9.11855V12.1626L17.2585 12.1645C16.4876 12.1735 14.9745 12.7435 14.5722 13.1766C14.5626 13.1868 14.499 13.237 14.4307 13.288C14.1839 13.473 13.8607 13.8294 13.5004 14.3144C13.4537 14.3772 13.1582 14.9079 13.1373 14.9664C13.1252 15.0002 13.0418 15.0414 12.9316 15.0678C12.5592 15.1571 12.0466 15.38 11.6835 15.6105L11.5414 15.7008L9.01933 14.2378C7.63226 13.4333 6.4288 12.7365 6.34492 12.6895L6.19261 12.6043L6.21786 12.4097C6.24603 12.1936 6.24811 12.0454 6.22579 11.817L6.21097 11.6638L8.80067 10.1615C10.2249 9.3352 11.5859 8.54691 11.825 8.40961C12.0641 8.27252 12.2675 8.15139 12.2771 8.1409C12.2865 8.13019 12.357 8.08799 12.4336 8.04727C12.6671 7.92236 12.9193 7.77687 12.9377 7.75609C12.9473 7.74538 13.0021 7.71284 13.0595 7.68408C13.1169 7.65532 13.1716 7.62383 13.1812 7.61418C13.1908 7.60452 13.2454 7.57303 13.3028 7.54448C13.3602 7.51572 13.4885 7.44098 13.588 7.37821C13.6875 7.31544 13.7854 7.26422 13.8054 7.26422C13.8255 7.26422 13.8419 7.25141 13.8419 7.23567C13.8419 7.22013 13.8966 7.1857 13.9636 7.15925C14.0306 7.1328 14.0852 7.10215 14.0852 7.09123C14.0852 7.08032 14.1361 7.04925 14.1983 7.02217C14.2605 6.99487 14.3938 6.92035 14.4946 6.85611C14.5954 6.79187 14.6932 6.73939 14.712 6.73939C14.7306 6.73939 14.746 6.72742 14.746 6.71293C14.746 6.69845 14.7969 6.66444 14.8591 6.63757C14.9213 6.61049 15.0112 6.56157 15.059 6.52903C15.1067 6.49628 15.2163 6.43015 15.3025 6.38187C15.3884 6.3338 15.5155 6.26221 15.5845 6.22274C15.6536 6.18348 15.7475 6.12995 15.7932 6.10413C15.8389 6.07831 15.8996 6.03968 15.9284 6.01827C15.9735 5.98468 16.1748 5.87026 16.4846 5.70232C16.595 5.64249 16.5848 5.64123 16.7281 5.73234ZM20.6354 5.77181C20.7529 5.83625 20.9035 5.92212 20.9705 5.96264C21.0375 6.00315 21.2096 6.10392 21.3532 6.18642C21.4965 6.26914 21.6411 6.35248 21.6743 6.37179C21.7074 6.39111 22.036 6.58257 22.4045 6.79733C22.773 7.01188 23.125 7.21656 23.1867 7.25204C23.2485 7.28773 24.9784 8.29079 27.0312 9.48153L30.7634 11.6461L30.7614 12.0356C30.7603 12.2499 30.7716 12.4685 30.7862 12.5214C30.8068 12.5959 30.801 12.6175 30.7601 12.6175C30.7311 12.6175 30.7073 12.6332 30.7073 12.6526C30.7073 12.6717 30.6915 12.6874 30.6718 12.6874C30.6524 12.6874 30.578 12.7241 30.5066 12.7691C30.4352 12.814 30.2909 12.898 30.1857 12.9557C29.8955 13.115 29.8222 13.1579 29.8033 13.1801C29.7937 13.1912 29.6841 13.2559 29.5598 13.3235C29.4354 13.3911 29.2789 13.4801 29.212 13.5211C29.145 13.562 28.9731 13.6628 28.8297 13.7451C28.4992 13.9348 28.6574 13.8431 27.1405 14.7256C25.6719 15.5803 25.7929 15.5246 25.733 15.3729C24.9948 13.4998 22.7196 12.4642 20.7101 13.0869L20.5365 13.1407L20.341 13.0025C20.2334 12.9267 20.0182 12.7999 19.8626 12.7206L19.5797 12.5768V9.33415V6.09174L19.6925 6.04241C19.7547 6.01533 19.8449 5.97628 19.8926 5.95571C19.9404 5.93513 20.0719 5.85914 20.1849 5.7865C20.4309 5.62863 20.3775 5.63031 20.6354 5.77181ZM4.81159 13.904C4.71249 13.9951 4.60942 14.0874 4.58271 14.1091C4.47171 14.1996 4.00643 14.4309 3.85308 14.4718L3.68783 14.5159V20.9993V27.4826L3.88771 27.5567C4.30333 27.7106 4.62381 27.9101 4.86834 28.1666C5.02337 28.3295 4.99457 28.3404 5.97666 27.7501C6.0088 27.7308 6.16027 27.6453 6.31321 27.5601C6.46635 27.4749 6.59926 27.3963 6.60886 27.3852C6.61845 27.3741 6.67312 27.3416 6.7305 27.3128C6.78787 27.284 6.84275 27.2523 6.85235 27.2427C6.86174 27.2328 6.95563 27.1789 7.06099 27.1228C7.16615 27.0668 7.26004 27.0118 7.26964 27.0006C7.27903 26.9895 7.3339 26.9567 7.39127 26.928C7.44865 26.899 7.50331 26.8677 7.51291 26.8581C7.52251 26.8484 7.59303 26.8075 7.6694 26.767C7.9156 26.6372 8.15387 26.4997 8.24859 26.4332C8.29929 26.3973 8.35813 26.3681 8.379 26.3681C8.39986 26.3681 8.41718 26.3561 8.41718 26.3416C8.41718 26.3272 8.46788 26.2931 8.53006 26.2663C8.59223 26.2392 8.68237 26.1903 8.73015 26.1577C8.77793 26.125 8.88746 26.0589 8.97343 26.0106C9.0596 25.9625 9.18645 25.8909 9.25551 25.8515C9.32478 25.8122 9.41867 25.7587 9.46416 25.7328C9.50985 25.707 9.57078 25.6684 9.59936 25.647C9.62815 25.6256 9.73769 25.5609 9.84285 25.503C10.175 25.3203 10.2599 25.2666 10.2512 25.2443C10.2466 25.2324 10.1195 25.1232 9.96887 25.0016C9.7112 24.7938 9.29996 24.349 9.20669 24.1772C8.95048 23.7051 8.85534 23.4704 8.74079 23.0279C8.38004 21.6354 9.01975 20.0241 10.2491 19.2304L10.4928 19.0729L10.5111 18.6531C10.5316 18.1876 10.5883 17.9762 10.8206 17.5031C11.0052 17.1269 11.0409 17.1919 10.4861 16.893C10.3905 16.8413 10.3044 16.7905 10.295 16.7798C10.2601 16.741 5.05529 13.7371 5.02399 13.7379C5.00626 13.7381 4.9107 13.8131 4.81159 13.904ZM29.3209 15.2582C26.269 17.0278 26.6323 16.788 26.8182 16.9098C27.0554 17.0651 27.0546 17.0645 27.3344 17.341C28.1539 18.1509 28.3528 19.5919 27.7802 20.5702C27.6605 20.7746 27.6515 20.7112 27.8487 21.0557C28.0083 21.3352 28.127 21.6303 28.2612 22.0819C28.3513 22.3853 28.3523 23.4801 28.263 23.8315C28.0982 24.4789 27.7898 25.0829 27.4155 25.4914C27.3158 25.6004 27.3358 25.6254 27.6774 25.8168C27.8234 25.8985 27.9691 25.9812 28.0012 26.0005C28.0496 26.0297 28.6878 26.3996 28.9069 26.5255C28.9403 26.5449 29.6384 26.9502 30.458 27.4266C31.9851 28.314 32.0166 28.3301 32.051 28.2396C32.1079 28.0906 32.7454 27.6852 33.1503 27.5408L33.3156 27.4818L33.3068 21.0031L33.2981 14.5243L33.1067 14.4632C32.7641 14.3539 32.3711 14.1112 32.1349 13.863C32.0689 13.7938 31.9986 13.7375 31.9784 13.7379C31.9584 13.7381 30.7624 14.4223 29.3209 15.2582ZM5.37013 14.6486C5.50638 14.7265 5.67246 14.8233 5.73943 14.8636C5.80641 14.9039 5.94724 14.9841 6.0524 15.0418C6.15756 15.0993 6.2671 15.164 6.29589 15.1854C6.32447 15.2066 6.3854 15.2452 6.43109 15.2713C6.47678 15.2971 6.57067 15.3508 6.63974 15.3907C6.7088 15.4304 6.80457 15.485 6.85235 15.5116C6.90013 15.5385 6.98608 15.5887 7.04346 15.6235C7.16427 15.6966 7.38752 15.8263 7.51291 15.8964C7.5609 15.9231 7.66251 15.9838 7.73909 16.031C7.81545 16.0785 7.93688 16.1444 8.00844 16.1775C8.08022 16.2107 8.13885 16.25 8.13885 16.2647C8.13885 16.2794 8.15721 16.2913 8.17974 16.2913C8.20207 16.2913 8.24505 16.3127 8.2753 16.339C8.32621 16.3831 8.55218 16.5128 8.88663 16.69C8.963 16.7305 9.03352 16.7721 9.04312 16.7821C9.074 16.8153 9.47459 17.0462 9.59081 17.0979C9.65298 17.1256 9.70368 17.156 9.70389 17.1659C9.70389 17.1756 9.80404 17.2379 9.92672 17.3045L10.1496 17.4254L10.0861 17.6017C9.96845 17.9288 9.90586 18.1952 9.88667 18.4513L9.86747 18.7058L9.62044 18.9044C9.31269 19.1517 9.14431 19.3202 8.9317 19.5938C8.8401 19.7115 8.75268 19.8234 8.73703 19.8428C7.98695 20.7709 7.80168 22.8207 8.3694 23.915C8.39527 23.9652 8.41676 24.0194 8.41697 24.0353C8.4176 24.1388 8.94818 24.9263 9.12282 25.0831C9.20794 25.1595 9.40595 25.0296 7.72156 26.003C6.92787 26.4619 6.27335 26.8499 6.26689 26.8652C6.26063 26.8803 6.23851 26.8929 6.21786 26.8929C6.17029 26.8929 5.62176 27.2133 5.60611 27.2502C5.59985 27.2653 5.57544 27.2777 5.55207 27.2777C5.5287 27.2777 5.43565 27.325 5.3453 27.3827C5.13583 27.5164 5.1183 27.5152 4.87836 27.3518C4.76861 27.2771 4.59669 27.1744 4.49633 27.1239L4.31377 27.0317V21.0054V14.979L4.51365 14.8827C4.6236 14.8296 4.7997 14.7242 4.90485 14.6486C5.13812 14.4811 5.07741 14.4811 5.37013 14.6486ZM32.1557 14.6996C32.2732 14.7785 32.4416 14.8732 32.5294 14.9098L32.6894 14.9761V21.0007V27.0256L32.5069 27.1211C32.4065 27.1738 32.2215 27.2834 32.0958 27.3649L31.8676 27.5131L31.7307 27.4301C31.6556 27.3846 31.5471 27.3233 31.4897 27.2941C31.3902 27.2433 31.2677 27.1713 31.0376 27.0283C30.9802 26.9926 30.8943 26.9446 30.8465 26.9215C30.7987 26.8984 30.7359 26.861 30.7073 26.8386C30.6785 26.8161 30.569 26.751 30.4638 26.6937C30.1936 26.5467 30.1062 26.4962 30.0465 26.4516C30.018 26.4304 29.9084 26.3658 29.8033 26.3081C29.6979 26.2505 29.5571 26.1703 29.4903 26.13C29.4233 26.0895 29.2512 25.989 29.1076 25.9062C28.9643 25.8237 28.8208 25.7402 28.7886 25.7209C28.7565 25.7016 28.6269 25.6258 28.5005 25.5523L28.2708 25.4186L28.3832 25.2198C28.5983 24.8404 28.6559 24.7073 28.7728 24.3213C29.1076 23.2157 29.0094 21.9259 28.5157 20.9487L28.4097 20.7387L28.4969 20.5301C28.6851 20.0804 28.7354 19.7586 28.7141 19.1428C28.6858 18.3258 28.4771 17.7304 28.0118 17.1384C27.8318 16.9094 27.8021 16.8542 27.8497 16.8376C27.8819 16.8264 27.9705 16.7775 28.0471 16.7288C28.1237 16.6803 28.2449 16.6134 28.3167 16.5802C28.3882 16.5468 28.4471 16.5078 28.4471 16.4931C28.4471 16.4784 28.4642 16.4662 28.485 16.4662C28.5061 16.4662 28.5647 16.437 28.6154 16.4013C28.6664 16.3656 28.7782 16.297 28.8644 16.2487C28.9503 16.2006 29.0755 16.1293 29.1425 16.0902C29.643 15.7984 29.9524 15.6265 29.9771 15.6265C29.9929 15.6265 30.0113 15.6139 30.0175 15.5983C30.024 15.5826 30.1231 15.5167 30.2379 15.4516C30.3526 15.3867 30.7655 15.148 31.1557 14.9211C31.5456 14.6944 31.882 14.5195 31.9033 14.5323C31.9245 14.5453 32.0381 14.6205 32.1557 14.6996ZM10.9904 25.9025C10.5998 26.1338 10.2733 26.3207 10.1646 26.375C10.1214 26.3966 10.0863 26.4275 10.0863 26.4437C10.0863 26.4598 10.0686 26.4731 10.0469 26.4731C10.0141 26.4731 9.76002 26.6154 9.04666 27.0334C8.9968 27.0626 8.83885 27.1539 8.6953 27.2364C8.55196 27.3187 8.37963 27.4192 8.31286 27.4595C8.24588 27.4998 8.10505 27.58 7.99989 27.6378C7.89453 27.6953 7.78499 27.7599 7.7564 27.7814C7.69673 27.8257 7.60931 27.8765 7.33911 28.0234C7.23396 28.0805 7.12442 28.1448 7.09562 28.1662C7.06704 28.1876 7.00612 28.2262 6.96042 28.252C6.91494 28.2779 6.82105 28.3316 6.75178 28.3715C6.68272 28.4114 6.58716 28.4657 6.53938 28.4924C6.4916 28.5191 6.38978 28.5799 6.31321 28.6274C6.23684 28.6748 6.14295 28.7288 6.10456 28.7473C6.06638 28.7659 5.97249 28.8203 5.89592 28.8684C5.81955 28.9163 5.69812 28.9878 5.62656 29.0271C5.4778 29.1086 5.47529 29.1207 5.55332 29.3796C5.63052 29.6359 5.63198 30.2399 5.55603 30.4884C5.50054 30.6696 5.50075 30.6732 5.57607 30.7213C5.67663 30.7857 9.66446 33.0985 9.91233 33.2363C10.0175 33.2948 10.1633 33.3803 10.2364 33.426C10.3094 33.472 10.4266 33.5419 10.4972 33.5814C10.6205 33.6505 11.2449 34.0111 11.3662 34.0833C11.3985 34.1026 11.5425 34.186 11.6858 34.2687C11.8294 34.3512 12.0015 34.452 12.0685 34.4923C12.1352 34.5326 12.2761 34.6128 12.3814 34.6705C12.4866 34.728 12.5961 34.7927 12.6247 34.8141C12.6535 34.8353 12.7142 34.8739 12.7599 34.9C12.9896 35.0299 13.1035 35.0958 13.1985 35.1534C13.2559 35.188 13.342 35.2384 13.3898 35.2653C13.4376 35.2919 13.5394 35.3505 13.6158 35.3952C13.6923 35.4399 13.7942 35.4985 13.8419 35.5252C13.8897 35.5518 13.9913 35.6125 14.0679 35.6597C14.1445 35.7072 14.2657 35.7731 14.3375 35.8063C14.409 35.8394 14.4679 35.8787 14.4679 35.8934C14.4679 35.9081 14.485 35.92 14.5058 35.92C14.5269 35.92 14.5856 35.9492 14.6363 35.9851C14.731 36.0517 14.9692 36.1892 15.2154 36.3189C15.292 36.3594 15.3623 36.4014 15.3719 36.4125C15.3999 36.4453 15.9678 36.7598 15.9987 36.7598C16.0141 36.7598 16.0321 36.7724 16.0383 36.7877C16.0552 36.8282 16.6125 37.1448 16.6657 37.1439C16.6904 37.1437 16.749 37.1028 16.7959 37.053C17.034 36.8009 17.5602 36.5175 17.9539 36.4298L18.0495 36.4086V32.4983V28.5881L17.8379 28.433C17.6021 28.2604 17.305 27.9749 17.0916 27.7163C16.951 27.5456 16.951 27.5456 16.8135 27.583C16.0496 27.791 15.9887 27.8026 15.6584 27.8026C14.8847 27.8026 14.0187 27.487 13.4991 27.0162C13.143 26.6935 12.9669 26.4764 12.7403 26.0809L12.5838 25.8082L12.1957 25.808C11.9823 25.808 11.7528 25.7937 11.6858 25.7763C11.3597 25.6917 11.3403 25.6953 10.9904 25.9025ZM26.3606 26.3444C25.8044 26.6744 25.2281 26.8222 24.4953 26.8226L24.073 26.823L23.9956 26.9891C23.6503 27.7297 22.976 28.4183 22.2476 28.7743C21.779 29.0034 21.6951 29.0359 21.3183 29.1344C20.9966 29.2186 20.2982 29.274 20.0178 29.2375C19.5621 29.1785 19.2529 29.1258 19.197 29.0979C19.1684 29.0836 19.1019 29.0615 19.0491 29.0489L18.9533 29.0258L18.9623 32.7238L18.9711 36.4218L19.1624 36.4663C19.4829 36.5408 19.9959 36.829 20.2073 37.053C20.3089 37.1609 20.356 37.1656 20.4783 37.0803C20.5292 37.0451 20.5941 37.006 20.6229 36.9936C20.6515 36.9812 20.7376 36.9323 20.814 36.8847C20.8906 36.8372 20.9924 36.7766 21.0402 36.7499C21.1656 36.6796 21.3888 36.5498 21.5096 36.4768C21.567 36.4421 21.653 36.3918 21.7008 36.3649C21.7487 36.3382 21.8464 36.2824 21.9182 36.2406C21.9899 36.199 22.1072 36.1319 22.179 36.0913C22.2507 36.0506 22.325 36.0057 22.3442 35.991C22.3632 35.9763 22.4494 35.9251 22.5353 35.8772C22.6215 35.8291 22.7467 35.758 22.8137 35.7189C23.3142 35.4271 23.6236 35.2552 23.6482 35.2552C23.6641 35.2552 23.6825 35.2424 23.6887 35.2264C23.6952 35.2107 23.8256 35.1267 23.9785 35.0398C24.3113 34.8511 31.2807 30.8099 31.3963 30.7387C31.4614 30.6988 31.4728 30.669 31.4561 30.5842C31.3527 30.0591 31.3522 29.6674 31.4551 29.3279C31.4837 29.2335 31.5071 29.1445 31.5071 29.1304C31.5071 29.1163 31.2953 28.9809 31.0364 28.8298C30.7774 28.6786 30.5389 28.539 30.5062 28.5197C30.4734 28.5004 30.3293 28.417 30.1857 28.3343C30.0424 28.2518 29.87 28.1511 29.8033 28.1105C29.7363 28.07 29.5798 27.9816 29.4555 27.914C29.3311 27.8467 29.164 27.7465 29.0841 27.6919C29.0042 27.6374 28.9303 27.5926 28.9199 27.5926C28.9096 27.5926 28.7819 27.5219 28.6363 27.4352C28.4909 27.3487 28.3574 27.2777 28.3398 27.2777C28.3223 27.2777 28.3079 27.2649 28.3079 27.2494C28.3079 27.2336 28.253 27.1992 28.1863 27.1728C28.1193 27.1463 28.0644 27.1119 28.0644 27.0964C28.0644 27.0806 28.0481 27.0678 28.0281 27.0678C28.0081 27.0678 27.9102 27.0157 27.8107 26.9519C27.7112 26.8881 27.5789 26.8134 27.5167 26.7859C27.4545 26.7584 27.4038 26.7269 27.4038 26.716C27.4038 26.705 27.349 26.6744 27.282 26.6479C27.215 26.6215 27.1604 26.5889 27.1604 26.5753C27.1604 26.5617 27.1017 26.5253 27.03 26.4943C26.9008 26.4382 26.8478 26.4082 26.6684 26.2894C26.5557 26.2146 26.5889 26.2088 26.3606 26.3444ZM11.9189 26.4223L12.2039 26.4449L12.37 26.6952C12.5166 26.916 13.0422 27.4837 13.2333 27.6279C13.4791 27.8133 14.0969 28.1525 14.1889 28.1525C14.2089 28.1525 14.2526 28.1676 14.2857 28.1863C14.7041 28.42 15.9755 28.4903 16.5593 28.3123L16.7208 28.2629L16.8731 28.4265C16.9568 28.5163 17.115 28.6667 17.2245 28.7603L17.4235 28.9307V32.4221V35.9135L17.1715 36.0372C17.0327 36.1054 16.8456 36.2104 16.7552 36.2706L16.591 36.3802L16.3204 36.2259C16.1717 36.1411 14.4539 35.1456 12.5031 34.0134C10.5522 32.8813 8.81131 31.8711 8.63417 31.7686C8.25673 31.5499 7.6863 31.2186 7.51291 31.1176C7.44594 31.0786 7.32075 31.0074 7.23479 30.9595C7.14862 30.9115 7.06266 30.8602 7.04346 30.8458C7.02448 30.8311 6.94999 30.7859 6.87843 30.7454C6.80665 30.7049 6.68919 30.6377 6.61762 30.5964C6.54585 30.555 6.42921 30.4895 6.35848 30.4509L6.22975 30.3805L6.23664 30.0625C6.2406 29.8876 6.23163 29.6737 6.21681 29.587L6.1899 29.4293L7.96484 28.3973C8.94109 27.8296 9.7669 27.3495 9.80008 27.3302C9.83304 27.3109 9.97763 27.2274 10.121 27.1448C10.2645 27.0621 10.4367 26.9614 10.5036 26.9208C10.5704 26.8803 10.7269 26.7919 10.8512 26.7241C10.9756 26.6565 11.0851 26.5917 11.0947 26.5801C11.1043 26.5686 11.1513 26.5392 11.199 26.5146C11.2468 26.4903 11.3251 26.4472 11.3728 26.4193C11.4208 26.3912 11.4991 26.3752 11.5469 26.3838C11.5946 26.3924 11.762 26.4097 11.9189 26.4223ZM28.7016 28.2046C30.3428 29.1562 30.8075 29.4405 30.7889 29.4816C30.776 29.5108 30.7624 29.7184 30.7589 29.9428C30.752 30.391 30.7509 30.3938 30.516 30.5176C30.2698 30.6476 30.0317 30.7851 29.937 30.8516C29.8861 30.8873 29.8275 30.9167 29.8066 30.9167C29.7855 30.9167 29.7684 30.9287 29.7684 30.9434C29.7684 30.9581 29.7098 30.9973 29.638 31.0305C29.5662 31.0637 29.445 31.1296 29.3684 31.1768C29.2921 31.2243 29.1903 31.2847 29.1425 31.3114C29.0947 31.3383 28.9929 31.3966 28.9165 31.4415C28.8399 31.4863 28.7383 31.5448 28.6903 31.5715C28.6426 31.5984 28.5566 31.6485 28.4992 31.6834C28.4041 31.7409 28.2902 31.8066 28.0607 31.9368C28.015 31.9626 27.954 32.0012 27.9255 32.0226C27.8967 32.044 27.7871 32.1087 27.682 32.1662C27.5768 32.224 27.436 32.3042 27.369 32.3445C27.2678 32.4053 27.0469 32.5338 26.6646 32.7534C26.631 32.7727 25.2108 33.5969 23.5087 34.5849L20.414 36.3811L20.1968 36.2438C20.0773 36.1684 19.8895 36.0655 19.7796 36.0153L19.5797 35.9238V32.8802V29.8366L20.0752 29.8566C20.7502 29.8841 21.5255 29.7841 21.8921 29.6227C21.9303 29.6057 22.1103 29.5276 22.2921 29.4489C22.6271 29.3036 23.0455 29.0605 23.2883 28.8699C23.4592 28.7357 24.1002 28.0862 24.1002 28.0471C24.1002 28.0308 24.1204 27.9968 24.1448 27.9714C24.1928 27.9216 24.381 27.6111 24.4188 27.5194C24.4371 27.4747 24.5208 27.4593 24.8361 27.4427C25.3671 27.415 26.0143 27.2486 26.3779 27.0466C26.5618 26.9446 26.3268 26.8274 28.7016 28.2046Z" fill="#FCFCFC"/>
<path fill-rule="evenodd" clip-rule="evenodd" d="M18.1715 1.58307C17.7742 1.68698 17.4525 1.90111 17.1965 2.23197C16.8604 2.66653 16.8574 3.59674 17.1909 4.03739C17.7661 4.79798 18.759 4.93863 19.506 4.36552C20.352 3.71619 20.1985 2.21832 19.2379 1.7508C19.1296 1.69811 19.0111 1.64017 18.9748 1.62211C18.9005 1.58496 18.2789 1.55473 18.1715 1.58307ZM2.69693 10.5529C0.955585 11.0653 1.28587 13.6177 3.09691 13.6441C4.17518 13.6599 4.92943 12.6618 4.62293 11.6244C4.58266 11.4875 4.53947 11.3678 4.52737 11.3582C4.51506 11.3485 4.48168 11.2948 4.45289 11.2389C4.17351 10.6927 3.33497 10.365 2.69693 10.5529ZM33.4399 10.5585C32.7743 10.7452 32.3065 11.3737 32.3074 12.0808C32.309 13.5056 34.0435 14.1914 35.0235 13.155C35.3398 12.8203 35.4193 12.5997 35.4193 12.0579C35.4193 11.4738 35.3133 11.2463 34.8455 10.8256C34.523 10.5354 33.9265 10.4221 33.4399 10.5585ZM17.1107 13.5492C15.8966 13.7757 14.8749 14.4719 14.4722 15.3469C14.4411 15.4143 14.408 15.4773 14.3984 15.4869C14.371 15.5144 14.2246 15.8354 14.2246 15.8675C14.2246 15.8837 14.3487 15.907 14.5004 15.9198C14.95 15.9576 15.4618 16.105 15.8255 16.3014C16.1589 16.4816 16.1539 16.4782 16.4399 16.7129L16.6559 16.8901L16.8051 16.8471C16.8873 16.8236 16.9699 16.7931 16.9891 16.7795C17.0083 16.766 17.1139 16.7289 17.2238 16.6972C17.4508 16.6317 17.4475 16.6401 17.3551 16.3642C17.1706 15.8134 17.1957 15.4869 17.422 15.4869C17.5666 15.4869 17.6188 15.5581 17.6442 15.7903C17.6659 15.9884 17.7734 16.3785 17.8385 16.4956C17.865 16.5431 17.938 16.5548 18.247 16.5607C18.8056 16.5714 19.1815 16.6646 19.7015 16.9218C20.1432 17.1401 20.1503 17.1454 20.5978 17.5963C20.9342 17.9354 21.0403 18.0072 21.0403 17.8961C21.0403 17.8455 21.2607 17.3962 21.2924 17.382C21.3068 17.3757 21.3191 17.352 21.3199 17.3295C21.3274 17.1141 21.8651 16.6166 22.0093 16.6915C22.1706 16.7755 22.153 16.8813 21.9321 17.1594C21.7283 17.416 21.5411 17.7263 21.4424 17.971C21.3268 18.2578 21.2509 18.5435 21.2801 18.5813C21.342 18.6611 21.461 19.1232 21.4983 19.4284L21.5375 19.7496L21.7671 19.8271C22.8921 20.2066 23.7851 21.2428 23.996 22.4136C24.0624 22.7821 24.0336 22.7644 24.5683 22.7644C24.8245 22.7644 25.1125 22.7464 25.2082 22.7241C25.4144 22.6763 25.5608 22.7416 25.5608 22.8812C25.5608 23.1005 25.2938 23.1814 24.5612 23.183L24.0657 23.1843V23.3155C24.0655 23.4795 23.9824 23.8949 23.8854 24.2155C23.8205 24.4298 23.8166 24.4808 23.8529 24.6354C23.952 25.0571 23.9672 25.2139 23.9476 25.6084L23.9269 26.0203L24.016 26.0545C24.0649 26.0732 24.2837 26.0885 24.502 26.0885C26.062 26.0885 27.3652 24.9683 27.5757 23.4465C27.6383 22.9926 27.5803 22.1474 27.477 22.0143C27.4612 21.994 27.438 21.9335 27.4253 21.88C27.3279 21.4704 26.6738 20.6363 26.2725 20.4105C26.0779 20.3009 26.1709 20.0055 26.4017 20.0009C26.4146 20.0007 26.4459 20.02 26.4712 20.0441C26.95 20.4997 26.9926 20.5093 27.1501 20.1965C27.6102 19.2829 27.345 18.22 26.4931 17.5636C26.1377 17.29 25.3514 17.1513 24.932 17.2883C24.5477 17.4139 24.2174 17.5787 24.0717 17.7172C23.9681 17.8163 23.7527 17.7046 23.7527 17.5518C23.7527 17.4137 24.4125 16.9545 24.609 16.956C24.6307 16.9562 24.6647 16.9365 24.6847 16.9121C24.7211 16.8681 24.7158 16.8223 24.6176 16.3266C24.5798 16.136 24.354 15.5919 24.3127 15.5919C24.3008 15.5919 24.2714 15.5467 24.2472 15.4915C24.1955 15.3742 23.8735 15.0301 23.6459 14.8491C22.6914 14.09 21.2688 14.0753 20.3472 14.8153C20.0149 15.0822 19.647 15.4922 19.5878 15.6618C19.5149 15.8702 19.2827 15.9374 19.1801 15.7796C19.1217 15.6899 19.2183 15.3469 19.3019 15.3469C19.3146 15.3469 19.3428 15.308 19.3643 15.2606C19.4148 15.1491 19.5427 15.0005 19.8217 14.7291L20.0459 14.5109L19.9458 14.4173C19.6065 14.1011 18.9858 13.7709 18.4323 13.6124C18.2445 13.5585 17.3019 13.5135 17.1107 13.5492ZM13.8073 16.2943C13.6447 16.3096 13.449 16.3405 13.3727 16.3628C13.0837 16.4465 12.6249 16.622 12.6249 16.6487C12.6249 16.664 12.609 16.6764 12.5894 16.6764C12.4052 16.6764 11.547 17.5073 11.547 17.6855C11.547 17.7078 11.5324 17.7261 11.5149 17.7261C11.4971 17.7261 11.464 17.7853 11.4408 17.8573C11.4177 17.9295 11.3872 18.0042 11.373 18.0235C11.3148 18.1029 11.2593 18.4562 11.2555 18.7717L11.2514 19.1083L11.3757 19.0973C11.4442 19.0915 11.6 19.0658 11.7223 19.0404C12.0392 18.9747 12.1938 19.1038 12.0546 19.3178C11.9952 19.4091 11.9893 19.411 11.5906 19.4758C11.4519 19.4985 11.3309 19.5294 11.3215 19.5447C11.3121 19.56 11.2491 19.5829 11.1817 19.5957C11.0667 19.6175 10.7158 19.7756 10.6776 19.8231C10.668 19.8348 10.6133 19.8745 10.556 19.9112C9.49249 20.5908 9.07812 22.1913 9.64522 23.4293C10.1239 24.4743 11.324 25.1772 12.4267 25.0584L12.6457 25.0347L12.6449 24.4332C12.6439 23.6938 12.7799 23.1616 13.0824 22.7241C13.1356 22.6471 13.1701 22.5199 13.1379 22.5194C13.1331 22.5194 13.0155 22.4726 12.8765 22.4157C12.4135 22.226 11.6745 22.2012 11.2908 22.3624C11.0363 22.4695 10.8862 22.4164 10.8862 22.2195C10.8862 22.084 10.9161 22.0586 11.1825 21.9673C11.8022 21.7547 12.5687 21.8107 13.2235 22.116C13.4263 22.2106 13.516 22.2043 13.5884 22.0906C13.6399 22.0095 14.0147 21.7299 14.2198 21.6193C14.3483 21.55 14.4914 21.5643 14.553 21.6526C14.6539 21.7979 14.5987 21.8821 14.2832 22.062C13.0545 22.7632 12.6524 24.6639 13.4722 25.896C14.2208 27.0212 15.6283 27.3691 16.8574 26.7328C17.1909 26.5602 17.247 26.5648 17.3546 26.7737C17.6724 27.389 18.3801 28.027 18.9842 28.2426C19.0726 28.2743 19.1763 28.3136 19.2147 28.3302C19.6024 28.4979 20.6971 28.5489 21.1271 28.4192C22.3909 28.0382 23.1074 27.3966 23.4742 26.318C23.6125 25.9109 23.6351 24.9066 23.5088 24.7794C23.4898 24.7605 23.4744 24.7193 23.4744 24.6881C23.4744 24.6257 23.1717 23.9829 23.1289 23.9543C23.1143 23.9447 23.0832 23.9 23.0596 23.855C22.9816 23.7062 22.7385 23.4415 22.4343 23.1742C22.2192 22.9853 22.248 22.7693 22.489 22.7657C22.644 22.7634 23.1781 23.2815 23.4337 23.6823C23.5902 23.9279 23.5958 23.9285 23.6513 23.7005C23.9614 22.4292 23.0748 20.6588 21.9352 20.2732C21.8735 20.2524 21.8071 20.2234 21.7879 20.2091C21.6629 20.1151 20.791 20.0471 20.4075 20.1012C19.8569 20.1791 19.3094 20.4451 18.8944 20.8364C18.6653 21.0526 18.4323 21.0426 18.4323 20.8163C18.4323 20.6433 19.0372 20.1487 19.4978 19.9448C19.6099 19.8953 19.7328 19.8401 19.771 19.822C19.9379 19.7435 20.3593 19.674 20.7549 19.66C21.133 19.6465 21.1803 19.6379 21.166 19.5865C21.157 19.5544 21.1309 19.4103 21.108 19.2667C20.7343 16.9291 17.6782 16.1207 15.9565 17.9039C15.6732 18.1971 15.5953 18.2307 15.4764 18.1111C15.3304 17.9639 15.6392 17.5394 16.1441 17.1932C16.3442 17.0559 16.3433 17.0696 16.1618 16.9363C15.5826 16.511 14.7182 16.2206 14.1551 16.2622C14.1263 16.2643 13.9698 16.2788 13.8073 16.2943ZM14.4048 19.4685C14.7151 19.7872 15.4416 19.9576 15.9002 19.8193C16.085 19.7637 16.1914 19.8621 16.176 20.0752C16.1639 20.2444 15.4505 20.341 15.0243 20.2308C14.6064 20.1229 14.1257 19.8394 14.0184 19.6377C13.9003 19.4158 14.2181 19.2766 14.4048 19.4685ZM25.1002 19.4985C25.2654 19.6801 25.134 19.8453 24.8525 19.8101C24.5767 19.7754 24.1406 19.8968 23.9555 20.0599C23.8731 20.1325 23.754 20.1038 23.6712 19.9916L23.6 19.8955L23.6705 19.7991C23.9226 19.4551 24.8777 19.2542 25.1002 19.4985ZM17.5099 20.5312C17.6534 20.5971 17.6586 20.7149 17.5264 20.9002C17.3853 21.098 17.2151 21.4282 17.2151 21.5044C17.2151 21.5355 17.1959 21.5804 17.1721 21.6041C17.0757 21.7013 17.0932 22.6085 17.1975 22.9196C17.5191 23.8777 18.2533 24.3914 19.3015 24.3914C20.0303 24.3914 20.3775 24.2401 20.925 23.6829C21.1221 23.4822 21.3533 23.5168 21.3533 23.7469C21.3533 23.8914 20.7975 24.3811 20.4057 24.5818C20.3105 24.6305 20.2826 24.7147 20.3403 24.7781C20.4641 24.9135 20.5809 25.8475 20.4883 25.9605C20.3322 26.1507 20.1532 25.9966 20.1219 25.6449C20.0985 25.3821 20.0318 25.0844 19.9544 24.8982L19.9176 24.8102H19.3228C18.3096 24.8102 17.6488 24.4657 17.108 23.6558C16.9134 23.3642 16.9326 23.3747 16.7239 23.4471C16.3538 23.576 16.0179 23.8015 15.7545 24.0979C15.3318 24.5741 15.3627 24.5541 15.2202 24.4414C15.1219 24.3635 15.1 24.2346 15.1722 24.1578C15.196 24.1324 15.2582 24.0543 15.3101 23.9841C15.4627 23.7786 15.6853 23.5727 15.9459 23.3961C16.1718 23.2429 16.291 23.1799 16.6348 23.0311L16.7671 22.9735L16.7391 22.8079C16.673 22.4183 16.708 21.6799 16.8051 21.4175C16.9901 20.9168 17.2284 20.5547 17.4135 20.4925C17.4172 20.4913 17.4606 20.5087 17.5099 20.5312ZM2.81857 28.385C1.36975 28.6694 1.08432 30.6646 2.39377 31.3536C3.28552 31.8228 4.38779 31.319 4.64025 30.3268C4.92025 29.2276 3.92585 28.1677 2.81857 28.385ZM33.5763 28.3869C32.6452 28.6014 32.0989 29.531 32.3819 30.4196C32.8142 31.7779 34.6517 31.9219 35.2841 30.6472L35.4193 30.3745V29.9372C35.4193 28.9249 34.5209 28.1692 33.5763 28.3869ZM18.0922 37.3567C17.1481 37.6021 16.6538 38.6901 17.0872 39.57C17.6893 40.793 19.3679 40.7532 19.951 39.5015C20.1384 39.0995 20.0679 38.3301 19.8125 37.9925C19.3779 37.4175 18.7503 37.1856 18.0922 37.3567Z" fill="#FC5CAC"/>
<path d="M55.62 20.448C56.316 20.676 56.868 21.06 57.276 21.6C57.684 22.128 57.888 22.788 57.888 23.58C57.888 24.672 57.468 25.518 56.628 26.118C55.788 26.706 54.564 27 52.956 27H46.692V14.4H52.596C54.084 14.4 55.23 14.694 56.034 15.282C56.838 15.858 57.24 16.656 57.24 17.676C57.24 18.3 57.096 18.852 56.808 19.332C56.52 19.812 56.124 20.184 55.62 20.448ZM49.032 16.236V19.71H52.344C53.16 19.71 53.784 19.566 54.216 19.278C54.66 18.978 54.882 18.546 54.882 17.982C54.882 17.406 54.66 16.974 54.216 16.686C53.784 16.386 53.16 16.236 52.344 16.236H49.032ZM52.812 25.164C54.624 25.164 55.53 24.558 55.53 23.346C55.53 22.134 54.624 21.528 52.812 21.528H49.032V25.164H52.812ZM62.3114 18.792C62.9594 17.784 64.0994 17.28 65.7314 17.28V19.422C65.5394 19.386 65.3654 19.368 65.2094 19.368C64.3334 19.368 63.6494 19.626 63.1574 20.142C62.6654 20.646 62.4194 21.378 62.4194 22.338V27H60.1694V17.388H62.3114V18.792ZM71.2593 17.28C72.6753 17.28 73.7553 17.622 74.4993 18.306C75.2553 18.978 75.6333 19.998 75.6333 21.366V27H73.5093V25.83C73.2333 26.25 72.8373 26.574 72.3213 26.802C71.8173 27.018 71.2053 27.126 70.4853 27.126C69.7653 27.126 69.1353 27.006 68.5953 26.766C68.0553 26.514 67.6353 26.172 67.3353 25.74C67.0473 25.296 66.9033 24.798 66.9033 24.246C66.9033 23.382 67.2213 22.692 67.8573 22.176C68.5053 21.648 69.5193 21.384 70.8993 21.384H73.3833V21.24C73.3833 20.568 73.1793 20.052 72.7713 19.692C72.3753 19.332 71.7813 19.152 70.9893 19.152C70.4493 19.152 69.9153 19.236 69.3873 19.404C68.8713 19.572 68.4333 19.806 68.0733 20.106L67.1913 18.468C67.6953 18.084 68.3013 17.79 69.0093 17.586C69.7173 17.382 70.4673 17.28 71.2593 17.28ZM70.9533 25.488C71.5173 25.488 72.0153 25.362 72.4473 25.11C72.8913 24.846 73.2033 24.474 73.3833 23.994V22.878H71.0613C69.7653 22.878 69.1173 23.304 69.1173 24.156C69.1173 24.564 69.2793 24.888 69.6033 25.128C69.9273 25.368 70.3773 25.488 70.9533 25.488ZM78.5209 17.388H80.7709V27H78.5209V17.388ZM79.6549 15.804C79.2469 15.804 78.9049 15.678 78.6289 15.426C78.3529 15.162 78.2149 14.838 78.2149 14.454C78.2149 14.07 78.3529 13.752 78.6289 13.5C78.9049 13.236 79.2469 13.104 79.6549 13.104C80.0629 13.104 80.4049 13.23 80.6809 13.482C80.9569 13.722 81.0949 14.028 81.0949 14.4C81.0949 14.796 80.9569 15.132 80.6809 15.408C80.4169 15.672 80.0749 15.804 79.6549 15.804ZM89.178 17.28C90.39 17.28 91.362 17.634 92.094 18.342C92.826 19.05 93.192 20.1 93.192 21.492V27H90.942V21.78C90.942 20.94 90.744 20.31 90.348 19.89C89.952 19.458 89.388 19.242 88.656 19.242C87.828 19.242 87.174 19.494 86.694 19.998C86.214 20.49 85.974 21.204 85.974 22.14V27H83.724V17.388H85.866V18.63C86.238 18.186 86.706 17.85 87.27 17.622C87.834 17.394 88.47 17.28 89.178 17.28ZM96.2623 14.4H101.77C103.114 14.4 104.308 14.664 105.352 15.192C106.396 15.708 107.206 16.446 107.782 17.406C108.358 18.354 108.646 19.452 108.646 20.7C108.646 21.948 108.358 23.052 107.782 24.012C107.206 24.96 106.396 25.698 105.352 26.226C104.308 26.742 103.114 27 101.77 27H96.2623V14.4ZM101.662 25.02C102.586 25.02 103.396 24.846 104.092 24.498C104.8 24.138 105.34 23.634 105.712 22.986C106.096 22.326 106.288 21.564 106.288 20.7C106.288 19.836 106.096 19.08 105.712 18.432C105.34 17.772 104.8 17.268 104.092 16.92C103.396 16.56 102.586 16.38 101.662 16.38H98.6023V25.02H101.662ZM119.13 24.084H112.83L111.588 27H109.176L114.846 14.4H117.15L122.838 27H120.39L119.13 24.084ZM118.356 22.248L115.98 16.74L113.622 22.248H118.356ZM130.15 27.18C128.866 27.18 127.708 26.904 126.676 26.352C125.644 25.788 124.834 25.014 124.246 24.03C123.658 23.034 123.364 21.924 123.364 20.7C123.364 19.476 123.658 18.372 124.246 17.388C124.834 16.392 125.644 15.618 126.676 15.066C127.708 14.502 128.866 14.22 130.15 14.22C131.434 14.22 132.592 14.502 133.624 15.066C134.656 15.618 135.466 16.386 136.054 17.37C136.642 18.354 136.936 19.464 136.936 20.7C136.936 21.936 136.642 23.046 136.054 24.03C135.466 25.014 134.656 25.788 133.624 26.352C132.592 26.904 131.434 27.18 130.15 27.18ZM130.15 25.128C130.99 25.128 131.746 24.942 132.418 24.57C133.09 24.186 133.618 23.658 134.002 22.986C134.386 22.302 134.578 21.54 134.578 20.7C134.578 19.86 134.386 19.104 134.002 18.432C133.618 17.748 133.09 17.22 132.418 16.848C131.746 16.464 130.99 16.272 130.15 16.272C129.31 16.272 128.554 16.464 127.882 16.848C127.21 17.22 126.682 17.748 126.298 18.432C125.914 19.104 125.722 19.86 125.722 20.7C125.722 21.54 125.914 22.302 126.298 22.986C126.682 23.658 127.21 24.186 127.882 24.57C128.554 24.942 129.31 25.128 130.15 25.128Z" fill="white"/>
</svg>
