<svg width="25" height="20" viewBox="0 0 25 20" fill="none" xmlns="http://www.w3.org/2000/svg">
<g clip-path="url(#clip0_3155_179490)">
<path d="M22.9301 12.169C22.9301 12.6297 22.8456 13.0703 22.6908 13.4765C22.1614 14.8639 20.8163 15.8495 19.24 15.8495C17.6267 15.8495 16.2559 14.8171 15.754 13.3783C12.7737 13.592 11.0696 12.2634 10.361 9.73092C8.57106 9.24535 7.25537 7.61293 7.25537 5.67354C7.25537 4.41925 7.80603 3.29297 8.67937 2.52308C9.42249 1.86685 10.3999 1.46875 11.4705 1.46875C12.6972 1.46875 13.8017 1.99116 14.5711 2.82621C15.0886 2.48867 15.707 2.29302 16.3711 2.29302C16.8347 2.29302 17.2765 2.38869 17.6768 2.56118C18.8352 3.05992 19.6497 4.20232 19.6679 5.53672C19.6685 5.55233 19.6685 5.56733 19.6685 5.58298L19.6679 5.63862V5.63923C19.8363 5.60234 20.0111 5.58298 20.191 5.58298C20.9942 5.58298 21.7078 5.96674 22.1576 6.56044H22.1583C22.4702 6.97231 22.6551 7.48539 22.6551 8.04164C22.6562 8.61852 22.4524 9.17715 22.0799 9.61842C22.0519 9.65245 22.0229 9.6856 21.9928 9.71779C22.5761 10.3684 22.9301 11.2277 22.9301 12.169" fill="#EEEFF0"/>
<path d="M16.3283 5.3747C15.6607 6.09848 15.253 7.06459 15.253 8.12576C15.253 10.3701 17.0769 12.1895 19.3268 12.1895C19.6171 12.1896 19.9065 12.159 20.1903 12.098M11.2905 4.06295C11.3924 5.53065 12.6183 6.68974 14.1155 6.68974M18.6189 6.14469C18.9217 5.89373 19.2809 5.71964 19.6658 5.63729M14.5691 2.82422C14.0949 3.13227 13.7051 3.5592 13.4427 4.06295" stroke="#103849" stroke-width="0.503339" stroke-miterlimit="10" stroke-linecap="round" stroke-linejoin="round"/>
<path d="M22.9262 12.169C22.9262 14.202 21.2741 15.8495 19.2361 15.8495C17.6228 15.8495 16.252 14.8171 15.7501 13.3783C12.7698 13.592 11.0657 12.2634 10.3571 9.73092C8.56715 9.24535 7.25146 7.61293 7.25146 5.67354C7.25146 3.35119 9.13849 1.46875 11.4666 1.46875C12.6933 1.46875 13.7978 1.99116 14.5672 2.82621C15.0847 2.48867 15.703 2.29302 16.3672 2.29302C18.1885 2.29302 19.6646 3.76616 19.6646 5.58298L19.664 5.63862V5.63923C19.8324 5.60234 20.0072 5.58298 20.1871 5.58298C21.5478 5.58298 22.6512 6.68353 22.6512 8.04164C22.6512 8.68976 22.3999 9.27849 21.9889 9.71779C22.5722 10.3684 22.9262 11.2277 22.9262 12.169L22.9262 12.169Z" stroke="#103849" stroke-width="0.440392" stroke-miterlimit="10" stroke-linejoin="round"/>
<path d="M21.9903 9.71757C21.9903 9.71757 21.7042 9.42147 21.313 9.11328M10.9868 16.3924C10.8253 16.0559 10.722 15.6945 10.6812 15.3236" stroke="#103849" stroke-width="0.503339" stroke-miterlimit="10" stroke-linecap="round" stroke-linejoin="round"/>
<path d="M18.2315 13.833C18.362 14.194 18.4285 14.5749 18.4282 14.9586C18.4282 16.9323 16.6915 18.5316 14.5488 18.5316C12.96 18.5316 11.5948 17.6522 10.9958 16.3929C10.5022 16.7273 9.91006 16.9223 9.27416 16.9223C7.84829 16.9223 6.64533 15.9436 6.2682 14.6048C5.99894 14.6718 5.72246 14.7056 5.44496 14.7055C3.58232 14.7055 2.07178 13.1992 2.07178 11.3405C2.07178 9.91308 2.96329 8.69315 4.22132 8.20501C4.17185 8.00069 4.14553 7.78882 4.14553 7.57133C4.14553 5.88575 5.71561 4.51953 7.65277 4.51953C8.76485 4.51953 9.75716 4.97069 10.3994 5.67318C10.9144 5.39757 11.5083 5.23951 12.1411 5.23951C14.104 5.23951 15.6953 6.7576 15.6953 8.63001C15.6955 8.67417 15.6944 8.71833 15.6921 8.76243C17.3117 9.05867 18.5428 10.5425 18.5428 12.3286C18.5428 12.8655 18.4319 13.3748 18.2315 13.8329" fill="#EEEFF0"/>
<path d="M16.968 12.168C17.5462 12.5942 17.9886 13.1705 18.2267 13.8317M6.26338 14.6035C6.18317 14.3198 6.14055 14.0204 6.14055 13.7104C6.14055 12.4454 6.85417 11.3511 7.89046 10.828M5.09496 7.99244C4.78798 8.02371 4.4935 8.09561 4.21655 8.2037M10.3953 5.67248L10.3946 5.67188M10.3946 5.67188C9.95421 5.90938 9.57205 6.23319 9.2732 6.61942" stroke="#103849" stroke-width="0.503339" stroke-miterlimit="10" stroke-linecap="round" stroke-linejoin="round"/>
<path d="M18.2279 13.833C18.3583 14.194 18.4248 14.5749 18.4245 14.9586C18.4245 16.9323 16.6879 18.5316 14.5451 18.5316C12.9563 18.5316 11.5911 17.6522 10.9922 16.3929C10.4986 16.7273 9.9064 16.9223 9.2705 16.9223C7.84463 16.9223 6.64167 15.9436 6.26454 14.6048C5.99528 14.6718 5.7188 14.7056 5.4413 14.7055C3.57866 14.7055 2.06812 13.1992 2.06812 11.3405C2.06812 9.91308 2.95963 8.69315 4.21766 8.20501C4.16818 8.00069 4.14187 7.78882 4.14187 7.57133C4.14187 5.88575 5.71195 4.51953 7.64911 4.51953C8.76119 4.51953 9.7535 4.97069 10.3957 5.67318C10.9107 5.39757 11.5047 5.23951 12.1375 5.23951C14.1003 5.23951 15.6916 6.7576 15.6916 8.63001C15.6918 8.67417 15.6908 8.71833 15.6885 8.76243C17.3081 9.05867 18.5391 10.5425 18.5391 12.3286C18.5391 12.8655 18.4283 13.3748 18.2278 13.8329L18.2279 13.833Z" stroke="#103849" stroke-width="0.440392" stroke-miterlimit="10" stroke-linejoin="round"/>
<path d="M12.652 9.77155C13.276 9.11658 14.1375 8.71094 15.0885 8.71094C15.2915 8.71094 15.4901 8.72908 15.6837 8.76461M15.4605 13.0219C14.9689 13.6351 14.2125 14.0279 13.3641 14.0279C11.8825 14.0279 10.6814 12.8297 10.6814 11.3518C10.6805 10.7347 10.8942 10.1363 11.2862 9.65891" stroke="#103849" stroke-width="0.503339" stroke-miterlimit="10" stroke-linecap="round" stroke-linejoin="round"/>
<path d="M14.5553 15.3511C14.5553 14.8255 14.4224 14.3313 14.188 13.8994M8.94852 13.6419C9.39083 12.9882 10.0794 12.515 10.882 12.3544M4.16577 11.3431C4.5056 11.2088 4.86784 11.1399 5.23336 11.14C5.81944 11.1392 6.39183 11.3167 6.87416 11.6488M9.68131 8.88011C9.49876 8.93373 9.30554 8.96247 9.10556 8.96247C8.57478 8.96316 8.06484 8.75649 7.68495 8.38672M18.486 8.74961C18.7668 8.5406 19.1079 8.42794 19.4583 8.42848C19.5557 8.42843 19.6529 8.43704 19.7487 8.45422" stroke="#103849" stroke-width="0.503339" stroke-miterlimit="10" stroke-linecap="round" stroke-linejoin="round"/>
<path d="M22.2851 9.71916C22.6686 9.24456 22.8777 8.65607 22.8777 8.04165C22.8777 6.56532 21.6739 5.36418 20.1943 5.36418C20.0909 5.36418 19.9877 5.37018 19.8854 5.382C19.7807 3.54043 18.2459 2.07432 16.3744 2.07432C15.7504 2.07432 15.1442 2.2373 14.6102 2.54723C13.7781 1.71773 12.6502 1.25123 11.4738 1.25C9.50209 1.25 7.8276 2.54066 7.25279 4.31923C5.38391 4.49365 3.92307 5.88532 3.92307 7.57104C3.92307 7.7388 3.93778 7.90684 3.96677 8.07258C2.6743 8.65044 1.84937 9.91354 1.84937 11.3403C1.84937 13.3163 3.46094 14.9239 5.4418 14.9239C5.668 14.9239 5.89372 14.9029 6.11599 14.861C6.58616 16.2132 7.85551 17.1407 9.27105 17.1407C9.84542 17.1411 10.4097 16.9905 10.9072 16.704C11.6075 17.9546 13.0083 18.75 14.5456 18.75C16.4173 18.75 17.9988 17.5829 18.4875 15.9944C18.7333 16.0427 18.9861 16.0682 19.2432 16.0682C21.3989 16.0682 23.1527 14.3189 23.1527 12.169C23.1527 11.2733 22.846 10.4107 22.2851 9.71911V9.71916Z" stroke="#103849" stroke-width="0.880831" stroke-miterlimit="10" stroke-linejoin="round"/>
<path d="M11.4727 0C10.3145 0 9.20036 0.344052 8.25086 0.994891C7.431 1.55686 6.78109 2.31485 6.35181 3.20488C4.26217 3.71004 2.76816 5.3875 2.67371 7.3711C1.38035 8.2669 0.595215 9.74599 0.595215 11.3403C0.595215 13.9775 2.72371 16.1283 5.35691 16.1731C6.18838 17.5359 7.67059 18.3906 9.26995 18.3906C9.67851 18.3906 10.08 18.3366 10.4695 18.2296C11.4774 19.3478 12.9583 20 14.5445 20C15.619 20 16.6598 19.696 17.5544 19.1212C18.2814 18.6542 18.8671 18.0377 19.2725 17.318C22.1053 17.3018 24.4046 14.9982 24.4046 12.169C24.4046 11.2948 24.1854 10.4467 23.7667 9.68829C24.006 9.17215 24.1299 8.61025 24.1297 8.04158C24.1297 7.01163 23.7317 6.03769 23.0091 5.29929C22.4392 4.71693 21.7179 4.33224 20.9329 4.18337C20.6675 3.32413 20.1594 2.54997 19.4651 1.95992C18.6023 1.2273 17.5064 0.824738 16.3734 0.824224C15.8453 0.824224 15.3152 0.913612 14.8158 1.08489C13.8457 0.382254 12.6765 0 11.4727 0ZM11.4727 0.812459C12.647 0.812459 13.7987 1.24749 14.6808 2.01556C15.2099 1.766 15.788 1.63663 16.3733 1.63678C18.3228 1.63678 19.9597 3.05105 20.2742 4.92772C21.9582 4.9708 23.3151 6.35113 23.3151 8.04163C23.3145 8.63395 23.1451 9.21391 22.8267 9.71384C23.321 10.4324 23.5901 11.292 23.5901 12.169C23.5901 14.5603 21.6395 16.5058 19.2421 16.5058C19.087 16.5058 18.9314 16.4973 18.7765 16.4806C18.1074 18.0918 16.4213 19.1875 14.5445 19.1875C12.9967 19.1875 11.5784 18.4634 10.7462 17.2729C10.2801 17.4741 9.77776 17.578 9.26995 17.5782C7.79037 17.5782 6.45213 16.6933 5.83592 15.3422C5.70463 15.355 5.57254 15.3614 5.44069 15.3614C3.21803 15.3614 1.40972 13.5576 1.40972 11.3403C1.40972 9.86819 2.21736 8.51959 3.49278 7.81926C3.48659 7.73665 3.48349 7.65385 3.48347 7.57101C3.48347 5.75237 4.94576 4.22443 6.92897 3.91844C7.65349 2.04926 9.44517 0.812459 11.4728 0.812459" fill="#EEEFF0"/>
</g>
<defs>
<clipPath id="clip0_3155_179490">
<rect width="23.8095" height="20" fill="white" transform="translate(0.595215)"/>
</clipPath>
</defs>
</svg>
