<svg width="21" height="16" viewBox="0 0 21 16" fill="none" xmlns="http://www.w3.org/2000/svg">
<g clip-path="url(#clip0_1934_12648)">
<path d="M18.8445 9.73504C18.8445 10.1035 18.7769 10.456 18.6531 10.781C18.2295 11.891 17.1534 12.6794 15.8924 12.6794C14.6018 12.6794 13.5051 11.8535 13.1036 10.7025C10.7194 10.8734 9.35606 9.81049 8.78919 7.78454C7.35724 7.39609 6.30469 6.09015 6.30469 4.53864C6.30469 3.53521 6.74522 2.63418 7.44388 2.01827C8.03838 1.49328 8.82028 1.1748 9.67683 1.1748C10.6581 1.1748 11.5418 1.59273 12.1573 2.26077C12.5713 1.99074 13.066 1.83422 13.5973 1.83422C13.9681 1.83422 14.3216 1.91076 14.6418 2.04875C15.5686 2.44774 16.2202 3.36166 16.2347 4.42918C16.2352 4.44167 16.2352 4.45367 16.2352 4.46619L16.2347 4.5107V4.51119C16.3694 4.48168 16.5093 4.46619 16.6532 4.46619C17.2957 4.46619 17.8666 4.77319 18.2264 5.24815H18.227C18.4766 5.57766 18.6245 5.98812 18.6245 6.43312C18.6253 6.89462 18.4623 7.34152 18.1643 7.69454C18.1419 7.72177 18.1187 7.74828 18.0946 7.77404C18.5613 8.29452 18.8444 8.98199 18.8444 9.73504" fill="#EEEFF0"/>
<path d="M13.5654 4.30113C13.0313 4.88015 12.7051 5.65304 12.7051 6.50197C12.7051 8.29742 14.1643 9.75297 15.9642 9.75297C16.1964 9.75308 16.4279 9.72854 16.655 9.67977M9.53516 3.25172C9.61669 4.42589 10.5974 5.35316 11.7951 5.35316M15.3979 4.91712C15.6401 4.71635 15.9275 4.57708 16.2354 4.5112M12.158 2.26074C11.7786 2.50718 11.4668 2.84872 11.2569 3.25172" stroke="#103849" stroke-width="0.402671" stroke-miterlimit="10" stroke-linecap="round" stroke-linejoin="round"/>
<path d="M18.8445 9.735C18.8445 11.3614 17.5228 12.6794 15.8924 12.6794C14.6018 12.6794 13.5051 11.8535 13.1036 10.7025C10.7194 10.8734 9.35606 9.81049 8.78919 7.78454C7.35724 7.39609 6.30469 6.09015 6.30469 4.53864C6.30469 2.68076 7.8143 1.1748 9.67683 1.1748C10.6581 1.1748 11.5418 1.59273 12.1573 2.26077C12.5713 1.99074 13.066 1.83422 13.5973 1.83422C15.0543 1.83422 16.2352 3.01274 16.2352 4.46619L16.2347 4.5107V4.51119C16.3694 4.48168 16.5093 4.46619 16.6532 4.46619C17.7418 4.46619 18.6245 5.34663 18.6245 6.43312C18.6245 6.95161 18.4235 7.4226 18.0946 7.77404C18.5613 8.29452 18.8444 8.98199 18.8444 9.73504L18.8445 9.735Z" stroke="#103849" stroke-width="0.352314" stroke-miterlimit="10" stroke-linejoin="round"/>
<path d="M18.0942 7.77347C18.0942 7.77347 17.8653 7.53659 17.5523 7.29004M9.2914 13.1133C9.1622 12.8441 9.07953 12.555 9.04688 12.2583" stroke="#103849" stroke-width="0.402671" stroke-miterlimit="10" stroke-linecap="round" stroke-linejoin="round"/>
<path d="M15.0841 11.066C15.1884 11.3548 15.2416 11.6595 15.2414 11.9665C15.2414 13.5455 13.852 14.8249 12.1379 14.8249C10.8668 14.8249 9.77463 14.1214 9.29549 13.114C8.9006 13.3814 8.42688 13.5374 7.91816 13.5374C6.77746 13.5374 5.81509 12.7545 5.51339 11.6835C5.29798 11.7371 5.0768 11.7641 4.85479 11.764C3.36469 11.764 2.15625 10.559 2.15625 9.07203C2.15625 7.93008 2.86946 6.95413 3.87589 6.56362C3.8363 6.40016 3.81525 6.23067 3.81525 6.05667C3.81525 4.70821 5.07132 3.61523 6.62104 3.61523C7.51071 3.61523 8.30456 3.97616 8.81831 4.53816C9.23035 4.31766 9.7055 4.19122 10.2117 4.19122C11.782 4.19122 13.055 5.40569 13.055 6.90362C13.0552 6.93895 13.0544 6.97427 13.0525 7.00955C14.3482 7.24655 15.3331 8.43357 15.3331 9.8625C15.3331 10.292 15.2444 10.6995 15.084 11.066" fill="#EEEFF0"/>
<path d="M14.0762 9.73497C14.5387 10.0759 14.8927 10.537 15.0831 11.0659M5.51246 11.6834C5.4483 11.4564 5.4142 11.2169 5.4142 10.9689C5.4142 9.95689 5.9851 9.08148 6.81413 8.66299M4.57773 6.39454C4.33214 6.41955 4.09656 6.47707 3.875 6.56355M8.81799 4.53857L8.81743 4.53809M8.81743 4.53809C8.46512 4.72809 8.1594 4.98713 7.92032 5.29612" stroke="#103849" stroke-width="0.402671" stroke-miterlimit="10" stroke-linecap="round" stroke-linejoin="round"/>
<path d="M15.0841 11.066C15.1884 11.3548 15.2416 11.6595 15.2414 11.9665C15.2414 13.5455 13.852 14.8249 12.1379 14.8249C10.8668 14.8249 9.77463 14.1214 9.29549 13.114C8.9006 13.3814 8.42688 13.5374 7.91816 13.5374C6.77746 13.5374 5.81509 12.7545 5.51339 11.6835C5.29798 11.7371 5.0768 11.7641 4.85479 11.764C3.36469 11.764 2.15625 10.559 2.15625 9.07203C2.15625 7.93008 2.86946 6.95413 3.87589 6.56362C3.8363 6.40016 3.81525 6.23067 3.81525 6.05667C3.81525 4.70821 5.07132 3.61523 6.62104 3.61523C7.51071 3.61523 8.30456 3.97616 8.81831 4.53816C9.23035 4.31766 9.7055 4.19122 10.2117 4.19122C11.782 4.19122 13.055 5.40569 13.055 6.90362C13.0552 6.93895 13.0544 6.97427 13.0525 7.00955C14.3482 7.24655 15.3331 8.43357 15.3331 9.8625C15.3331 10.292 15.2444 10.6995 15.084 11.066L15.0841 11.066Z" stroke="#103849" stroke-width="0.352314" stroke-miterlimit="10" stroke-linejoin="round"/>
<path d="M10.6273 7.81528C11.1265 7.29131 11.8156 6.9668 12.5764 6.9668C12.7389 6.9668 12.8978 6.98131 13.0526 7.00973M12.8741 10.4155C12.4808 10.9061 11.8757 11.2204 11.197 11.2204C10.0116 11.2204 9.05078 10.2618 9.05078 9.07948C9.05003 8.58578 9.22105 8.10711 9.53466 7.72517" stroke="#103849" stroke-width="0.402671" stroke-miterlimit="10" stroke-linecap="round" stroke-linejoin="round"/>
<path d="M12.1475 12.2805C12.1475 11.86 12.0412 11.4646 11.8538 11.1191M7.66214 10.9131C8.01598 10.3901 8.56688 10.0116 9.20893 9.88315M3.83594 9.07411C4.1078 8.96668 4.39759 8.91154 4.69 8.91163C5.15887 8.91098 5.61678 9.05298 6.00264 9.31868M8.24837 7.1037C8.10233 7.1466 7.94775 7.16958 7.78777 7.16958C7.36315 7.17014 6.95519 7.0048 6.65128 6.70898M15.2921 6.9993C15.5168 6.83209 15.7897 6.74196 16.07 6.7424C16.1479 6.74235 16.2256 6.74924 16.3023 6.76298" stroke="#103849" stroke-width="0.402671" stroke-miterlimit="10" stroke-linecap="round" stroke-linejoin="round"/>
<path d="M18.3291 7.77533C18.6358 7.39565 18.8032 6.92485 18.8032 6.43332C18.8032 5.25226 17.8401 4.29135 16.6564 4.29135C16.5737 4.29135 16.4912 4.29615 16.4093 4.3056C16.3255 2.83234 15.0977 1.65945 13.6005 1.65945C13.1013 1.65945 12.6164 1.78984 12.1891 2.03778C11.5234 1.37419 10.6211 1.00098 9.68001 1C8.10265 1 6.76306 2.03253 6.30321 3.45539C4.8081 3.59492 3.63943 4.70826 3.63943 6.05683C3.63943 6.19104 3.6512 6.32547 3.67439 6.45807C2.64042 6.92035 1.98047 7.93083 1.98047 9.07222C1.98047 10.653 3.26973 11.9391 4.85441 11.9391C5.03538 11.9391 5.21595 11.9223 5.39377 11.8888C5.7699 12.9705 6.78539 13.7126 7.91782 13.7126C8.37731 13.7129 8.82877 13.5924 9.2267 13.3632C9.78695 14.3636 10.9077 15 12.1375 15C13.6348 15 14.9 14.0663 15.291 12.7955C15.4876 12.8342 15.6898 12.8545 15.8956 12.8545C17.6201 12.8545 19.0231 11.4551 19.0231 9.73517C19.0231 9.01864 18.7777 8.32855 18.3291 7.77529V7.77533Z" stroke="#103849" stroke-width="0.704665" stroke-miterlimit="10" stroke-linejoin="round"/>
<path d="M9.67854 0C8.75196 0 7.86068 0.275241 7.10108 0.795913C6.44519 1.24549 5.92527 1.85188 5.58183 2.56391C3.91013 2.96803 2.71492 4.31 2.63936 5.89688C1.60467 6.61352 0.976562 7.7968 0.976562 9.07221C0.976562 11.182 2.67936 12.9026 4.78592 12.9385C5.45109 14.0287 6.63686 14.7125 7.91635 14.7125C8.2432 14.7125 8.56442 14.6693 8.87597 14.5837C9.68234 15.4782 10.8671 16 12.136 16C12.9956 16 13.8282 15.7568 14.5439 15.297C15.1255 14.9233 15.5941 14.4302 15.9184 13.8544C18.1846 13.8415 20.0241 11.9985 20.0241 9.73519C20.0241 9.03587 19.8487 8.35733 19.5138 7.75063C19.7052 7.33772 19.8043 6.8882 19.8041 6.43326C19.8041 5.6093 19.4858 4.83015 18.9077 4.23943C18.4517 3.77355 17.8747 3.46579 17.2467 3.3467C17.0344 2.65931 16.6279 2.03997 16.0725 1.56794C15.3822 0.981842 14.5055 0.65979 13.5991 0.659379C13.1766 0.659379 12.7526 0.73089 12.3531 0.867911C11.577 0.305803 10.6416 0 9.67854 0ZM9.67854 0.649967C10.618 0.649967 11.5393 0.997994 12.245 1.61245C12.6683 1.4128 13.1308 1.30931 13.599 1.30942C15.1586 1.30942 16.4682 2.44084 16.7197 3.94218C18.067 3.97664 19.1525 5.0809 19.1525 6.4333C19.152 6.90716 19.0165 7.37112 18.7617 7.77107C19.1572 8.34589 19.3725 9.03362 19.3725 9.73522C19.3725 11.6483 17.812 13.2046 15.8941 13.2046C15.77 13.2046 15.6455 13.1979 15.5216 13.1845C14.9863 14.4734 13.6374 15.35 12.136 15.35C10.8978 15.35 9.76308 14.7707 9.09734 13.8183C8.72451 13.9793 8.3226 14.0624 7.91635 14.0626C6.73268 14.0626 5.66209 13.3546 5.16912 12.2738C5.06409 12.284 4.95843 12.2891 4.85295 12.2891C3.07482 12.2891 1.62816 10.8461 1.62816 9.07221C1.62816 7.89455 2.27428 6.81568 3.29461 6.25541C3.28966 6.18932 3.28718 6.12308 3.28717 6.05681C3.28717 4.60189 4.457 3.37954 6.04356 3.13475C6.62318 1.63941 8.05652 0.649967 9.67861 0.649967" fill="#EEEFF0"/>
</g>
<defs>
<clipPath id="clip0_1934_12648">
<rect width="19.0476" height="16" fill="white" transform="translate(0.976562)"/>
</clipPath>
</defs>
</svg>
