<svg width="20" height="16" viewBox="0 0 20 16" fill="none" xmlns="http://www.w3.org/2000/svg">
<g clip-path="url(#clip0_1934_12130)">
<path d="M18.3484 9.73504C18.3484 10.1035 18.2808 10.456 18.157 10.781C17.7334 11.891 16.6574 12.6794 15.3963 12.6794C14.1057 12.6794 13.009 11.8535 12.6075 10.7025C10.2233 10.8734 8.85997 9.81049 8.2931 7.78454C6.86114 7.39609 5.80859 6.09015 5.80859 4.53864C5.80859 3.53521 6.24912 2.63418 6.94779 2.01827C7.54229 1.49328 8.32418 1.1748 9.18073 1.1748C10.162 1.1748 11.0457 1.59273 11.6612 2.26077C12.0752 1.99074 12.5699 1.83422 13.1012 1.83422C13.472 1.83422 13.8255 1.91076 14.1458 2.04875C15.0725 2.44774 15.7241 3.36166 15.7386 4.42918C15.7391 4.44167 15.7391 4.45367 15.7391 4.46619L15.7386 4.5107V4.51119C15.8734 4.48168 16.0132 4.46619 16.1571 4.46619C16.7996 4.46619 17.3705 4.77319 17.7304 5.24815H17.7309C17.9805 5.57766 18.1284 5.98812 18.1284 6.43312C18.1293 6.89462 17.9662 7.34152 17.6683 7.69454C17.6459 7.72177 17.6226 7.74828 17.5985 7.77404C18.0652 8.29452 18.3483 8.98199 18.3483 9.73504" fill="#4A5568"/>
<path d="M13.0654 4.30113C12.5313 4.88015 12.2051 5.65304 12.2051 6.50197C12.2051 8.29742 13.6643 9.75297 15.4642 9.75297C15.6964 9.75308 15.9279 9.72854 16.155 9.67977M9.03516 3.25172C9.11669 4.42589 10.0974 5.35316 11.2951 5.35316M14.8979 4.91712C15.1401 4.71635 15.4275 4.57708 15.7354 4.5112M11.658 2.26074C11.2786 2.50718 10.9668 2.84872 10.7569 3.25172" stroke="white" stroke-width="0.402671" stroke-miterlimit="10" stroke-linecap="round" stroke-linejoin="round"/>
<path d="M18.3484 9.735C18.3484 11.3614 17.0267 12.6794 15.3963 12.6794C14.1057 12.6794 13.009 11.8535 12.6075 10.7025C10.2233 10.8734 8.85997 9.81049 8.2931 7.78454C6.86114 7.39609 5.80859 6.09015 5.80859 4.53864C5.80859 2.68076 7.31821 1.1748 9.18073 1.1748C10.162 1.1748 11.0457 1.59273 11.6612 2.26077C12.0752 1.99074 12.5699 1.83422 13.1012 1.83422C14.5582 1.83422 15.7391 3.01274 15.7391 4.46619L15.7386 4.5107V4.51119C15.8734 4.48168 16.0132 4.46619 16.1571 4.46619C17.2457 4.46619 18.1284 5.34663 18.1284 6.43312C18.1284 6.95161 17.9274 7.4226 17.5985 7.77404C18.0652 8.29452 18.3483 8.98199 18.3483 9.73504L18.3484 9.735Z" stroke="white" stroke-width="0.352314" stroke-miterlimit="10" stroke-linejoin="round"/>
<path d="M17.5942 7.77543C17.5942 7.77543 17.3653 7.53855 17.0523 7.29199M8.7914 13.1153C8.6622 12.8461 8.57953 12.557 8.54688 12.2603" stroke="white" stroke-width="0.402671" stroke-miterlimit="10" stroke-linecap="round" stroke-linejoin="round"/>
<path d="M14.5802 11.065C14.6845 11.3538 14.7377 11.6585 14.7375 11.9655C14.7375 13.5445 13.3481 14.8239 11.634 14.8239C10.3629 14.8239 9.27072 14.1204 8.79159 13.113C8.39669 13.3805 7.92297 13.5365 7.41425 13.5365C6.27355 13.5365 5.31119 12.7535 5.00948 11.6825C4.79407 11.7361 4.57289 11.7631 4.35089 11.763C2.86078 11.763 1.65234 10.558 1.65234 9.07105C1.65234 7.9291 2.36556 6.95315 3.37198 6.56264C3.3324 6.39918 3.31135 6.22969 3.31135 6.05569C3.31135 4.70724 4.56741 3.61426 6.11714 3.61426C7.0068 3.61426 7.80065 3.97518 8.31441 4.53718C8.72644 4.31669 9.20159 4.19024 9.70783 4.19024C11.2781 4.19024 12.5511 5.40471 12.5511 6.90264C12.5513 6.93797 12.5505 6.9733 12.5486 7.00858C13.8443 7.24557 14.8292 8.4326 14.8292 9.86153C14.8292 10.291 14.7405 10.6985 14.5801 11.065" fill="#4A5568"/>
<path d="M13.5723 9.734C14.0348 10.0749 14.3888 10.536 14.5792 11.0649M5.00856 11.6824C4.94439 11.4554 4.91029 11.2159 4.91029 10.9679C4.91029 9.95591 5.48119 9.0805 6.31022 8.66202M4.07382 6.39356C3.82824 6.41858 3.59266 6.4761 3.37109 6.56257M8.31408 4.5376L8.31352 4.53711M8.31352 4.53711C7.96122 4.72712 7.65549 4.98616 7.41641 5.29515" stroke="white" stroke-width="0.402671" stroke-miterlimit="10" stroke-linecap="round" stroke-linejoin="round"/>
<path d="M14.5841 11.064C14.6884 11.3528 14.7416 11.6575 14.7414 11.9645C14.7414 13.5435 13.352 14.8229 11.6379 14.8229C10.3668 14.8229 9.27463 14.1194 8.79549 13.112C8.4006 13.3795 7.92688 13.5355 7.41816 13.5355C6.27746 13.5355 5.31509 12.7525 5.01339 11.6815C4.79798 11.7351 4.5768 11.7621 4.35479 11.762C2.86469 11.762 1.65625 10.557 1.65625 9.07007C1.65625 7.92812 2.36946 6.95218 3.37589 6.56166C3.3363 6.39821 3.31525 6.22871 3.31525 6.05472C3.31525 4.70626 4.57132 3.61328 6.12105 3.61328C7.01071 3.61328 7.80456 3.97421 8.31831 4.5362C8.73035 4.31571 9.2055 4.18926 9.71174 4.18926C11.282 4.18926 12.555 5.40374 12.555 6.90167C12.5552 6.93699 12.5544 6.97232 12.5525 7.0076C13.8482 7.24459 14.8331 8.43162 14.8331 9.86055C14.8331 10.29 14.7444 10.6975 14.584 11.064L14.5841 11.064Z" stroke="white" stroke-width="0.352314" stroke-miterlimit="10" stroke-linejoin="round"/>
<path d="M10.1195 7.81528C10.6187 7.29131 11.3078 6.9668 12.0686 6.9668C12.2311 6.9668 12.39 6.98131 12.5448 7.00973M12.3663 10.4155C11.973 10.9061 11.3679 11.2204 10.6892 11.2204C9.50384 11.2204 8.54297 10.2618 8.54297 9.07948C8.54222 8.58578 8.71324 8.10711 9.02684 7.72517" stroke="white" stroke-width="0.402671" stroke-miterlimit="10" stroke-linecap="round" stroke-linejoin="round"/>
<path d="M11.6397 12.2805C11.6397 11.86 11.5334 11.4646 11.3459 11.1191M7.15432 10.9131C7.50817 10.3901 8.05906 10.0116 8.70112 9.88315M3.32812 9.07411C3.59999 8.96668 3.88978 8.91154 4.18219 8.91163C4.65106 8.91098 5.10897 9.05298 5.49483 9.31868M7.74056 7.1037C7.59451 7.1466 7.43994 7.16958 7.27995 7.16958C6.85533 7.17014 6.44738 7.0048 6.14346 6.70898M14.7843 6.9993C15.009 6.83209 15.2819 6.74196 15.5622 6.7424C15.64 6.74235 15.7178 6.74924 15.7945 6.76298" stroke="white" stroke-width="0.402671" stroke-miterlimit="10" stroke-linecap="round" stroke-linejoin="round"/>
<path d="M17.8291 7.77435C18.1358 7.39467 18.3032 6.92388 18.3032 6.43234C18.3032 5.25128 17.3401 4.29037 16.1564 4.29037C16.0737 4.29037 15.9912 4.29517 15.9093 4.30462C15.8255 2.83137 14.5977 1.65848 13.1005 1.65848C12.6013 1.65848 12.1164 1.78886 11.6891 2.0368C11.0234 1.37321 10.1211 1.00001 9.18001 0.999023C7.60265 0.999023 6.26306 2.03155 5.80321 3.45441C4.3081 3.59394 3.13943 4.70728 3.13943 6.05585C3.13943 6.19006 3.1512 6.32449 3.17439 6.45709C2.14042 6.91938 1.48047 7.92986 1.48047 9.07125C1.48047 10.652 2.76973 11.9381 4.35441 11.9381C4.53538 11.9382 4.71595 11.9213 4.89377 11.8878C5.2699 12.9696 6.28539 13.7116 7.41782 13.7116C7.87731 13.7119 8.32877 13.5914 8.7267 13.3622C9.28695 14.3627 10.4077 14.999 11.6375 14.999C13.1348 14.999 14.4 14.0653 14.791 12.7945C14.9876 12.8332 15.1898 12.8536 15.3956 12.8536C17.1201 12.8536 18.5231 11.4541 18.5231 9.73419C18.5231 9.01766 18.2777 8.32757 17.8291 7.77431V7.77435Z" stroke="white" stroke-width="0.704665" stroke-miterlimit="10" stroke-linejoin="round"/>
<path d="M9.17854 0C8.25196 0 7.36068 0.275241 6.60108 0.795913C5.94519 1.24549 5.42527 1.85188 5.08184 2.56391C3.41013 2.96803 2.21492 4.31 2.13936 5.89688C1.10467 6.61352 0.476562 7.7968 0.476562 9.07221C0.476562 11.182 2.17936 12.9026 4.28592 12.9385C4.95109 14.0287 6.13687 14.7125 7.41635 14.7125C7.7432 14.7125 8.06442 14.6693 8.37597 14.5837C9.18234 15.4782 10.3671 16 11.636 16C12.4956 16 13.3282 15.7568 14.0439 15.297C14.6255 14.9233 15.0941 14.4302 15.4184 13.8544C17.6846 13.8415 19.5241 11.9985 19.5241 9.73519C19.5241 9.03587 19.3487 8.35733 19.0138 7.75063C19.2052 7.33772 19.3043 6.8882 19.3041 6.43326C19.3041 5.6093 18.9858 4.83015 18.4077 4.23943C17.9518 3.77355 17.3747 3.46579 16.7467 3.3467C16.5344 2.65931 16.128 2.03997 15.5725 1.56794C14.8822 0.981842 14.0055 0.65979 13.0991 0.65938C12.6766 0.65938 12.2526 0.73089 11.8531 0.867911C11.077 0.305803 10.1416 0 9.17854 0ZM9.17854 0.649967C10.118 0.649967 11.0393 0.997994 11.745 1.61245C12.1683 1.4128 12.6308 1.30931 13.099 1.30942C14.6586 1.30942 15.9682 2.44084 16.2197 3.94218C17.567 3.97664 18.6525 5.0809 18.6525 6.4333C18.652 6.90716 18.5165 7.37113 18.2617 7.77107C18.6572 8.34589 18.8725 9.03362 18.8725 9.73522C18.8725 11.6483 17.312 13.2046 15.3941 13.2046C15.27 13.2046 15.1455 13.1979 15.0216 13.1845C14.4863 14.4734 13.1374 15.35 11.636 15.35C10.3978 15.35 9.26308 14.7707 8.59735 13.8183C8.22451 13.9793 7.8226 14.0624 7.41635 14.0626C6.23268 14.0626 5.16209 13.3546 4.66912 12.2738C4.5641 12.284 4.45843 12.2891 4.35295 12.2891C2.57482 12.2891 1.12816 10.8461 1.12816 9.07221C1.12816 7.89456 1.77428 6.81568 2.79461 6.25541C2.78966 6.18932 2.78718 6.12308 2.78717 6.05681C2.78717 4.60189 3.957 3.37955 5.54357 3.13475C6.12318 1.63941 7.55653 0.649967 9.17862 0.649967" fill="#F0F0F0"/>
</g>
<defs>
<clipPath id="clip0_1934_12130">
<rect width="19.0476" height="16" fill="white" transform="translate(0.476562)"/>
</clipPath>
</defs>
</svg>
