<svg width="17" height="16" viewBox="0 0 17 16" fill="none" xmlns="http://www.w3.org/2000/svg">
<path d="M15.2204 0H1.58604C0.93291 0 0.404785 0.515625 0.404785 1.15313V14.8438C0.404785 15.4813 0.93291 16 1.58604 16H15.2204C15.8735 16 16.4048 15.4813 16.4048 14.8469V1.15313C16.4048 0.515625 15.8735 0 15.2204 0ZM5.15166 13.6344H2.77666V5.99687H5.15166V13.6344ZM3.96416 4.95625C3.20166 4.95625 2.58604 4.34062 2.58604 3.58125C2.58604 2.82188 3.20166 2.20625 3.96416 2.20625C4.72354 2.20625 5.33916 2.82188 5.33916 3.58125C5.33916 4.3375 4.72354 4.95625 3.96416 4.95625ZM14.0392 13.6344H11.6673V9.92188C11.6673 9.0375 11.6517 7.89687 10.4329 7.89687C9.19853 7.89687 9.01103 8.8625 9.01103 9.85938V13.6344H6.64229V5.99687H8.91728V7.04063H8.94853C9.26416 6.44063 10.0392 5.80625 11.1923 5.80625C13.5954 5.80625 14.0392 7.3875 14.0392 9.44375V13.6344Z" fill="#D2D2D2"/>
</svg>
