<svg width="120" height="48" viewBox="0 0 120 48" fill="none" xmlns="http://www.w3.org/2000/svg">
<g id="Frame">
<path id="Vector" fill-rule="evenodd" clip-rule="evenodd" d="M102.731 17.5953C104.002 17.5953 105.033 16.5645 105.033 15.2928C105.033 14.0211 104.002 12.9902 102.731 12.9902C101.459 12.9902 100.428 14.0211 100.428 15.2928C100.428 16.5645 101.459 17.5953 102.731 17.5953ZM47.4697 15.005H52.2183L57.2337 26.9788H57.4471L62.4624 15.005H67.2111V32.8265H63.4762V21.2269H63.3251L58.612 32.7396H56.0687L51.3557 21.1834H51.2046V32.8265H47.4697V15.005ZM74.4274 33.0789C73.1231 33.0789 72.0412 32.7453 71.1815 32.0782C70.322 31.4111 69.8922 30.4161 69.8922 29.0934C69.8922 28.0956 70.1323 27.3124 70.6125 26.7439C71.0926 26.1754 71.7211 25.7605 72.4977 25.4995C73.2802 25.2326 74.122 25.0586 75.0231 24.9774C76.2088 24.8614 77.0566 24.7395 77.5664 24.612C78.0762 24.4843 78.3311 24.2058 78.3311 23.7766V23.7243C78.3311 23.1732 78.1533 22.7468 77.7976 22.4451C77.4478 22.1435 76.9498 21.9926 76.3037 21.9926C75.6219 21.9926 75.0794 22.1376 74.6763 22.4278C74.2732 22.7178 74.0064 23.0862 73.876 23.5329L70.3724 23.2545C70.6332 22.0362 71.2794 21.0703 72.3109 20.3567C73.3484 19.6431 74.6853 19.2864 76.3214 19.2864C77.3352 19.2864 78.2837 19.443 79.1671 19.7563C80.0504 20.0696 80.7618 20.5597 81.3012 21.2269C81.8467 21.8882 82.1194 22.7497 82.1194 23.8114V32.8265H78.5268V30.9731H78.42C78.0881 31.5937 77.5901 32.1013 76.9261 32.4959C76.2681 32.8846 75.4352 33.0789 74.4274 33.0789ZM75.5122 30.5205C76.3422 30.5205 77.024 30.2856 77.5575 29.8157C78.091 29.34 78.3578 28.7511 78.3578 28.0492V26.6308C78.2097 26.7294 77.9784 26.8165 77.6642 26.8919C77.3559 26.9673 77.024 27.0339 76.6682 27.092C76.3185 27.1442 76.0042 27.1906 75.7257 27.2312C75.0617 27.324 74.5251 27.5067 74.1161 27.7794C73.713 28.0521 73.5114 28.4495 73.5114 28.9716C73.5114 29.4821 73.6981 29.8679 74.0716 30.1289C74.4511 30.39 74.9313 30.5205 75.5122 30.5205ZM86.8813 36.9686C87.9306 37.6764 89.3742 38.0303 91.2119 38.0303C92.5161 38.0303 93.669 37.8388 94.6714 37.4559C95.673 37.073 96.4585 36.5045 97.0281 35.7504C97.6031 34.9962 97.8902 34.0651 97.8902 32.957V19.4604H94.1287V21.7055H93.9865C93.8204 21.34 93.5776 20.9716 93.2573 20.6004C92.937 20.2291 92.5188 19.9187 92.0034 19.6692C91.4876 19.414 90.8473 19.2864 90.0826 19.2864C89.0866 19.2864 88.1677 19.5416 87.3259 20.0521C86.49 20.5569 85.8172 21.3139 85.3073 22.3234C84.8034 23.3328 84.5515 24.5975 84.5515 26.1174C84.5515 27.5967 84.7975 28.8179 85.2896 29.7808C85.7875 30.7439 86.4545 31.4604 87.2903 31.9302C88.1322 32.4001 89.0659 32.6351 90.0915 32.6351C91.1823 32.6351 92.0419 32.4118 92.6702 31.965C93.2988 31.5125 93.7373 31.0107 93.9865 30.4597H94.1462V32.9049C94.1462 33.7809 93.8767 34.4102 93.3376 34.7931C92.8041 35.176 92.1249 35.3675 91.3008 35.3675C90.465 35.3675 89.8218 35.2166 89.3712 34.915C88.9266 34.6191 88.6272 34.2913 88.4731 33.9317L84.9694 34.3929C85.1947 35.4023 85.832 36.2609 86.8813 36.9686ZM93.4087 28.8585C92.9102 29.5198 92.2049 29.8505 91.292 29.8505C90.3612 29.8505 89.6498 29.514 89.1578 28.841C88.6657 28.1681 88.4197 27.2544 88.4197 26.1C88.4197 24.9629 88.6628 24.0348 89.1489 23.3153C89.641 22.596 90.3553 22.2363 91.292 22.2363C92.2109 22.2363 92.9195 22.5873 93.417 23.2893C93.9155 23.9912 94.1647 24.9281 94.1647 26.1C94.1647 27.2776 93.9127 28.1971 93.4087 28.8585ZM100.905 32.8265V19.4604H104.693V32.8265H100.905ZM110.289 32.2174C111.296 32.7975 112.5 33.0876 113.899 33.0876C115.114 33.0876 116.166 32.8729 117.056 32.4436C117.945 32.0086 118.642 31.4023 119.146 30.625C119.655 29.8476 119.94 28.9484 119.999 27.9274H116.425C116.312 28.6409 116.033 29.1921 115.588 29.5807C115.143 29.9636 114.595 30.155 113.943 30.155C113.06 30.155 112.352 29.8069 111.819 29.1109C111.291 28.4089 111.027 27.4198 111.027 26.1434C111.027 24.8788 111.293 23.9013 111.827 23.2109C112.36 22.5205 113.066 22.1754 113.943 22.1754C114.637 22.1754 115.197 22.3813 115.624 22.7932C116.056 23.1994 116.324 23.736 116.425 24.4031H119.999C119.946 23.3704 119.658 22.4712 119.137 21.7055C118.621 20.9398 117.913 20.3451 117.012 19.9216C116.116 19.4981 115.072 19.2864 113.881 19.2864C112.5 19.2864 111.308 19.5793 110.307 20.1652C109.304 20.7454 108.531 21.5546 107.985 22.5931C107.446 23.6257 107.176 24.8266 107.176 26.1957C107.176 27.5473 107.443 28.7424 107.977 29.7808C108.516 30.8193 109.287 31.6315 110.289 32.2174Z" fill="black" fill-opacity="0.92"/>
<path id="Vector_2" fill-rule="evenodd" clip-rule="evenodd" d="M17.9606 2.30859C19.8348 4.60406 21.902 6.73579 24.1373 8.67907C22.6477 13.5102 21.8459 18.643 21.8459 23.9631C21.8459 29.2832 22.6478 34.4161 24.1374 39.2473C21.902 41.1906 19.8348 43.3224 17.9606 45.6179C16.0863 43.3224 14.0192 41.1905 11.7838 39.2473C13.2732 34.4161 14.0752 29.2833 14.0752 23.9632C14.0752 18.6432 13.2732 13.5104 11.7838 8.67922C14.0192 6.7359 16.0863 4.60411 17.9606 2.30859ZM7.51119 35.9073C5.1449 34.2487 2.63358 32.783 3.45508e-05 31.5328C0.730541 29.1384 1.12352 26.5967 1.12352 23.9633C1.12352 21.3298 0.730527 18.7881 0 16.3936C2.63358 15.1435 5.14494 13.6778 7.51127 12.0192C8.41608 15.8535 8.89484 19.8523 8.89484 23.9631C8.89484 28.0739 8.41605 32.0728 7.51119 35.9073ZM27.0268 23.9632C27.0268 28.0739 27.5055 32.0727 28.4103 35.907C30.7766 34.2485 33.2879 32.7828 35.9213 31.5327C35.1908 29.1383 34.7978 26.5966 34.7978 23.9631C34.7978 21.3297 35.1908 18.7881 35.9213 16.3937C33.2879 15.1436 30.7765 13.6779 28.4103 12.0195C27.5055 15.8537 27.0268 19.8526 27.0268 23.9632Z" fill="#6851FF"/>
</g>
</svg>
