<svg width="17" height="14" viewBox="0 0 17 14" fill="none" xmlns="http://www.w3.org/2000/svg">
<path d="M5.62865 13.5005C11.6649 13.5005 14.9674 8.49829 14.9674 4.16173C14.9674 4.0211 14.9643 3.87735 14.958 3.73673C15.6005 3.27213 16.1549 2.69666 16.5952 2.03735C15.9969 2.30355 15.3616 2.47741 14.7112 2.55298C15.3961 2.14243 15.9089 1.49747 16.1546 0.737666C15.5103 1.11953 14.8056 1.3889 14.0708 1.53423C13.5758 1.0082 12.9212 0.659899 12.2083 0.543189C11.4955 0.426479 10.764 0.547855 10.127 0.888553C9.49008 1.22925 8.98308 1.77029 8.68445 2.42803C8.38581 3.08577 8.31217 3.82356 8.4749 4.52735C7.17021 4.46188 5.89384 4.12296 4.72854 3.53255C3.56323 2.94215 2.53501 2.11345 1.71053 1.10017C1.29148 1.82265 1.16325 2.67758 1.3519 3.49122C1.54055 4.30485 2.03192 5.01612 2.72615 5.48048C2.20497 5.46393 1.6952 5.32361 1.23896 5.0711V5.11173C1.2385 5.86992 1.50061 6.60488 1.98075 7.19167C2.4609 7.77846 3.12943 8.18086 3.87271 8.33048C3.38992 8.46257 2.8832 8.48182 2.39178 8.38673C2.60152 9.03878 3.0096 9.60908 3.55906 10.018C4.10853 10.427 4.77196 10.6542 5.45678 10.668C4.29416 11.5812 2.858 12.0766 1.37959 12.0742C1.11741 12.0738 0.855481 12.0578 0.595215 12.0261C2.09712 12.9897 3.84424 13.5014 5.62865 13.5005Z" fill="#D2D2D2"/>
</svg>
