<svg width="17" height="16" viewBox="0 0 17 16" fill="none" xmlns="http://www.w3.org/2000/svg">
<g clip-path="url(#clip0_482_11938)">
<path d="M5.53344 14.5005C11.5697 14.5005 14.8722 9.49829 14.8722 5.16173C14.8722 5.0211 14.8691 4.87735 14.8628 4.73673C15.5052 4.27213 16.0597 3.69666 16.5 3.03735C15.9017 3.30355 15.2664 3.47741 14.6159 3.55298C15.3009 3.14243 15.8137 2.49747 16.0594 1.73767C15.415 2.11953 14.7104 2.3889 13.9756 2.53423C13.4806 2.0082 12.826 1.6599 12.1131 1.54319C11.4003 1.42648 10.6688 1.54786 10.0318 1.88855C9.39486 2.22925 8.88787 2.77029 8.58923 3.42803C8.2906 4.08577 8.21695 4.82356 8.37969 5.52735C7.075 5.46188 5.79862 5.12296 4.63332 4.53255C3.46802 3.94215 2.4398 3.11345 1.61531 2.10017C1.19627 2.82265 1.06804 3.67758 1.25669 4.49122C1.44534 5.30485 1.93671 6.01612 2.63094 6.48048C2.10975 6.46393 1.59998 6.32361 1.14375 6.0711V6.11173C1.14328 6.86992 1.4054 7.60488 1.88554 8.19167C2.36568 8.77846 3.03422 9.18086 3.7775 9.33048C3.2947 9.46257 2.78799 9.48182 2.29656 9.38673C2.5063 10.0388 2.91438 10.6091 3.46385 11.018C4.01331 11.427 4.67675 11.6542 5.36156 11.668C4.19895 12.5812 2.76278 13.0766 1.28438 13.0742C1.02219 13.0738 0.760266 13.0578 0.5 13.0261C2.0019 13.9897 3.74902 14.5014 5.53344 14.5005Z" fill="white" fill-opacity="0.8"/>
</g>
<defs>
<clipPath id="clip0_482_11938">
<rect width="16" height="16" fill="white" transform="translate(0.5)"/>
</clipPath>
</defs>
</svg>
